/* XPM */
static char *result[] = {
/* columns rows colors chars-per-pixel */
"64 64 48 1 ",
"  c #1C1613",
". c #1F1815",
"X c #211A16",
"o c #251E19",
"O c #27201B",
"+ c #2B241D",
"@ c #30271E",
"# c #33291F",
"$ c #2F2720",
"% c #302720",
"& c #332B22",
"* c #392F25",
"= c #3B3126",
"- c #3E3328",
"; c #423526",
": c #463926",
"> c #483C26",
", c #423629",
"< c #46392B",
"1 c #4A3C2C",
"2 c #4F402F",
"3 c #52422E",
"4 c #59462D",
"5 c #5C492E",
"6 c #5E512C",
"7 c #554431",
"8 c #584732",
"9 c #5C4A33",
"0 c #604C2E",
"q c #60522D",
"w c #614E33",
"e c #655133",
"r c #6B5534",
"t c #6B5B34",
"y c #745C36",
"u c #795F36",
"i c #736235",
"p c #7C6237",
"a c #7E6D37",
"s c #7E6338",
"d c #816F37",
"f c #826638",
"g c #826C38",
"h c #817037",
"j c #867439",
"k c #88763A",
"l c #8D7A3B",
"z c None",
/* pixels */
"z$$$$*=*$$$$$$$OOOOO+$+OOO&&1w7=-$o$%$=1<<1,**&$$ooX.X$$$$$$$&*=",
"$$$$$*=*$$$$$$$$OOOOO&&OO+$$791=*+oO$$=111<,=*%$$Xo. X$$$$$$$&=*",
"$$&&&***+$O$$$+oXooXoOoXXO$&171&&&&&$$*==,,*&&$$$**OoO$$$&$$$&=*",
"$$&=*==&OoOOoOO. .  .... o$$,1=$%,1,%$$$%**%oo$$*<<*$%$$$$$oo&==",
"&+&==**&O$o$OOO.  .. ....o&&,1,&&,1,&&&%&--%$o$%*1<*$%$$$&$oo&**",
"**&&$$O&--**$... .ooooooo+*=wye317871777777,$&177881,=***&&$o&=*",
"==&$$Oo&<<-=&    .+O+o+oO+=-yfywww9www999991$$7w99w11,==*=&OO&=*",
"==&$$OO$,,=&$$O.Xo+++oooo+==454:,111,<199ee1%%,1<,<<1,&$$&$O$&==",
"=*&$$$o$==&$&*=$+O*=&ooX.+=*$oX..ooo. ;9wuf8=*$oo  =1*.  ..$$&==",
"**&$$Oo$==&$$**$o+*=&ooX O=*Ooo. oooX.;8wyf9**$oo..=1*..   $$&=*",
"&&$$$$$$&&o..$$$++oooOOoo+=*oXXoXXoooO199ww1%%$oooo=1-. . .$$&=*",
"$$$$$$$$&$. .O.$%+  XOOOo%=*X.oOoX X$$19999<$%oo$o$-1=.. ..O.&==",
"&&&$$$O$$$o.oOO$++XXXoo+o%**oXXOoo.o%%1ew99,%+$oo$$*-*.....o$&**",
"**$oO. .oO$$$Ooo+oo+X .oO+$$+Oooooo+**wsyww,oooo$**O.$$.. .O.&-*",
"=-&oo...OO$$$oOO+o+oX XoOO$$OOOoooo$*=wsyw9<oooo$=*$$.$... oO&**",
"--*&$$o....$$&&$++oo*,;oXo$$+OO+%$$%**wsuyr1&&%$&,-==*.$.  $O*<-",
"<<--=$o.. oO$*=&$$OO,w8o X@%Oo+%$$$&=*9suff5**%$*<<11-Oo...OO*<<",
"1<--=$$$ .XoO**&$$OO,97+o@&%OoO%$$++*=0suuu9**%$*11<<-$OX .OO=11",
"<1<<-=&$. . XOOOoO$$=117811,OXX%$o o*=wsfuf7$$%$-991<,$$o .oO,99",
"1<1<1==$    .oOOOO$$=<<897<,o o+$X o*=wffuu7$$%+-992<-$$o .oo<99",
"<1172--&oXO$+&&+++++=77899w0@X+==+oO%$qgfuf3$%++*11<<-$OX X$&,72",
"<<298-=&OO*===*&$$Oo,w988rfu*X@11*&+Oo6kjsf4+%OO$*=,1-OO. o*=-<<",
"1<299-=&oo&**==&$+OO,9899euy;+*,<&+$+Oqkguu4++OO$**-<*OOX o*=,11",
"<<7981-*..$%*<<@.o&*==,899w0ry5&&+O&37rfpw9;XXOO$o$O$$OO. o,<288",
"<<29811*  $$*<<+ X*==*=89999ufe+++o@99rsyw9;  ooOoooOOOoX o<1899",
"22798-=*$$$$*13+ .$&=11,<1319w4**+O@99rsyw9,oo&&&$@+o+==O o-,199",
"99998&o$<<$$=59# .oo;98@o$*==*=11$o&89tfyww1==,1,==+o*99& X*=199",
"99998$O$<,&$=99* oOO;93+o%****=<<$O&88rsyw91==11,**+o&88@ X*=199",
"99998*$$----2yy>$*17=++&*&$Oooooo,31,,wfuyy3@*ey4XX++&,,+ o,<799",
"99998*$&=*<<7ps3*,99*  *=&Oo.    1w4*&9fsuf4+#yf4  +%&**o o<<799",
"77898=&&**--2pp2&=78*.X&&$XX. .oo;>333eyyyy3%*eu4++oo%;=+ o=<177",
"<<298-**$$**1pp1$$,1#o+oOo... o==+o=hkt89991*=3931<o +<,+ o*=,<<",
"<1199,**%%**>uf>$&<1*OOoOX....O=*$o-djt59991==893<<o O<<$ .**,1<",
"777<,==%Xo%&:ff1&*78,O$&&&OO+@@++*=,>2qyrw9,+%&*=1<&O$--$.$**<87",
"991=*==$  o%;uf1&,89,$$*=*$%*=*oo=1,$O5fuw9;oOoo&<1&$&*=$O$*=199",
"991===,%XXo@;uf>&*37,$$***&&&*@+$*,=&&4yrew:oOOO%,;*&&==$.o&*199",
"997<1<1=oo%%;uu:oO*=*$$$$*<,o +<;+ O<<<13yf3oOOOO&&-<,*=o XoO,99",
"991<111*oo$%;uf:o$**&$$$$*1<o +1<+ O<<<<1uf1ooOOO$%,1,*-o Xoo,99",
"1<191,,*oooo;uf>$$-,*OO$$*<<+Xo++++O&&<78wrw44@o%==,1<,,$ X+$,99",
"**198,-&o$oo;uu1$&<1*oO$$*<<++o  +&+oo<9999rfy&X&11<<<1<o X$$199",
"--187=*$OOOo=yu>$$<1=$$$$*<<%ooXXO@+OO,9888eyt,&*<<1111<+ X%%188",
"781==O.o$$Oo&9w1*=<<,<-$$*1,&$$@+X.O**==-11117ide=-7w1<<+ X**,11",
"9w1=*o o&$Oo&99,*-,<<1<%$*<<&+$+&X X*==*=<<<<<alt*=1981<o X**,,1",
"711<=O.oO$Oo*er1$*-,<<<<<1w9<*=<,+.o&%;111<177ete989971<@XX**171",
"<<<<,$OOOOOo*uf1$$==,<199rsp7<199*O+oo,w8<<2991,4sse9711+ X*-1w9",
"<<11<$OOOOO+;us1$&==-<<99esu7<284*OO++>991<7981<9yuew8,<+ o**198",
"<1<<<=*&+@++;us8-,<,,=,ruupp98711=*;rryuy98211889w9yuw*%X X*=,11",
"<<<<<==*$%%+;uu9<<<<-*,ysspue98,<=*<psspu992<<89989ufw$$X o*=,1<",
"<<<-=**&&&**<us9<1991==weyusw99891=1uusgsee9121<299953&&o X*=,1<",
"1<=$$$$$**,<7us9<1ys5*=<<9suw8epp8,7usdjjssr94*+-99*$%==o o**,1<",
"<<-$$$$&---,3up9,7us4**<<9suw9esu5<8psajjssr98*+;98=$&**+.o**,<1",
"1<-**$$*27-&<up9<1ww;XO,,5spyyphhyrydgjjjhjt98*$%&&=,*oX@==,,188",
"<<<*=&$-99=+;us5<189* X,19ppsufjjgsfjjkjjjki88*+Ooo,1=. *111<799",
"1<-**$$*88=+;ps91188*.o-,5ppussddspsggjjjjjy88*@&+$*=*oX*<111777",
"<1-**+o$<<*O;use9811&oO**3spsspppspuppdjjjji98-****+O+%$,<1991**",
"1<<**$o&<<*+;use881<*oO**4sppuuspupsppgjjjji99-*===+OO%%,<1891**",
"78<==$O$++oo+#;#%&O+oXXoo@::>1<,;;#;;::>1>>;**+oooo$$$**&%&,,<,,",
"991=*$$o             .  ..XoOO+oX   XooXoXoooX.    O$&**$o$*=,<1",
"881-=&&$XXoXXX...X..XXXX.o++&*&$+oo+@++@$+$O+Oo.o+o$$&-=$o$**-<,",
"<<<<<==*****#+@@$$$$+$+Oo+**,<<<<<<,<,<:,**&+@**,87*$&<<%oooO&==",
"<<1<<=====*==@%%$$$$$$$Oo%==<1<<11<11<1<<==&$$**<99*$&<<&oOoo$*=",
",--=====-,,,;====-*&&*&&&&&&=-=*&=,=&**&&&$&&*113891<127-*&o$$=*",
"*=*$$*=-<<<11111<<===*=*=&$%**&oo&=*OooooOo$==89999999992<-$o&==",
"=*&$$*=-<1<<<<<<<<=*===*=*%%*=*OO&=*OOOOOOO&==89899999992<-$o&=*"
};
