/* XPM */
static char *result[] = {
/* columns rows colors chars-per-pixel */
"64 64 143 2 ",
"   c #010101",
".  c #0D0D0D",
"X  c #141414",
"o  c #1C1C1C",
"O  c #242424",
"+  c #282724",
"@  c #292824",
"#  c #262728",
"$  c #2C2C2C",
"%  c #32312F",
"&  c #202533",
"*  c #2F3032",
"=  c #343434",
"-  c #3C3732",
";  c #363638",
":  c #3C3C3C",
">  c #413D37",
",  c #43423F",
"<  c #3D3E40",
"1  c #373B49",
"2  c #2C3551",
"3  c #203166",
"4  c #22346D",
"5  c #3F4041",
"6  c #3B445E",
"7  c #3C4460",
"8  c #3F4864",
"9  c #2F417B",
"0  c #394A7E",
"q  c #444444",
"w  c #4C4A45",
"e  c #44464A",
"r  c #46484D",
"t  c #4C4C4C",
"y  c #564F46",
"u  c #504F4B",
"i  c #5D5447",
"p  c #53514E",
"a  c #4D4E52",
"s  c #464B5A",
"d  c #494D5C",
"f  c #4F5056",
"g  c #4D515D",
"h  c #545454",
"j  c #585755",
"k  c #5B5957",
"l  c #555659",
"z  c #57595E",
"x  c #5B5B5B",
"c  c #685944",
"v  c #625749",
"b  c #64594C",
"n  c #735F46",
"m  c #635C54",
"M  c #615F5B",
"N  c #6B6053",
"B  c #61605E",
"V  c #6D655B",
"C  c #786751",
"Z  c #7C6C57",
"A  c #746858",
"S  c #7E6F5B",
"D  c #7D705F",
"F  c #424A65",
"G  c #474F69",
"H  c #4A526C",
"J  c #535762",
"K  c #565A66",
"L  c #5D5E61",
"P  c #54596A",
"I  c #4C5570",
"U  c #565E78",
"Y  c #5F6062",
"T  c #5D616D",
"R  c #5D6272",
"E  c #636363",
"W  c #686867",
"Q  c #686868",
"!  c #746C62",
"~  c #7C7266",
"^  c #7C7C7C",
"/  c #89765D",
"(  c #847561",
")  c #887B6A",
"_  c #96846C",
"`  c #9B856A",
"'  c #9B897C",
"]  c #AD926F",
"[  c #A28E75",
"{  c #B49773",
"}  c #B59973",
"|  c #C4A47B",
" . c #CCAA7E",
".. c #223D8F",
"X. c #334784",
"o. c #354882",
"O. c #3A4C85",
"+. c #354B8B",
"@. c #3B4E89",
"#. c #2B4799",
"$. c #2D499C",
"%. c #394F91",
"&. c #314C9C",
"*. c #3C5294",
"=. c #2F4CA4",
"-. c #2D4CAA",
";. c #324EA3",
":. c #314FA9",
">. c #3551A6",
",. c #3553AC",
"<. c #3955AA",
"1. c #2549B5",
"2. c #2B4EB6",
"3. c #294DB9",
"4. c #3553B1",
"5. c #46568D",
"6. c #415FBF",
"7. c #4561BE",
"8. c #4D65BB",
"9. c #5C6EB6",
"0. c #556AB8",
"q. c #7079AE",
"w. c #244ECA",
"e. c #2950C5",
"r. c #2750CB",
"t. c #2850C8",
"y. c #3055C5",
"u. c #7E82A9",
"i. c #8C8C8C",
"p. c #A1959C",
"a. c #AE9D98",
"s. c #8C89A4",
"d. c #9990A0",
"f. c #DCB686",
"g. c #DEB887",
"h. c #D4B28B",
"j. c #DAB688",
"k. c #DFB988",
"l. c #C6AA90",
"z. c #E1BA87",
"x. c #E2BB89",
"c. c #D6D6D6",
"v. c #DADADA",
/* pixels */
"# % : t t q q t t h h t q ; : e t e - $ % : t q t h j a : ; ; : 5 a t r w q * o X o o $ 5 r r p a t u h t 5 : : e w 5 5 = O o X ",
"O = t h h h a h h h l x j t h h l h e = $ % t p h l p t e w w w a p p h h t q : $ @ o $ w j j B B x l x x h a p x B h h e % O o ",
"O = t h h k k x B x x x x k x x x x h w = $ 5 h j l a t a t p h h h h j j h h a 5 < # = h x Y Y E Y Y E B Y x h x B x B u < $ o ",
"# = , e t a h k x k x l l j x x x x l p : $ $ q f p t q q 5 t a h h h h j j h p p t : , j x Y Y x x x x x p p r 5 r h j u < $ o ",
"$ $ % = : : q t h h u p h h j x x k f : % O o O : q 5 : : : : w w a h p t l j f a w e a j B Y j u p u r w e q , < < q a r ; O o ",
"$ O O O O = = = : t t e t h t h x f 5 = $ O o O O % : ; $ % = ; 5 p r 5 t h l j h 5 u h h e 5 : ; ; : : : : ; = $ O o @ % = $ O ",
"= % # O $ < e t t h f f h u : u x x h h w : : : @ $ q q q t a t x Y h e h B Y Y x h h x h < % , w 5 e r u u e q ; % = < < , : = ",
": ; $ + = t k x l j h j j f ; t B Y W Q Y h f t ; : h j x Y B B W W x p h Y Y B Y B j j h < % q j f p j Y E x x r w p x h a u t ",
"w ; # + % , t h j j j h h u : u B B Y E Y x p t 5 q l l x B Y Y Y Y x r w x Y j x x j h u q = , a a t p x E x E p a x x h h j j ",
"; ; $ # * = 5 u x Y x x x f e h B B E E Y k p j r 5 q l z J F F 8 H g r r L l t t r h h a f q a h h u j l l E Y p u x x j p a t ",
"$ O o o O o $ ; e h h l u , t t t e h j h q $ $ 2 9 =.>.,.>.-.-.-.:.;.;.=.>.X.2 @ @ % $ @ $ ; , 5 % % 5 , : 5 u r e t t w w , = ",
"o O O # # % : e p j j l h e h h f u h k u 1 4 4 ..1.r.r.r.r.r.r.r.r.r.r.r.w.1.#.4 3 & @ % = , t q ; : < 5 5 t p p a t t a a 5 * ",
"+ = : ; ; e k E E W Y x l x B x B E E P 8 9 e.r.r.r.t.t.t.t.t.t.r.r.t.t.t.t.t.r.r.e.9 6 6 u h x h u j a u j x h j x j h l j r ; ",
"% q u t r t j B E E E x x x B x x E T *.2.e.t.t.t.t.t.t.t.t.t.t.t.t.t.t.t.t.t.t.t.t.e.2.+.f x h j x x l x l f h l j h h t w 5 = ",
": l x f t u j B B Y B x Y x x Y E R 4.3.e.t.t.t.t.t.t.t.t.t.t.t.t.t.t.t.t.t.t.t.t.t.t.t.3.,.8 j l j j h j l h h f t e , % $ $ % ",
"5 w q : 5 = ; r j j f t t u h u H <.t.r.t.t.t.t.t.t.t.t.t.t.t.t.t.t.t.t.t.t.t.t.t.t.t.t.r.t.&.8 q 5 , 5 5 t t w < ; = $ o o O $ ",
"e e 5 ; , ; ; e x j h f u f , 6 #.t.t.t.t.t.t.t.t.t.t.t.t.t.t.t.t.t.t.t.t.t.t.t.t.t.t.t.t.t.r.#.6 , 5 t 5 r p a : % = $ @ * = : ",
"u j l u h j x M Y B E E W x 6 #.r.t.t.t.t.t.t.t.t.t.t.t.t.t.t.t.t.t.t.t.t.t.e.t.t.t.t.t.t.t.t.r.<.K E x L x B x e : q 5 r u u a ",
"u h u f x Y E M l k B B M J -.t.t.t.t.t.t.t.t.t.t.t.t.t.t.t.t.t.t.t.t.t.t.t.t.t.t.t.t.t.t.t.t.t.t.,.K x x x j x : = w u p u r u ",
"r u u f B W W E x B E W T %.3.r.t.t.t.t.t.t.t.t.t.t.t.t.t.t.t.t.t.t.t.t.t.t.t.t.t.t.t.t.t.t.t.t.r.e.%.K B x h p = % 5 r w < < q ",
"% = : r h x x l t w t p H 2.t.t.t.t.t.t.t.t.t.t.t.t.t.t.t.t.t.t.t.t.t.t.t.t.t.t.t.t.t.t.t.t.t.t.t.e.2.G p a < = # O * * * * % = ",
"# $ : t h j h u e : e s @.t.t.t.t.t.t.t.t.t.t.t.t.t.t.t.t.t.t.t.t.t.t.t.t.t.t.t.t.t.t.t.t.t.t.t.t.t.r.o.6 q = @ @ O + @ # * % # ",
": u Y W Q E E Y x h B 5.e.t.t.t.t.t.t.t.t.t.t.t.t.t.t.t.t.t.t.t.t.t.t.t.t.t.t.t.t.t.t.t.t.t.t.t.t.t.t.3.0 , u t e < : 5 q 5 ; @ ",
"q x W W Q E W E B W B 5.t.t.t.t.t.t.t.t.t.t.t.t.t.t.t.t.t.t.t.t.t.t.t.t.t.t.t.t.t.t.t.t.t.t.t.t.t.t.t.r.O.u p j p q < w t q < ; ",
"5 l W W Q Q W E E W I >.r.t.t.t.t.t.t.t.t.t.t.t.t.t.t.t.t.e.t.t.t.t.t.t.t.t.t.t.t.t.t.t.t.t.t.t.t.t.t.r.&.8 h f p e , t e , : $ ",
"; t h k x l k x Y Y *.3.t.t.t.t.t.t.t.t.t.t.t.t.t.t.t.t.t.t.t.t.t.t.t.t.t.t.t.t.t.t.t.t.t.t.t.t.t.t.t.t.3.+.e w e : = ; % $ $ O ",
": q r q : 5 t h h x <.r.t.t.t.t.t.t.t.t.t.t.t.t.t.t.t.t.t.t.t.t.t.t.t.t.t.t.t.t.t.t.t.t.t.t.t.t.t.t.t.t.r.=.: : = $ O O $ @ # * ",
"l k p : % 5 h j h l >.r.t.t.t.t.t.t.t.t.t.t.t.t.t.t.t.t.t.t.t.t.t.t.t.t.t.t.t.t.t.t.t.t.t.t.t.t.t.t.r.r.r.$.; * @ % 5 q a t a j ",
"B x h u a u x B L l >.r.t.t.t.t.t.t.t.t.t.t.t.t.t.t.t.t.t.t.t.t.t.t.t.t.t.t.t.t.t.t.t.t.t.t.t.t.t.t.t.t.r.=.5 , % ; p h j x Y B ",
"x x j u f h x B l d ,.r.t.t.t.t.t.t.t.t.t.t.t.t.t.t.t.t.t.t.t.t.t.t.t.t.t.t.t.t.t.t.t.t.t.t.t.t.t.t.t.t.r.-.6 t < q x x x B B Y ",
"l j p e q k ~ ) ~ U 4.t.t.t.t.t.t.t.t.t.t.t.t.t.t.t.t.t.t.t.t.t.t.t.t.t.t.t.t.t.t.t.t.t.t.t.t.t.t.t.t.t.w.4.R ! D V k j p f l j ",
"q r e , w / | z.h.s.y.t.t.t.t.t.t.t.t.t.t.t.t.t.t.t.t.t.t.t.t.t.t.t.t.t.t.t.t.t.t.t.t.t.t.t.t.t.t.t.t.t.w.6.s.h.z.{ A M e , 5 5 ",
"o o @ y }  .g.g.h.s.6.w.t.t.t.t.t.t.t.t.t.t.t.t.t.t.t.t.t.t.t.t.t.t.t.t.t.t.t.t.t.t.t.t.t.t.t.t.t.t.t.t.w.6.s.h.g.f.| _ p , = o ",
"X o - Z f.g.g.g.h.d.6.w.t.t.t.t.t.t.t.t.t.t.t.t.t.t.t.t.t.t.t.t.t.t.t.t.t.t.t.t.t.t.t.t.t.t.t.t.t.t.t.t.t.7.d.h.g.g.g.| V w : O ",
"o O v } g.g.g.g.h.a.8.w.t.t.t.t.t.t.t.t.t.t.t.t.t.t.t.t.t.t.t.t.t.t.t.e.t.t.t.t.t.t.t.t.t.t.t.t.t.t.t.t.w.7.a.j.g.g.g.g.` N < O ",
"O $ S x.g.g.g.g.f.l.0.w.t.t.t.t.t.t.t.t.t.t.t.t.t.t.t.t.t.t.t.t.t.t.t.t.t.t.t.t.t.t.t.t.t.t.t.t.t.t.t.t.w.0.l.j.g.g.g.g. .~ ; O ",
"o # D x.g.g.g.g.g.h.9.w.t.t.t.t.t.t.t.t.t.t.t.t.t.t.t.t.t.t.t.t.t.t.t.t.t.t.t.t.t.t.t.t.t.t.t.t.t.t.t.t.w.9.j.g.g.g.g.g.x._ : O ",
"o o C x.g.g.g.g.g.j.9.w.t.t.t.t.t.t.t.t.t.t.t.t.t.t.t.t.t.t.t.t.t.t.t.t.t.t.t.t.t.t.t.t.t.t.t.t.t.t.t.t.w.9.j.g.g.g.g.g.k.( ; $ ",
": % S x.g.g.g.g.g.j.q.y.t.t.t.t.t.t.t.t.t.t.t.t.t.t.t.t.t.t.t.t.t.t.t.t.t.t.t.t.t.t.t.t.t.t.t.t.t.t.t.t.y.q.j.g.g.g.g.f.| D t t ",
"l e N } f.g.g.g.g.g.p.0.t.t.t.t.t.t.t.t.t.t.t.t.t.t.t.t.t.t.t.t.t.t.t.t.t.t.t.t.t.t.t.t.t.t.t.t.t.t.t.t.0.p.j.f.g.g.g.g.` B x x ",
"j a : b  .g.g.g.k.k.j.u.r.t.t.t.t.t.t.t.t.t.t.t.t.t.t.t.t.t.t.t.t.t.t.t.t.t.t.t.e.t.t.t.t.t.t.t.t.t.t.r.u.j.g.g.g.g.f.| A x L x ",
"x t : > /  .g.g.k.x.g.s.t.t.t.t.e.t.t.t.t.t.t.t.t.t.t.t.t.t.t.t.t.t.t.t.t.t.t.t.t.t.t.t.t.t.t.t.t.t.t.e.s.x.g.g.g.g.| m j Y B x ",
"w < $ o - b ] g.x.x.k._ 0 t.t.t.t.t.t.t.t.t.t.t.t.t.t.t.t.t.t.t.t.t.t.t.t.t.t.t.t.t.t.t.t.t.t.t.t.t.r.5.' x.x.x. .` i ; 5 q q t ",
", t w < : t i c n n n i G 2.t.t.t.t.t.t.t.t.t.t.t.t.t.t.t.t.t.t.t.t.t.t.t.t.t.t.t.t.t.t.t.t.t.t.t.t.2.P D [ [ [ _ V t t a p 5 * ",
"e l W B j Y @         % R *.3.t.t.t.t.t.t.t.t.t.t.t.t.t.t.t.t.t.t.t.t.t.t.t.t.t.t.t.t.t.t.t.t.t.t.e.*.T x x x Y B Y W W W W t $ ",
"q h B x j Y $       . = W T 4.t.t.t.t.t.t.t.t.t.t.t.t.t.t.t.t.t.t.t.t.t.t.t.t.t.t.t.t.t.t.t.t.t.t.,.T E L x j Y B x L Y W x p 5 ",
", j E E E E #         = Y Y P >.r.t.t.t.t.t.t.t.t.t.t.t.t.t.t.t.t.t.t.t.t.t.t.t.t.t.t.t.t.t.t.r.<.P E W Y B B E W Y W W W W l q ",
"% ; e u f u o         * h p w 8 &.r.t.t.t.t.t.t.t.t.t.t.t.t.t.t.t.t.t.t.t.t.t.t.t.t.t.t.t.t.r.&.6 , w f h l j h h f p j f t : * ",
"* : 5 e t = X         X = t : w I <.t.t.t.t.t.t.t.t.t.t.t.t.t.t.t.t.t.t.t.t.t.t.t.t.t.t.r.r.>.H u q e h f t j l q 5 t l h q : ; ",
"t j j j h o             X t : h Y T ,.e.t.t.t.t.t.t.t.t.t.t.t.t.t.t.t.t.t.t.t.t.t.t.t.t.3.:.g B W Y x B x j B B t t j x B L j j ",
"x x j u t .             X t t k E Y T *.2.t.t.t.t.t.t.t.t.t.t.t.t.t.t.t.t.t.t.t.t.t.t.2.*.T f x Y B B E E B L E h f x L B x x j ",
"j x l t 5 .             o t r h x B W R R *.e.r.r.t.t.t.t.t.t.r.t.t.t.t.t.t.r.r.t.e.O.G T Y p x Y x x W Y M Y E j h x B Y L j l ",
"a e : % o   h i.i.i.i.q . = = ; < 5 h j p d 0 @.&.2.r.r.r.r.r.r.r.r.r.r.r.r.3.#.o.0 s p x x e u l h h j x l x j q q h h t w e q ",
"5 % O o o X ^ c.c.c.v.^ X $ $ $ = : w t , : t u 8 +.;.;.;.:.-.-.-.-.:.;.;.<.+.7 t q , q t x p a h j p f j j l h q q h l q q q , ",
"= $ $ ; : : q t h l h h t e t j j L h h , ; t r h l h a g s 8 6 7 7 s f h x x h h q : ; w Y W W W W E E W E E W W E W E x L L x ",
"t h h u q e t u u t w t j h h x B h a p , = r u p p h h j x x z l h l j j h l j h , ; t Y W B Y W E E W E Y Y W W W E W W W E x ",
"j l k j u e h l l h h l x x h j x j h < @ % r p h p h h x Y E Y L x x x j l j L B a < u W W W Y W Y Y W Q W W Q W W Q W E W W x ",
"u h t e e q t u t t w f h h u h h j a $ o # , , w r q , w h j h p t t t a p p f h t : < p x B x j j h j l j j B x j j p f h p f ",
"t t q % % = 5 , q : = q e f a f h h t = O # : : < : % = ; 5 a w 5 : ; = ; , w r e , = % < h p a a u : : < 5 q a q : : ; : : , q ",
"h t ; o o @ ; e h t t t j k u h x x x h r w r q < < < < e p h r q q = o # ; h B x u r h B Y 5 t f l f w 5 t p l q ; * ; : 5 q t ",
"f u e : : r p j x x l h j x h x Y B Y B B x B x p a h r p j j h p a 5 % < u x Y Y j j Y W B 5 p B B j j h j x l t w t a p u a h ",
"h t e q t j B Y x x E B j u q h Y B B E E E E E j j B h j j l h h l w : q x Y B E Y Y B W E a j Y E x Y B B Y x a t p h l f h j ",
"t w 5 : e p j l x x B h q = $ 5 h x x B Y x B Y h x j h u r r a p h r , q j h p h p h x x h a x Y Y Y B x x j r : 5 t t t w e t ",
"= : ; : t 5 5 t j x l 5 O o o = a j h x l j h x h h h r : = , 5 5 h a w e p a 5 : : q f u < 5 p x x x j f w , % $ ; q 5 , ; = = "
};
