/* XPM */
static char *result[] = {
/* columns rows colors chars-per-pixel */
"64 64 142 2 ",
"   c #161616",
".  c #181616",
"X  c #1D1D1D",
"o  c #2E0A0A",
"O  c #3C0404",
"+  c #310907",
"@  c #340D0C",
"#  c #3B0D0D",
"$  c #3F100F",
"%  c #3C0F10",
"&  c #2A1717",
"*  c #211C16",
"=  c #201E1C",
"-  c #361212",
";  c #3D1213",
":  c #321F1E",
">  c #3D1A1A",
",  c #23201C",
"<  c #1F1F20",
"1  c #242424",
"2  c #292726",
"3  c #2B2925",
"4  c #272728",
"5  c #272829",
"6  c #2C2C2C",
"7  c #372424",
"8  c #312D27",
"9  c #312E2C",
"0  c #3C2A29",
"q  c #36312C",
"w  c #38332C",
"e  c #2F2F30",
"r  c #343434",
"t  c #3A3533",
"y  c #3C3936",
"u  c #3C3C3C",
"i  c #460E02",
"p  c #4A0C00",
"a  c #471004",
"s  c #4A1204",
"d  c #46150C",
"f  c #49190F",
"g  c #511601",
"h  c #551900",
"j  c #591C00",
"k  c #411415",
"l  c #431718",
"z  c #431C1C",
"x  c #45290F",
"c  c #5C2101",
"v  c #53220B",
"b  c #492C12",
"n  c #49211F",
"m  c #4E3117",
"M  c #4E3218",
"N  c #51351B",
"B  c #54381E",
"V  c #652600",
"C  c #652904",
"Z  c #6D2D00",
"A  c #642D0A",
"S  c #673203",
"D  c #693406",
"F  c #6B3608",
"G  c #6E390A",
"H  c #713100",
"J  c #773B06",
"K  c #7B3C07",
"L  c #713209",
"P  c #713C0D",
"I  c #7B3B09",
"U  c #452222",
"Y  c #4A2323",
"T  c #573A21",
"R  c #5A3D24",
"E  c #453232",
"W  c #433D3C",
"Q  c #4E3B3A",
"!  c #523F3E",
"~  c #7C4D07",
"^  c #7C410B",
"/  c #7C4F08",
"(  c #7E510A",
")  c #6F4612",
"_  c #6F4518",
"`  c #764B1B",
"'  c #784D1D",
"]  c #5C4026",
"[  c #5E4229",
"{  c #46413D",
"}  c #62462C",
"|  c #65492F",
" . c #664B32",
".. c #694D33",
"X. c #6D5137",
"o. c #6C5139",
"O. c #3E3F40",
"+. c #3F4042",
"@. c #444444",
"#. c #4C4544",
"$. c #4E4A45",
"%. c #464748",
"&. c #4C4C4C",
"*. c #564342",
"=. c #514D47",
"-. c #534C4B",
";. c #584F4F",
":. c #54514D",
">. c #59544E",
",. c #4E4F51",
"<. c #4F5050",
"1. c #545454",
"2. c #5A5554",
"3. c #5C5955",
"4. c #575758",
"5. c #575859",
"6. c #5B5B5B",
"7. c #605B57",
"8. c #625E5B",
"9. c #64615D",
"0. c #68635F",
"q. c #5E5F60",
"w. c #5F6061",
"e. c #636363",
"r. c #6A6765",
"t. c #676869",
"y. c #6A6A6A",
"u. c #834300",
"i. c #84530D",
"p. c #8B5109",
"a. c #845611",
"s. c #885610",
"d. c #865912",
"f. c #8B5D15",
"g. c #85591B",
"h. c #8C5F18",
"j. c #905E18",
"k. c #8F6017",
"l. c #8D611A",
"z. c #91631A",
"x. c #A26A13",
"c. c #B27517",
/* pixels */
"5 9 u &.%.@.@.%.&.1.1.&.+.y u %.-.%.q v u.f.&.@.&.1.5.&.u y y u +.&.&.&.%.%.e X . . + Z p.] $.&.:.&.&.1.&.@.y O.%.&.%.O.q 1   . ",
"1 r &.1.4.1.:.1.4.4.5.3.4.&.<.1.4.,.W k J f.&.<.1.1.1.&.%.%.%.%.&.<.1.1.1.&.@.y 5 2 - j ^  .2.6.q.6.6.q.6.4.&.<.6.6.1.1.%.e 1 X ",
"1 r &.1.1.5.6.6.q.6.6.q.6.6.6.6.q.4.-.% Z s.{ 1.5.1.&.&.&.&.<.1.5.1.1.1.5.1.1.&.@.u ; g G  .7.e.e.q.6.e.w.6.6.<.5.6.6.6.<.O.6 X ",
"5 r +.%.&.&.1.6.6.5.5.3.4.4.6.6.6.4.-.k H i.6 @.1.:.&.%.@.%.%.,.1.1.1.1.4.1.1.1.1.&.z g G  .9.q.6.6.6.6.4.1.<.&.%.&.1.4.&.O.6 X ",
"5 q e r u u @.&.1.1.&.:.1.4.4.6.6.4.$.% H ~ . 4 u %.{ u u u u @.&.&.1.&.&.4.4.&.&.&.> h G ..6.4.&.1.&.&.%.%.+.@.u O.@.&.&.u 1 . ",
"5 1 1 1 4 r r r O.&.&.%.&.&.&.1.6.,.W # H / 1 1 1 6 u r 6 e r u @.&.&.@.&.1.5.3.:.%.> g G ] { u r y u y u u y e 6 1 , 5 q e e 1 ",
"r e 5 1 6 @.%.%.&.1.<.<.1.<.u &.8.3.=.$ H d.u u 5 6 %.%.@.&.&.&.6.q.1.%.1.q.w.q.6.1.z h D B w +.&.@.@.&.&.<.&.%.y e r O.O.+.u r ",
"u u 6 1 q %.5.6.5.4.4.4.5.&.y &.q.q.2.l D k.-.&.r u 1.5.6.w.e.w.t.t.6.<.1.e.e.q.w.6.n h F T 8 @.1.1.<.4.6.e.6.6.&.&.<.6.1.<.&.&.",
"&.r 1 1 e +.&.1.4.4.4.1.1.<.u <.e.6.2.k H j.-.-.u #.3.3.7.8.9.8.9.9.3.=.#.6.7.2.3.2.z h F R q @.<.&.&.:.6.w.w.9.&.&.6.6.5.1.1.5.",
"u r e 1 e y +.&.5.q.6.6.5.:.%.1.q.q.2.l J j.} } ] T R  .o.o...o.o.o.o.[ ] .. .[ } ] f j G } { &.5.<.<.5.5.5.w.9.<.<.6.5.4.:.<.&.",
"5 1 1 X 1 1 3 y $.<.1.4.<.O.$.&.&.%.*.k j I J P P F F P P P G ) P ) G G F P P P P G c c D m y @.u q r O.O.u O.<.&.%.&.&.%.%.O.y ",
"< 1 1 1 1 6 u %.<.4.4.4.:.%.1.1.&.&.-.k p c h j j j j j j j j j j j j j j j j j j j s c D N { &.+.u u O.O.{ %.:.<.&.&.&.<.&.+.e ",
"1 r u u u %.5.9.e.e.w.6.5.6.w.6.6.e.2.l j A z z z z z z z z z z z z z z z z z z z z # h L } >.6.5.<.5.&.<.4.5.4.5.5.5.1.5.5.%.y ",
"e @.<.%.%.&.4.q.e.e.9.6.6.6.q.6.6.e.2.l Z l.3.5.1.-.1.1.:.4.6.3.2.1.2.6.2.1.1.1.1.2.z g G } 2.5.1.5.6.5.4.4.1.1.5.5.1.1.&.$.+.r ",
"u 1.6.1.&.&.4.q.w.e.q.q.w.6.6.w.e.y.8.l H l.5.5.5.1.-.@.@.&.5.3.6.2.5.5.6.1.1.1.5.1.z h G } =.1.5.5.5.1.5.5.1.1.1.&.%.{ r 5 6 e ",
"O.%.@.u O.r y %.5.5.<.&.&.<.:.1.4.2.;.k H h.:.&.u r 6 4 4 e +.&.+.u u u &.@.u u u y > g F } $.&.%.O.O.{ @.%.&.%.u y r 5 X X 1 6 ",
"%.%.u y O.y y %.6.5.1.<.<.<.@.%.<.&.#.; H f.&.u e 1 1 6 q r O.&.u r r e O.u y u t r - h F ] =.&.&.%.@.%.{ &.<.&.y r r 6 6 6 r u ",
"<.4.4.<.1.5.5.6.9.w.e.e.t.6.u +.1.1.-.; H h.:.%.r r O.&.1.5.6.6.&.&.@.u u %.&.<.1.&.z h G } $.5.0.w.w.6.q.6.6.6.%.O.{ @.%.&.<.1.",
"<.<.<.<.5.e.e.w.5.5.w.9.q.1.r O.:.<.#.; D l.1.&.+.%.5.6.6.6.4.1.&.&.+.r r %.1.1.1.1.Y h G ] y &.6.3.6.q.6.6.4.5.u r %.&.<.<.&.%.",
"%.=.<.1.w.t.t.w.6.w.w.e.9.5.q r @.&.$.; H f.-.1.&.1.e.w.6.5.1.&.1.&.u 6 r &.1.1.6.5.z h D B t &.6.6.6.q.q.6.1.1.r r O.%.%.O.u %.",
"r r u $.4.5.6.4.&.%.&.5.5.<.6 , 6 t W ; H i.u &.%.&.9.6.1.1.&.u y r 1 < r #.%.@.%.&.z h S b q @.%.{ <.1.1.<.u r 5 1 6 r 9 9 r r ",
"1 5 u &.1.4.1.:.%.u @.1.5.&.y 6 6 r W # H ( 3 +.&.&.1.4.<.&.%.r 5 6 5 5 u @.u r u 1.z h D b t u u r $.<.&.@.r 6 1 5 1 5 5 r r 1 ",
"u <.w.t.y.e.9.w.8.1.w.e.w.6.6.4.1.4.-.; H i.w { :.>.>.>.2.>.:.=.=.=.&.$.=.=.=.=.>.8.Y h G } &.&.&.&.1.5.<.%.%.&.%.u u { { O.r 5 ",
"@.6.t.t.t.t.e.e.w.t.e.e.t.e.w.t.y.e.;.; K x.) ` ` ' ' ' ` ` ` ` ` ` ` ` ` ` ' ` ` ' v j G | -.1.1.5.5.5.1.1.<.1.<.%.O.%.&.%.O.r ",
"O.5.e.t.y.y.t.e.t.t.0.t.t.e.t.y.y.e.;.; g A C C C C C C C C C C C C C C C C C C C C s j F ] =.1.1.5.5.1.1.5.1.1.<.%.@.%.%.@.r r ",
"y &.4.5.5.5.5.7.q.w.9.w.8.w.r.t.e.6.#.k p g p i i a i a a a a a a a a a s s a s s i i j F R { %.@.%.@.@.@.&.%.&.%.y r r r 6 6 , ",
"u @.%.@.u O.&.1.1.q.6.1.1.6.6.w.e.4.W # V D @ o o @ > - > > > > U U > > > z 7 U U U # j D m w r r r u r r u y u r 6 1 1 6 1 5 e ",
"5.5.:.u r O.1.5.1.5.6.5.4.4.<.w.t.8.#.; H ( 5 < . 1 r 6 u %.%.#.1.2.%.y @.;.6.6.6.8.Y j A x 8 r @.&.%.O.+.{ r r 5 9 @.@.<.&.&.6.",
"w.6.1.<.&.<.5.9.q.q.6.6.w.8.5.w.t.e.2.l H s.r r 6 e @.@.&.1.1.1.6.6.&.r u 1.e.y.y.y.Y j D B { O.{ %.<.<.&.<.&.O.e r 1.1.6.6.6.w.",
"q.6.1.:.1.5.w.e.q.q.8.w.w.6.<.5.t.t.8.l Z f.;.%.r r %.&.5.6.6.6.w.q.1.@.%.1.e.y.y.y.Y c ) | { %.%.1.<.1.5.1.1.<.{ %.4.5.6.w.w.8.",
"4.1.<.%.@.&.5.5.4.4.1.4.1.%.u &.3.3.-.k H h.1.&.+.+.&.<.6.w.6.5.1.6.1.&.@.&.6.e.e.t.Y h F } w O.&.1.<.1.5.1.<.<.&.<.5.5.1.1.5.5.",
"{ %.%.O.y r +.&.$.%.@.u y e 6 u @.@.y % H a.y u @.&.1.3.6.5.1.&.%.&.&.%.u u @.1.6.t.Y j D M , r <.1.%.&.1.1.<.{ @.%.1.5.+.u @.{ ",
"X X 4 y u u +.u @.@.&.%.@.@.%.%.&.#.t # H / = < 5 @.5.w.6.9.2.@.{ %.1.6.1.%.&.:.4.1.z h D M W %.%.@.@.&.&.1.1.&.1.1.<.6.&.@.r X ",
"  X e +.%.&.1.1.:.1.1.1.&.&.1.1.4.4.#.; H ( 3 9 u 1.e.e.w.6.e.6.5.5.w.e.5.5.6.6.1.#.> h F R 3.e.6.1.6.q.q.6.6.6.6.6.6.e.4.&.u 1 ",
"X 4 r @.&.&.1.1.1.5.1.1.1.1.1.<.4.q.;.k H d.W %.1.5.e.e.w.e.t.t.e.e.w.w.6.w.6.1.&.r # h F ] 2.e.y.e.e.9.w.e.e.e.e.9.q.q.q.1.u 4 ",
"1 e r y @.%.&.1.1.1.1.1.1.4.1.:.1.4.-.; H h.1.1.4.1.5.q.q.e.e.9.q.w.6.1.1.1.%.+.r < o g F R $.5.t.t.q.1.5.9.q.e.q.q.6.1.1.&.u 1 ",
"X 6 e r u @.&.1.&.&.u %.1.&.1.1.1.1.$.% H j.2.7.3.:.=.3.8.r.0.>.>.3.>.=.#.{ y 8 2 * + j D B :.e.e.q.1.1.5.6.5.5.1.<.$.@.@.&.+.1 ",
"< 1 < X 1 u &.<.<.&.u r 5 6 O.&.&.&.#.k I c.f.f.f.i.i.f.j.j.j.s.f.h.s.i.i.i.i.i.i.~ j c D B -.1.4.:.@.&.1.1.&.y e r r e u { u 6 ",
"u r e r r &.6.9.6.6.1.&.@.@.%.4.6.4.-.k g L V V V V V V V V V V V V C V C C V C V V g j F ] >.5.6.6.1.1.1.1.1.@.r y %.{ %.&.&.&.",
"4.%.@.@.&.6.t.y.e.t.e.e.e.w.1.6.e.q.-.k p g k k d # k f k k k k k k # O # # # $ d k O h G | 2.q.e.e.e.5.4.6.6.1.u u 5.4.5.6.6.5.",
"3.&.+.@.<.w.t.t.e.e.e.e.e.e.&.1.8.6.;.k V i.! ! 0 7 E ! *.*.*.*.! Q 0 & : 0 0 E Q Q k h G } =.1.w.8.6.6.6.6.q.&.e u 1.5.6.6.q.6.",
"6.&.y y &.q.e.t.y.e.e.6.6.4.@.&.6.q.;.k Z j.q.4.r 2 t 1.e.e.q.e.r.;.q . 1 y @.&.1.8.Y h F R y &.5.5.5.6.w.q.5.<.+.O.%.&.5.w.w.6.",
"%.O.e X e %.&.1.5.2.%.@.%.%.q r +.%.{ % L h.1.&.r 2 6 W -.5.3.6.6.%.e 4 4 1 6 6 r @.> g D M 8 r O.u u @.1.4.@.y O.@.u y O.%.%.%.",
"O.&.%.u u &.1.4.4.1.&.&.&.&.@.@.#.%.#.k Z j.3.4.&.@.%.1.5.5.5.6.6.&.&.&.O.y r e 6 r $ g F T { %.$.&.$.&.4.4.&.%.<.1.<.&.&.<.+.q ",
"@.2.t.q.4.e.9.6.e.6.6.q.e.t.e.q.8.q.2.k H z.t.t.y.e.e.y.y.t.e.y.e.6.e.e.6.5.&.%.+.r - h G } 3.6.w.t.y.e.q.6.w.e.e.9.t.e.t.9.&.e ",
"%.4.6.q.5.9.q.w.e.8.6.6.e.e.e.q.q.q.;.k Z z.6.8.e.e.t.y.y.y.y.y.e.e.e.9.4.6.4.&.&.{ - h F R :.w.e.w.e.e.q.5.4.9.w.q.w.e.t.q.:.O.",
"u 4.e.e.e.e.q.6.q.q.6.8.9.e.q.e.e.9.2.l H l.6.8.t.t.y.y.e.y.y.y.e.e.t.e.e.e.e.1.%.@.- h F R $.6.e.e.e.t.e.q.q.9.e.t.e.t.e.e.4.@.",
"e y %.<.&.&.%.@.@.+.@.%.,.,.&.1.1.,.-.; H f.&.&.&.1.5.6.6.6.4.@.O.&.&.%.O.u u u @.y - h D b y &.<.@.%.1.1.1.4.4.1.<.<.6.1.&.u r ",
"r y @.%.&.<.%.{ %.+.%.&.<.%.y &.4.,.#.k Z j.1.&.@.%.,.6.1.5.1.u u &.&.r 6 r t @.,.@.> h D B { 1.1.%.%.<.:.&.5.4.%.{ &.4.:.%.u y ",
"%.5.5.1.5.e.w.6.w.e.w.w.5.<.u 1.y.r.7.l H j.e.e.4.1.6.q.6.6.6.1.1.6.1.&.@.<.q.e.e.e.n h G ..2.e.t.9.6.w.5.5.w.w.&.%.5.w.w.6.5.1.",
"6.6.1.<.1.5.5.5.5.6.w.8.4.<.<.5.e.q.2.k H z.8.9.>.:.2.2.3.3.1.2.3.3.:.>.6.e.e.8.8.e.Y g P  .:.6.9.q.w.e.w.w.q.9.1.<.6.6.w.q.5.5.",
"5.5.4.&.{ &.4.6.5.4.q.7.5.<.%.1.q.q.2.k I c.z.z.k.h.k.h.k.k.h.h.l.k.h.j.z.z.z.z.k.z.F V G ..=.5.w.q.5.t.9.q.w.t.5.1.6.8.w.6.5.5.",
"&.$.u 6 1 5 y +.@.O.{ O.y r r r O.@.#.k j I Z Z Z Z Z Z Z Z Z Z Z Z Z Z Z Z Z Z Z Z h c G | #.&.1.1.1.5.5.5.5.5.@.@.:.4.&.&.%.@.",
"u r 1 X X < 1 r u u u r 6 6 5 r r u Q ; p s k % k k ; % k k k ; > ; k k ; l ; k k ; O g P | =.1.4.4.1.1.4.5.5.1.@.@.1.4.@.{ @.O.",
"r e e y u u O.%.1.1.1.<.$.%.&.<.6.8.#.k Z a.{ #.-.;.$.#.,.;.;.;.;.;.;.-.-.;.-.-.-.W > g P ..e.t.t.t.e.e.0.e.e.t.e.e.t.e.q.w.w.5.",
"&.<.1.&.@.%.&.<.<.&.%.&.1.4.4.6.6.1.#.k Z f.&.&.&.1.1.1.4.6.6.8.1.4.4.4.4.1.1.4.;.W - j P X.7.e.0.e.e.e.e.e.e.e.t.t.e.t.e.r.e.6.",
"1.4.5.1.<.%.:.5.1.5.1.5.6.5.1.4.5.4.$.k Z f.-.<.&.<.1.1.6.w.e.6.6.6.5.5.5.1.5.9.6.-.z h G o.9.e.e.e.e.t.t.t.t.y.t.y.t.e.e.t.t.6.",
"<.1.<.%.%.@.%.<.&.&.&.<.4.1.<.:.1.4.#.k Z d.@.@.&.&.@.O.%.1.3.1.1.&.&.&.&.1.1.1.1.&.> h P  .8.q.5.5.:.1.>.4.4.q.5.5.5.<.1.1.1.<.",
"&.&.O.r r r O.{ O.y u u $.<.<.<.1.;.{ # H s.u r O.u r r y @.&.&.O.t r r u O.%.&.#.+.> h G | =.&.<.&.O.u O.@.@.<.$.u u y y u O.@.",
"1.&.r = X 5 r %.<.&.&.<.1.5.<.1.6.6.2.k H h.&.@.O.u O.+.@.<.1.&.%.%.r < 1 y 1.w.5.&.> h P  .W #.1.4.<.%.{ %.1.1.@.r r r u { %.&.",
":.<.%.y u %.1.5.6.6.5.5.1.6.1.6.q.6.2.k D z.q.6.:.&.1.&.&.4.4.1.<.:.O.r u &.6.e.q.3.z h G  .{ 1.q.q.5.4.1.4.6.5.&.%.&.&.<.<.&.1.",
"1.&.%.@.$.5.w.w.6.6.w.6.5.<.@.1.e.6.2.k H z.9.e.4.4.6.1.4.1.4.1.1.1.%.u @.5.6.w.e.q.U j ) ..$.5.e.w.q.q.w.w.w.6.&.&.1.<.1.1.<.5.",
"&.+.O.O.%.<.4.5.6.6.w.1.@.r 6 O.3.5.;.k Z g.7.6.4.4.6.1.&.&.&.&.1.1.&.O.%.4.5.1.1.:.z s A } =.5.q.q.7.q.6.6.1.&.O.@.&.&.&.&.&.&.",
"y u y y &.O.{ %.4.6.5.{ 1 X X r &.1.-.; j _ 4.4.4.1.1.&.u u u u %.<.:.@.%.&.&.@.u y ; O s B { <.7.5.q.5.:.&.O.e 5 y @.@.O.r r r "
};
