/* XPM */
static char *result[] = {
/* columns rows colors chars-per-pixel */
"64 64 114 2 ",
"   c #161616",
".  c #1C1C1C",
"X  c #252424",
"o  c #272A29",
"O  c #2C2C2C",
"+  c #283531",
"@  c #343434",
"#  c #343B38",
"$  c #3C3B3C",
"%  c #1C553F",
"&  c #3E3E40",
"*  c #394943",
"=  c #275342",
"-  c #325346",
";  c #395445",
":  c #3D564C",
">  c #31584A",
",  c #3A5C4F",
"<  c #256F50",
"1  c #2E7255",
"2  c #444444",
"3  c #494647",
"4  c #4B4947",
"5  c #4C4C4C",
"6  c #405647",
"7  c #514F50",
"8  c #4D5150",
"9  c #4D5E52",
"0  c #545454",
"q  c #585856",
"w  c #585759",
"e  c #5B5B5B",
"r  c #446459",
"t  c #4A6859",
"y  c #5E605F",
"u  c #576F5F",
"i  c #696B5E",
"p  c #5C7667",
"a  c #557A66",
"s  c #636363",
"d  c #646D65",
"f  c #686769",
"g  c #696969",
"h  c #637366",
"j  c #6A7464",
"k  c #637962",
"l  c #6E7966",
"z  c #71726C",
"x  c #787A6D",
"c  c #727371",
"v  c #3D8864",
"b  c #428B66",
"n  c #468E6A",
"m  c #498D6A",
"M  c #4D926D",
"N  c #539570",
"B  c #549872",
"V  c #5B9A75",
"C  c #738A6F",
"Z  c #738472",
"A  c #7B8570",
"S  c #7A8977",
"D  c #6F9378",
"F  c #649F7A",
"G  c #739C7C",
"H  c #6BA47E",
"J  c #828474",
"K  c #878B76",
"L  c #8C8F7A",
"P  c #809274",
"I  c #8C9E7E",
"U  c #76AC84",
"Y  c #7BAB84",
"T  c #7EB087",
"R  c #849D82",
"E  c #959884",
"W  c #9AA38B",
"Q  c #84B28B",
"!  c #8AB78F",
"~  c #8CB88F",
"^  c #93BB92",
"/  c #BBBF99",
"(  c #97C194",
")  c #9AC196",
"_  c #9CC298",
"`  c #A0C49B",
"'  c #A5CA9C",
"]  c #ABCB9D",
"[  c #BEC39C",
"{  c #B7CDA0",
"}  c #AFD0A1",
"|  c #B2D2A3",
" . c #B9D0A4",
".. c #BCD8A7",
"X. c #BCD9A8",
"o. c #C1C69E",
"O. c #C3CBA4",
"+. c #C3DCAA",
"@. c #D4DBAA",
"#. c #CDE2AE",
"$. c #D4E6B1",
"%. c #D8E7B2",
"&. c #D6EAB4",
"*. c #DEECB6",
"=. c #E0EDB7",
"-. c #E5EFB8",
";. c #E4F1B8",
":. c #EBF5BB",
">. c #E7F8BC",
",. c #EBF8BD",
"<. c #F0F6BC",
"1. c #F2F9BE",
"2. c #F6FEC1",
"3. c #FCFFC5",
/* pixels */
"o O & 4 4 & 2 4 5 0 0 5 2 @ $ 3 5 2 # O + $ 4 2 4 q w 5 $ # # $ & 5 5 5 3 2 O .     . O 2 4 5 7 7 5 7 0 5 2 @ $ 4 5 2 2 O X     ",
"X @ 4 q q 0 0 0 w w w e q 5 8 0 q 0 3 @ O @ 5 7 0 w 0 5 3 3 4 4 5 0 0 7 8 7 3 $ O o . O 4 w w e e e w e e w 0 7 e e 0 0 3 @ X . ",
"X @ 5 w 0 e e e e e e e e e y e e w 0 3 @ O & 0 e q 5 5 5 7 5 0 w 0 0 q w 0 0 5 2 $ o @ 7 e y s s y e s y e e 0 e e e e 8 & O . ",
"O @ * 2 4 5 0 e e e w w w w e e e e w 0 $ O O 3 7 7 5 2 2 2 4 0 0 0 0 0 w 0 w 8 0 5 # 2 w e s y e e e e w 0 7 5 2 5 0 w 5 & O . ",
"o O O @ $ $ 2 7 0 0 8 7 0 w w e e w 8 $ @ X . X $ 2 2 $ $ $ & 3 3 7 0 5 5 w 0 0 5 4 3 5 w e i q 0 8 5 5 4 3 3 & & $ 2 5 5 @ X . ",
"O X X X o @ @ @ $ 5 3 3 4 8 3 0 e 7 2 @ O X . X X O $ @ O @ @ @ * 7 4 2 5 0 w q 0 2 8 0 0 3 & $ $ @ $ # $ $ @ + O X . o @ @ o X ",
"@ O O X O & 3 3 5 0 7 7 0 7 $ 8 e e 0 0 3 $ $ $ o O 2 2 2 5 5 5 w y 0 4 w e e y e 0 0 w 0 $ @ & 4 2 2 3 8 7 4 3 $ O @ $ 2 & $ @ ",
"$ $ O X @ 3 w e w w q q q 7 # 5 s s s f y q 8 5 # $ 0 w w s s e f f e 8 0 s s y s e w w 0 & O 2 w 0 7 q y y e e 5 4 0 e 0 0 5 5 ",
"3 @ X X O 2 5 q w w 0 w 0 5 $ 8 y y s s y e 7 5 $ 3 e e e s s s s s e 5 4 e e w e w w 0 7 3 @ 2 7 5 5 0 e s e y 0 5 e e w q 0 w ",
"$ $ O o @ @ & 7 e y e e e 8 3 q y y s s s w 0 q 4 $ * w s s s s f f e 7 5 e w 5 5 5 q 0 7 7 2 5 q 7 7 q w w s s 0 5 e e q 8 7 5 ",
"o X . . X X o @ 3 8 0 q 7 * 3 5 5 3 7 q 0 2 O O o X O 3 w w 0 0 e w 4 $ 2 3 $ O O o O O O O @ * & @ @ & & $ * 7 4 3 5 4 3 4 * @ ",
"X . X o o o $ 3 8 q w q 7 3 0 0 7 5 q e 7 $ @ @ @ @ $ 5 q e q 0 q q 5 3 0 4 & $ $ + o O O @ 2 5 2 @ $ & & & 2 7 7 5 5 5 7 7 2 O ",
"X @ $ $ $ 2 q s s s s e e w y e s s s s 0 2 0 5 7 0 0 e e e s e w e q e y 0 0 q y 7 $ & 7 7 0 e q 7 0 7 8 w e q e w w 0 w w 5 @ ",
"O 3 7 3 3 5 w y s s y e e e y e e s s e 0 5 e e w 0 0 w 0 e e e w w e e e w q w w e 5 5 q 7 q q q w q q w 0 0 0 q w 0 0 4 3 2 @ ",
"$ q e 0 5 7 w e s s e y y e y y s g g f e q e w w 0 0 2 2 5 e e e w w e w w 0 0 w w 5 7 q q 7 q w q q q w w 0 w 0 5 4 & + O O O ",
"$ 4 2 $ 2 @ @ 3 w w 0 5 5 7 7 0 w e e e 0 5 7 4 $ @ O o X @ $ 4 * $ @ & 4 2 $ $ $ @ @ & 7 5 5 5 3 & & * 2 3 5 4 $ @ @ O . . X O ",
"4 3 $ $ * @ $ 4 e w 0 7 7 7 2 3 5 5 0 7 5 5 4 & O X X O @ @ & 5 $ @ @ O & & $ @ $ @ # 2 8 3 5 7 5 2 3 2 3 5 7 5 $ @ @ O o O @ $ ",
"7 q q 8 7 w e e y y s s s e $ 2 0 0 0 0 q w 8 2 @ @ & 5 0 w e w 4 5 2 $ $ 4 5 0 0 5 0 w q 0 4 q s s y y e e e e 3 $ 2 2 4 5 7 7 ",
"5 8 7 7 e s s e e w y s i 0 @ & 0 7 7 0 0 0 0 5 * 3 w e e e q 0 0 5 2 @ @ 3 7 7 0 w q e 0 5 $ 5 e w e e e e q e $ @ 4 5 8 7 5 5 ",
"3 8 7 0 y s f s e y s s s 0 @ @ 2 5 8 q 0 0 7 0 5 0 s s e w 0 7 w 4 $ O @ 5 0 w w e e e 8 @ @ 5 y y e e e e 0 0 # + & 4 4 & $ 3 ",
"@ @ $ 4 w w e w 5 2 5 q e 8 O X o $ 3 4 & # $ 4 3 7 y e 0 8 5 $ # @ X . @ 3 3 * 2 0 0 5 $ . O 2 3 2 7 0 q 5 $ @ o X O O O O @ @ ",
"X O $ 5 0 w q 7 3 $ 2 0 w 5 @ O O @ 2 # X . o 2 3 8 0 0 8 7 3 @ o O o O $ 2 & @ $ 0 0 2 $ O @ & $ @ 4 7 5 2 @ O X o o o o @ @ o ",
"$ 7 y f g s y y y 0 s s s e e q 0 w 0 O . . O 2 7 0 0 q q 0 7 5 5 7 5 4 4 8 0 5 0 e 0 5 0 7 5 5 5 7 0 w 5 2 5 5 3 $ $ 2 2 & @ o ",
"2 e f f f s f s s s s s s s s f f f e 4 O X $ 7 0 0 0 e q 0 q w w 0 0 5 4 5 0 q w q 2 5 q 0 0 0 0 0 q w q 0 7 0 7 3 $ 3 5 3 & @ ",
"& q s s f f s s s s s f s f f g g s e 0 $ o @ & L / [ o./ / [ [ O.o.L 5 7 q w 0 0 3 @ & 0 5 7 7 8 w q 0 0 w 0 0 7 4 & 7 3 & @ @ ",
"$ 4 q e e w e e s s s i e s s f s e 7 4 @ . . o I &.>.2.;.>.3.3.3.3.@.J 5 3 5 7 5 * @ & 3 & 2 3 2 3 2 2 2 4 3 4 2 $ @ @ @ O o X ",
"$ 2 4 2 & 2 5 0 q e e 0 0 e e y s w 2 & o .   . C } +.;.#.*.2.2.2.2.3.@.i & * 3 8 2 3 5 & O @ @ # $ $ @ # $ $ $ @ o X X o o o O ",
"w e 8 $ O & 0 w 0 w w w e w 7 e f y 8 3 $ @ o . P X...%.,.<.<.2.2.2.2.2.@.x e y e s y e 2 . o @ & 4 3 $ & 2 @ @ o @ 2 2 7 5 7 e ",
"e e 0 5 7 8 e y y y e e y y e s f s f s w 2 # % ; k Q ] $.:.<.<.:.2.2.2.1.%.E s z c c s 0 $ $ & 3 5 5 5 5 7 5 2 O $ 0 0 q e y y ",
"e e 0 8 0 q y s y y e s s e 7 e f f g z s w 7 , + 9 Q Q | *.2.:.<.2.:.=.%.*.W g g g f f s e 3 3 5 5 8 q 0 q 0 7 & 3 q q e y y y ",
"e q 7 3 2 5 w w 0 0 0 0 0 3 $ 5 e e q y e 7 w 7 $ l ' U ] *.2.2.2.2.:.$.] ' S y s f f s y w @ 2 5 0 7 0 q 0 0 5 3 7 w w 0 0 w q ",
"2 4 3 & # @ 2 4 5 5 2 & @ @ O @ 2 2 $ 4 * @ $ @ $ K { N ] ;.<.:.-.-.<.=._ Y u 7 e f f e 5 @ . @ 8 0 4 5 0 0 5 3 2 3 0 q 2 & & 2 ",
". . O @ $ $ & & * 2 5 3 2 2 2 3 5 3 $ @ o . . X o 4 h m H ] *.&.+.+.#.#.^ B t 7 0 w 3 # O O $ 3 3 2 2 5 7 0 0 7 0 7 7 e 5 & @ . ",
"  . @ 2 2 5 0 8 7 0 0 7 4 8 0 7 q q 7 2 o . o O & 7 g Y V ) =.*.*.#.*.$._ U p w w 3 + O @ & w s e q e e e e e e e e w s w 7 $ X ",
". o @ 2 4 0 0 q w w w q 0 w 0 0 w y e 5 @ X & 2 7 e x  .F H ( ) +.@.$.#.` ^ Z 0 4 @ X O 2 5 w s f f s s s s s s s y y y e 0 & o ",
"X O @ # 2 2 4 0 0 7 8 0 0 q 0 0 0 w w 3 @ @ 7 0 0 0 l ] H M v M ^ ' ' ( ~ ..A & @ X   X $ & 3 e f s e q w s y y y y e w 0 5 $ X ",
". O @ @ $ 2 5 0 7 4 & 2 8 7 0 0 7 0 7 5 $ $ 0 e w 5 6 1 ^ T b M ! Q V n N ' j o o .   . X @ 8 y s y 0 0 w e e w q 5 4 2 2 5 2 . ",
". X . . X $ 5 0 7 5 $ @ O O $ 5 7 5 7 7 7 7 5 3 @ X o * d R U n N M n M F n < = & O O O o @ 7 w q 0 2 5 0 0 5 # @ @ $ O $ 2 $ O ",
"& @ @ @ @ 5 e y e y q 4 2 2 4 q e q q q e y w 7 @ o $ 7 e a B V b B a ; : - > : 4 5 0 5 4 5 0 w e e 0 0 0 q 8 2 O # 3 2 4 5 5 5 ",
"q 4 & 2 5 e f f s s f s s e 0 e s y e e y s s e $ @ 7 e d r t D Y G 9 X X $ 3 4 0 w s s e 0 0 i s s s q q e e 0 @ $ q w q e e e ",
"w 5 & 2 0 s f s s s s s s s 7 0 e e e y y i e e 2 @ 5 e s s e z O.J $ X @ $ 2 5 0 w y e 0 5 7 q y e e e e e e 7 @ & q e e e i w ",
"e 5 # @ 5 e s f f s e e e e 2 5 e s y e q e y e @ o $ q s s s f c q @ . o @ 2 5 w y w 5 2 2 $ 4 w w e e s y w 7 & & 2 5 q e y e ",
"4 2 O X @ 2 7 q e q 3 & 2 2 @ @ & 3 3 @ @ 2 0 5 @ o O & 7 w w e e 2 O o o X O O @ 2 @ @ O @ O @ & $ $ 2 0 q 2 @ & 2 $ $ & 2 3 3 ",
"& 4 3 $ $ 5 0 0 w 0 7 5 5 0 2 & 3 5 8 & @ & e 0 8 2 2 0 q e q e e 5 4 5 & # @ O O @ X o $ & & 2 4 5 5 5 w 0 7 4 7 w 7 4 7 7 2 + ",
"2 e s y q s y e s e e s s s s y e y y e 5 4 s f f d s g g f f f s e s s e w 5 3 & @ X @ 3 7 e e s f f s y e s s s s f s f s 5 @ ",
"3 0 y e e y y y s e e e s s s s s s y s 0 5 e y s s s g g g g f s s y i w e q 7 7 & O @ 3 2 0 e s s s s e w w y y e s s s y 7 & ",
"& q s s s s y e y y y e s s y s s s s f e 8 e y f f f g f g g f s s f s s f e 0 5 3 o O $ & 4 e s s s s s y e s s s s s f s q 2 ",
"O # 3 7 7 5 3 2 2 2 & 5 7 5 7 7 0 5 0 e 0 7 7 4 5 0 q y q e q 2 & 5 7 2 & $ $ $ 2 @ . X O o $ 5 8 2 5 0 0 q w q 0 0 0 w 0 4 $ @ ",
"@ @ 2 4 5 8 4 2 2 2 2 5 5 3 $ 5 w 7 0 w w w 0 5 2 4 0 e 0 q 7 $ $ 5 4 @ o @ @ 2 0 2 $ $ $ $ 2 0 0 2 3 8 7 5 q q 3 * 5 w 7 3 $ @ ",
"5 w w 0 e s e e y s s s e 8 $ 0 f f s s s f s s w 7 e y e e e 0 0 e w 4 2 0 e s s s e e s e w s f s e s e e y y 5 3 w y s e w w ",
"e e w 7 0 w e q w e s e q 0 5 e y s y i y y y s 0 0 w q q e q 0 w w 0 0 s y s y e f s s e e 0 e y i y s y y y s 0 7 e y s e e w ",
"w w q 5 2 4 0 e w w e e w 5 4 0 y y s s f f s y 5 3 0 w e e e e e e e e f f f s s f y e s y 8 w y e e s s e s s w 7 e y y e q q ",
"5 3 $ O o O $ & 2 & 2 & # @ @ @ & 2 0 w w 0 w e 5 $ @ $ 2 5 0 0 0 8 4 5 e e 7 5 q w 0 0 e w 5 7 0 0 7 w e q w w 2 2 0 q 5 4 3 2 ",
"& + X . . . X @ $ $ $ @ o O O @ @ & 4 5 & $ 5 7 5 $ o O $ 5 7 5 5 5 2 2 5 8 2 2 5 2 2 2 5 0 7 7 0 0 0 0 q w q 0 2 2 0 w 2 2 2 & ",
"@ O O @ $ $ & 3 0 0 0 7 5 2 5 0 e e 0 7 * @ 5 3 0 w 7 5 0 e e e w q w q 0 e q 0 q 2 $ $ 4 s f f f s s s s s s f s s f s y y y e ",
"7 0 0 5 3 3 5 7 5 5 4 5 0 q 0 e e 0 7 w & @ 4 7 7 0 0 0 q e e e w w w w w 0 q w 0 & @ 4 i s y s f f s f s s s s f f s f s s s e ",
"0 w w 0 5 3 0 w q q 0 w e e 0 w w w 0 & o @ 5 0 0 0 0 0 e y y e e e e w w q e e e 7 * 7 f s s s s s s s f s f f f f f s s f s e ",
"5 0 7 3 3 2 4 7 5 5 4 7 q 0 7 7 0 0 7 O . X & 2 3 4 2 & 3 0 e 0 8 5 4 4 8 8 0 0 q 5 $ $ 7 e s e e q 0 q q q q e e q w 0 0 0 0 0 ",
"5 5 2 @ + @ $ 2 & $ # & 4 8 5 0 0 0 4 @ X O # @ $ $ @ @ # 3 5 4 2 # @ @ @ & 3 5 3 & @ @ & w 7 5 5 5 $ $ 2 2 3 7 3 $ $ # $ $ & 2 ",
"q 5 @ . . o # 3 0 5 5 5 0 e 5 0 e y y 0 4 4 5 2 & & & & 2 7 0 5 3 2 @ X o # 0 y e 5 4 0 s y 2 3 0 q 0 3 2 2 7 w 2 @ @ @ $ 2 2 5 ",
"7 5 2 $ $ 4 0 w e e w w q e 0 e s e s y y e e e 8 7 0 4 7 0 w 0 7 7 & @ $ 7 e s y e w y f s 2 7 y e e q w 0 e q 5 4 5 5 7 5 5 0 ",
"q 5 3 2 4 q y y e e y e w 7 2 0 y e y s s s s s q q e 0 q w q 0 q 0 4 $ 4 w y e s e e s s s 5 w s y y y y y y e 7 4 0 0 q 0 0 q ",
"3 2 * $ 3 7 q e e e y w 3 @ O * w e e e y y y y w 0 w 0 5 5 5 5 7 0 3 * 2 w w 7 0 0 0 e e q 7 w y y e y e e 0 7 * & 5 5 5 4 3 5 ",
"@ $ $ $ 5 & & 3 w e w & X .   @ 5 q w w e w 0 w q w 0 5 $ # $ & 3 7 8 3 4 7 4 2 $ $ 2 0 5 & 2 7 e e e w 0 5 & O O @ 2 2 $ @ @ # "
};
