/* XPM */
static char *result[] = {
/* columns rows colors chars-per-pixel */
"64 64 147 2 ",
"   c #161616",
".  c #1C1C1C",
"X  c #1B1E20",
"o  c #252424",
"O  c #292421",
"+  c #282628",
"@  c #27292C",
"#  c #2C2C2C",
"$  c #292F38",
"%  c #343434",
"&  c #3D3836",
"*  c #33383D",
"=  c #3C3C3C",
"-  c #413E3E",
";  c #3F4242",
":  c #374450",
">  c #3D4A55",
",  c #14426D",
"<  c #214465",
"1  c #2B4B64",
"2  c #3A4D60",
"3  c #27536A",
"4  c #35516B",
"5  c #3B6074",
"6  c #38657D",
"7  c #444444",
"8  c #4A4745",
"9  c #4C4C4C",
"0  c #524E4C",
"q  c #53514F",
"w  c #4D5053",
"e  c #545454",
"r  c #5A5757",
"t  c #555958",
"y  c #5B5B5B",
"u  c #615C5B",
"i  c #42586F",
"p  c #5D6D6D",
"a  c #576C70",
"s  c #636363",
"d  c #696766",
"f  c #676968",
"g  c #696969",
"h  c #6C7676",
"j  c #6B7C7C",
"k  c gray44",
"l  c #15588F",
"z  c #1E5E90",
"x  c #30658F",
"c  c #137FBA",
"v  c #297DA9",
"b  c #247CB4",
"n  c #457D86",
"m  c #427088",
"M  c #48768F",
"N  c #4F7F8D",
"B  c #427293",
"V  c #677E82",
"C  c #1684BE",
"Z  c #578E92",
"A  c #578999",
"S  c #5A8F9E",
"D  c #5F9897",
"F  c #6A8C8B",
"G  c #7C8686",
"H  c #4C9EA9",
"J  c #4392B0",
"K  c #4997BC",
"L  c #54AAB9",
"P  c #1A87C1",
"I  c #1D8BC4",
"U  c #1E8DC8",
"Y  c #218EC7",
"T  c #2695CB",
"R  c #2596D2",
"E  c #2B9BD5",
"W  c #32A4CE",
"Q  c #3EAFD7",
"!  c #35A4DC",
"~  c #34A6E1",
"^  c #39ACE3",
"/  c #3CB0E9",
"(  c #479FC6",
")  c #57A4C1",
"_  c #46AFD4",
"`  c #40B6DB",
"'  c #45B7EE",
"]  c #46BBF6",
"[  c #4ABEF2",
"{  c #56C4DD",
"}  c #73CEDD",
"|  c #53CCE5",
" . c #58CCE5",
".. c #5EDAED",
"X. c #4AC0F1",
"o. c #4FCAF0",
"O. c #4CC2F8",
"+. c #54CBFB",
"@. c #59CEFE",
"#. c #59D7F3",
"$. c #5BD7FE",
"%. c #5ADAF9",
"&. c #77D7E3",
"*. c #60D6FE",
"=. c #73DDF7",
"-. c #5EE2FF",
";. c #6DE0F6",
":. c #62E4FC",
">. c #6AEAFF",
",. c #72EDFF",
"<. c #7DF4FF",
"1. c #8F8E8E",
"2. c #969797",
"3. c #87A6AB",
"4. c #9EC4C4",
"5. c #93C9C8",
"6. c #8AD7D7",
"7. c #AEC4C4",
"8. c #B0C5C5",
"9. c #81E5FB",
"0. c #84EEFF",
"q. c #81F6FF",
"w. c #8CF5FF",
"e. c #83FCFF",
"r. c #8BFEFF",
"t. c #93FBFF",
"y. c #9DFCFF",
"u. c #A4EAEA",
"i. c #ADF6FF",
"p. c #A4FCFF",
"a. c #AEFEFF",
"s. c #B7F4FF",
"d. c #B4FFFF",
"f. c #BCFFFF",
"g. c #C4C6C5",
"h. c #C0C8C8",
"j. c #C5DFDF",
"k. c #CFD8D8",
"l. c #CDE4E3",
"z. c #C6FFFF",
"x. c #CAFFFF",
"c. c #D3FFFF",
"v. c #DBFFFF",
"b. c #E3FFFF",
"n. c #EBFFFF",
"m. c #F2FFFF",
"M. c #FDFFFF",
/* pixels */
"+ % = 8 8 7 7 8 9 e t 9 7 % = 8 w 8 & # # = 8 8 9 e t 9 = * & * 7 8 9 9 8 7 % . .   . # 7 9 9 9 e w w e 9 7 * * 8 9 7 7 % . .   ",
"o % 8 e t e w e t t r r t 9 e e e w 7 * + % 8 e e t e 9 8 8 9 9 9 e 0 w e 9 7 & + + . + 8 t r y y r r y r t q q y y e e 7 % o . ",
"o % w t t r y y y y y y y r y y y y e 8 % # 7 e y e w 8 9 9 w e t e e t t e e w 7 = o % e y s s u p y d s y t e y y y y q ; + . ",
"+ % 7 7 8 9 t t y y y r r t y y y y t e = # # 7 w w 9 8 7 7 8 e e e e e t e e e w w & 7 t r s y y y r y r e 9 9 7 9 t r 9 - # . ",
"+ # # % = = 7 9 e t 0 w e t r y y t w - % o . + & 8 7 = = * = 7 9 w q w 9 t e q w 8 8 w y y y t 0 e 9 9 8 9 7 7 = - 7 w 8 * o . ",
"# + o o @ % % % = 9 8 8 9 w 8 e y e - % # o . o o # & % # % % & 7 9 9 ; 9 e r r e 7 9 e e 8 7 & & % * & = & % % # o . + % % + o ",
"% # @ o # ; 8 9 9 e 0 w w w = w y y t e 8 = & = # % 7 7 7 9 9 9 r u e 8 t y y u y e e t e - % 7 9 7 7 8 w w 8 9 = % % = ; ; = & ",
"= & # + % 8 t y r r t r r w & 9 u s s g y t 0 9 % * e t y s s y d f y w e s s s s y t y e = # 7 e e w t y s y y 9 7 e r q w 9 9 ",
"8 % + o # - 9 t t t r t e 0 = w s y s s s y w 9 - 7 y y y s s s s s y 9 9 y y r y r y e w 7 % 7 9 9 9 e y s y s w 0 y y t e t e ",
"= & # O % * - 9 y u y y y w 8 e y s s s u t w e 9 = ; y s s s d d d y w 9 y t 9 9 9 e e 0 w 7 9 t e w r r y y s w 0 y t t q 9 9 ",
"@ o X X o o + & 8 w e e w ; 8 9 9 8 0 t t 7 % % @ o # 8 t r e e y r 9 * 7 8 = # # + # # # # & 7 - % % - ; * - w 8 8 9 9 9 8 7 % ",
"X o o + + + * 9 w t r r w 8 e e 9 0 t r w = % # % % & 9 t r t t t t 9 8 w 9 - = * % + # # % - 9 7 % = = - 7 8 0 w 0 9 9 w 9 - % ",
"o % = = = 8 y s s d s y y y u y y s s u e 7 e w e e e r r y s y r y y y y t e r u e * 7 q 9 e r t w r 9 w r r t r r t e t t 9 * ",
"# 8 9 9 8 9 t y s s s y r y y y y s s p e w r y e e t t e r y y r r r y y e t r t r 9 9 t e t r t r r r r t e e t e e e 8 8 7 % ",
"= t y e 9 9 y y y s y y u u s y d g g g y t r r r e w 7 7 w r y y y r y y t e r r r 8 9 r t w t r t r t e r t t e 9 8 7 % # # # ",
"; 8 7 = - % * 8 t r e 9 9 w w t r r y y e 9 e 8 = % # + + $ - 9 ; * & = 8 7 = * = * % 7 e 8 9 9 8 = 7 - 7 8 9 9 = % % + . . o # ",
"7 8 - = ; % & 8 y t e w w w 7 8 w 9 e w 0 9 8 - # + o # % % 7 8 & % % % - = & & & % * 8 9 9 9 9 9 7 7 8 8 9 w w & % % # @ # % = ",
"w t e q q t y y s y s s s u & 7 w t e e e r e 7 % % - w e t r r 9 9 7 * = 8 w w e 9 e y e w 9 y s s p y y y y y 8 = 7 ; 8 9 w w ",
"9 q w w y s s y y y y s u e # - e 0 9 e e e e 9 - 8 t y r y t e e 9 7 % % 8 w q e r r r r 9 = 9 y r r y y y e y * % 8 9 e w 9 9 ",
"8 w w q y f f s y u s s d t % * 7 9 e t e e w e 9 e s s y r e w t 8 * # % 9 t t y y y r w % % 9 u y y y y y e e & % 7 8 8 - = 7 ",
"% % = 8 t r y t 9 7 w t y 9 # o # & 8 8 = & * 9 8 w u y e w 9 & * % o o % 8 8 ; 7 e e 9 = o # ; 9 7 w e e 0 = % + o # # # # % % ",
"o # = w t t e w 8 & 7 e r 9 * # # * 7 % o . o 7 8 9 t e 0 w 8 % + # + + = 7 - % * e e 7 & # % = = % 8 w 9 7 % # + + + @ + % % @ ",
"= w u f f s s u u e p s s r y t e r t # . o % 7 w e e r t e w 0 9 9 8 8 9 9 0 w e u e 9 w q 9 9 9 w e t w 8 8 9 8 = & ; 7 ; % + ",
"7 y f s f d d s u s s s d s s d f d y 7 + o = 9 e e t y e e t e r t e w 7 e e e t t 7 9 y e q e e e r r t q w e e 7 ; 8 9 7 = & ",
"- t d d g f d d s d f f f d f g g s t e & @ % 7 D 5.g.g.4.4.8.7.8.h.1.9 9 t r t e 8 % ; w 0 w q e t r t t t e e 9 9 ; 9 8 ; & # ",
"& 9 e t r t r y y s s y y s s f s y 9 9 % . . + L r.x.v.y.f.n.m.m.M.k.G 9 8 9 w w = % ; 8 = 7 7 7 8 7 7 7 8 9 8 7 = % % % # @ o ",
"* 7 8 7 - 7 9 e e y y t e y y u s r 8 = # .   . J -.,.y.w.i.b.M.M.m.m.j.p 7 - 9 9 7 8 9 - # % % % & * % * & & * % @ o o + + @ % ",
"y t w - # - e t e t y t r r w u f y w 9 = % + X H >.>.e.x.x.z.m.M.b.n.b.u.j y y y s s y 7 X @ % ; 9 7 - - 7 & % o % 7 7 q 9 9 t ",
"u y e w 9 w y s u s y y u s r s f s d s t 7 * , 1 x X.*.w.f.x.f.f.c.b.v.d.l.2.s g h k d r * * ; 7 9 9 9 9 0 9 7 % & e t t y y s ",
"y y e w e r y s s y y s s y w y f g f k s t w 4 % 6 ] [ :.y.x.z.x.v.x.y.w.p.3.d g g f f s y 8 8 9 w e e t e e 9 ; 7 r r y s s y ",
"r t w 8 7 9 t r e e e t w 8 * 9 y y r y r w e 9 = Z %.! ..y.z.c.c.c.f.w.$.$.S u d f d s s t & - 9 e 9 t t t w w 7 9 t t e q t t ",
"7 8 8 - & * - 9 9 9 7 = & $ # & 7 7 - 9 7 & & * - F &.Y ..a.x.p.p.p.f.s.@./ m 0 y d d y 9 % . % 9 e 8 9 e e 9 8 7 8 q t 7 - - 7 ",
". . + * & = - - - 7 9 8 7 7 7 8 9 8 = % + . . . + 9 N C ^ ;.r.e.,.>.<.q.+.R 6 0 e t 8 % # # = 8 8 7 7 w w w e 0 e w e y 8 - % X ",
"  . % ; 7 w e w e e t 0 9 0 e w e r e 7 + . + % - 0 a Q R  .e.e.t.q.r.t.+.~ M u e 9 % # * 7 t s y t y y y y y y y y t s y w & o ",
". + % 7 8 e e r t t r e e t e e t y y 9 % o - 7 0 r V =.T W |  .9.q.q.0.@.o.A q 8 % o # 7 8 t s d d s y s s s s s s y s y t - + ",
"+ # % & 7 7 9 q e w w e e t e w e y t 8 % % w t e e h } Q I c I O.$.#.o.[ >.Z - & .   + % 7 8 y d g y r y s u s u u y t e 9 * o ",
"X # % % * 7 9 e 0 8 - 7 w 0 e e e e e 8 = = e y r 9 > z { ` C Y [ ' E P Y #.n + + .   . o # e u p y e e y y y r t 0 9 7 7 9 7 X ",
". o . . + = 9 w w 0 - # # # - 9 w 9 e w 0 9 9 7 % + + : a ) ^ P Y Y P U ! b l < * % # # # & 9 e e w 7 9 e e 9 % # % * # & 7 = # ",
"= & % % % 9 t s y y t 9 7 7 8 r y r t e r u r e % + & e u B R E C R v 3 3 1 1 2 9 9 w 9 8 9 q y u y e e e e e 7 % & 9 ; 8 9 9 9 ",
"e 8 - 7 9 y f f s d d s s y e y d u y y p s s y = % 9 y s i x K _ ( 5 O O - 8 9 e r s s y t e p s s s r t y y e & * r t r y y y ",
"t w 7 7 e p s d s s s s s s w e y y y y s y s y - & 9 y d s y h 6.F & o % = 7 9 e y y y e 9 w t u y y y y y u w % = y t y y y y ",
"y 9 & % 9 y s s g d y y y y 7 9 r p y y y y s y * + % t s s s f h r % . + & ; 9 t u t 9 7 7 = 8 y r y y s y r q 7 = 8 9 t y s y ",
"8 ; # X % 8 0 t t e 8 7 7 7 % % - 8 8 % % 7 e 9 % + # - w t r y r 7 # + + o # # % 7 * # # % # * - = * 8 e e 7 % = 7 & & 7 7 8 9 ",
"; 8 9 = & 9 e e t e 9 9 w w 7 - 7 9 9 - % - r t w 7 7 w r r r y y 9 9 9 - * % # # % + # & ; - 7 8 w 8 w r t w 7 e t w 8 9 9 7 $ ",
"8 r d u t s y y s y y s s f d y y s s y 9 9 s f g d s g g d d g s y s f r r 9 8 - % o % 8 e t y p g g s y y s s s s s s f s 9 # ",
"7 t y y r s y s g y y y y f s y s s y y e 9 y y s s s k g g g g s s s y t y t 0 9 - # % 7 7 e y u u s s y y t s u y s f d y e 7 ",
"; e s s s s y y y y u y s s s s s s d d r w y s s d g g f f g g s s d s d d y t 9 7 @ + = ; 8 y s s s d s s y s d d s s d s t 7 ",
"# * 8 w w w 7 8 7 7 7 8 w w 9 e e 9 e r t w w 8 9 e y y t y t 7 - w w 7 - * = = 7 & X o # # & 9 w 8 7 e e e r t e w w t t 8 & % ",
"% * 7 8 9 e 8 7 7 7 7 9 9 8 = 9 t w e r r y e 9 7 9 w r e t e & * 9 9 % # % & 7 e 7 * & - * - e e 7 8 w w w r e 7 7 9 t w 8 = & ",
"9 r r e r s y y y s s s t w = e g d s s s s s s e e y u r y y t t y t 9 7 w y s s f y y s s r s d s y s y e u s 9 9 y y s y t e ",
"r y t w e r t t y y u y r w 9 y s s u p y y s s e w y t r y t t r r e e y s s y y d d s r y e y s s y s s y s s w w y u s y y t ",
"r r r 9 7 9 t r t t y s y 9 9 e y s u d g g s s w 9 e r y r r y y y r r g g d s s f s y y s w r y y y d s y s s r e y u u y y e ",
"w 8 = # + # & 7 7 7 7 - & * % % - 7 e r e t t r 8 * % & 7 w e e t w 9 9 r r e w t r e e y y 8 0 t e e t y r y t 7 7 e e 9 9 7 7 ",
"= % o . X . o % & = * % @ # # # % = 8 9 - - 8 w 0 - + # * 9 e 9 9 8 7 - 9 w 7 7 9 7 7 7 9 e w w e e e e r t e e 7 7 e y 7 7 7 ; ",
"% # # % = = ; 7 e e e w 9 8 9 e y y e e ; * 9 9 e r e 9 e y r y r t r r t y t e w 8 & * 8 s d d f f s s s s s g s s g s s y s y ",
"9 e t 9 7 8 9 e 9 9 8 9 e e e y y t 9 e - % 8 9 9 e e e r y y y y r t r r e t r e ; & 8 p f y s d s s s s s s s g g s s s s s y ",
"e r r t w 8 e r t r t r y r e t y y e - @ % 9 e w e e e y y s y y y y t t t r y y e = w g s s s s s s g f s d g g s f s s g s y ",
"0 e w 8 7 7 9 w w 8 9 9 t e 0 w e e 9 #   o - 7 8 8 7 7 9 e r e e 9 9 8 w 0 e e e 9 & - e y s y r r w r r t t u y y r w e e e e ",
"9 9 7 # % % = - - & * 7 9 e 0 w t e 9 % + + * % = = % % * 7 w 8 - * % % & 7 8 9 7 7 % % ; t 0 9 w 9 - * - 7 7 w 7 = = = = = - 7 ",
"e 9 % . . + * 8 e 9 9 9 w r 0 e y y y e 9 9 9 8 ; - - = 8 w e 8 8 7 % o o * e y t 9 9 e s y 7 8 e t w 8 7 8 w t 7 % % % = ; 7 9 ",
"e w 7 = * 9 q t y y r t t r t r s y s s y y y y w 0 e 8 0 t t e w w 7 % = w y u u y r s d s 7 w u y r t e t y r 9 8 9 w w 9 w q ",
"e 9 7 7 9 t u s y y u y t 0 7 e u y y s s s d s t t r t r r e r t e 8 = 8 y p y s u y s s s 9 r s s y u s u u y 0 9 w w r e e r ",
"9 7 - - 7 e e y y y y t 7 & # 7 r y y y s y y u r t r t w 9 9 9 0 e 8 - 8 e e w t w e y r t w r u y p u y y e 9 - ; 9 9 9 9 8 9 ",
"& = & * 9 - ; 9 t y t - + .   % w e t y t y t r e e e 9 * & = = 8 w w 7 8 0 9 7 * & 8 w 9 7 7 e y y y r e 9 - # # * 7 7 - % % % "
};
