/* XPM */
static char *result[] = {
/* columns rows colors chars-per-pixel */
"64 64 132 2 ",
"   c #161616",
".  c #1C1C1C",
"X  c #1C1D21",
"o  c #242424",
"O  c #26292B",
"+  c #2C2C2C",
"@  c #27323A",
"#  c #343434",
"$  c #393A36",
"%  c #34383E",
"&  c #3C3C3C",
"*  c #3E403E",
"=  c #1E3E70",
"-  c #3A4351",
";  c #284168",
":  c #334464",
">  c #3B4263",
",  c #3E4C61",
"<  c #31496A",
"1  c #3B4E6D",
"2  c #444444",
"3  c #494745",
"4  c #4C4749",
"5  c #4C4C4C",
"6  c #51514E",
"7  c #404856",
"8  c #4D5053",
"9  c #545454",
"0  c #575957",
"q  c #585957",
"w  c #585658",
"e  c #5B5B5B",
"r  c #424168",
"t  c #4F4A6D",
"y  c #5E5F60",
"u  c #445872",
"i  c #4A5679",
"p  c #6D5A6C",
"a  c #636363",
"s  c #676966",
"d  c #686768",
"f  c #696969",
"g  c #666576",
"h  c #6E6474",
"j  c #65637C",
"k  c #746D75",
"l  c #7B6B7E",
"z  c gray44",
"x  c #284D93",
"c  c #315294",
"v  c #3E5EB0",
"b  c #41588D",
"n  c #505A9D",
"m  c #675A8B",
"M  c #725E85",
"N  c #57618F",
"B  c #5E6288",
"V  c #766C92",
"C  c #7D7096",
"Z  c #415FB3",
"A  c #4661B5",
"S  c #4962B3",
"D  c #4E65BA",
"F  c #5366BB",
"G  c #5668BA",
"H  c #7863A1",
"J  c #736EAF",
"K  c #7872BA",
"L  c #5967C2",
"P  c #5668C3",
"I  c #5D6AC3",
"U  c #626BC4",
"Y  c #686ECA",
"T  c #6D72C5",
"R  c #6F70CE",
"E  c #7272CD",
"W  c #7C78CE",
"Q  c #7B75D3",
"!  c #856F87",
"~  c #806A8D",
"^  c #8B6D8C",
"/  c #8E788E",
"(  c #8B7194",
")  c #866AA1",
"_  c #9272AF",
"`  c #8877B3",
"'  c #837BCE",
"]  c #8679D8",
"[  c #8D7CDD",
"{  c #927FDC",
"}  c #988297",
"|  c #9E86A8",
" . c #9D86D5",
".. c #9680DF",
"X. c #9D87DC",
"o. c #BE91C6",
"O. c #A288DE",
"+. c #B68DDB",
"@. c #A185E4",
"#. c #AC8EE5",
"$. c #AE8BE9",
"%. c #B18DE9",
"&. c #B390E7",
"*. c #BC93EB",
"=. c #B892F2",
"-. c #C48FC3",
";. c #C593C4",
":. c #C69AC5",
">. c #C899C8",
",. c #CD96D4",
"<. c #DCA2DC",
"1. c #C292E7",
"2. c #C497EF",
"3. c #C498F1",
"4. c #CD9AF1",
"5. c #D59CF3",
"6. c #D99EF5",
"7. c #DDA2F6",
"8. c #E5A7E3",
"9. c #EAA0E9",
"0. c #E3A2F7",
"q. c #E5A4F9",
"w. c #EBA6FA",
"e. c #E6A9FB",
"r. c #EAA9FA",
"t. c #F6A7FB",
"y. c #F4ACFE",
"u. c #FDADFD",
"i. c #F3B2FE",
"p. c #FEB3FF",
"a. c #FFBAFF",
"s. c #FFC0FF",
/* pixels */
"O + * 4 5 - * 4 5 9 9 5 2 $ & 2 4 3 $ + + & 4 2 5 9 e 5 & $ % % 2 5 5 3 3 2 # .     . + 2 4 5 5 6 5 9 9 5 2 $ & 4 3 3 - + . .   ",
"o # 3 w 9 9 6 9 q q q e 9 5 6 w q 9 2 $ O # 4 6 9 w 8 5 3 4 3 4 5 9 8 6 9 8 2 $ + O . + 3 q e e e e 0 e e w 8 5 e e 9 9 3 # o . ",
"o $ 5 0 9 e e e e e e e e e e e e e 9 4 # + 2 9 e w 8 3 5 5 8 9 w 9 9 w 0 9 9 5 2 & o # 9 e y a a a e a a e e 9 e y 0 e 6 * + . ",
"O # 2 2 3 5 w w e e e q w w e e e q q 9 * + + 2 5 9 5 2 2 2 5 6 9 9 9 9 w w 9 9 8 5 & 2 0 e a e e e e e w 8 8 3 3 5 9 w 5 * + . ",
"O + + # & & 2 5 9 9 8 6 9 w w e e q 9 * + o . o & 2 2 & & & & 2 3 5 9 8 5 0 w 8 5 3 3 5 e e y 9 5 9 5 5 3 3 2 2 & & 2 5 4 $ o   ",
"O o o o + # # $ & 5 3 3 5 8 3 9 q 6 * # + o . o o # & # + # # $ 2 8 3 2 3 9 e 0 9 2 8 w 9 3 2 & $ $ % & & & $ # + o o o # # + o ",
"# # o o + 2 2 4 5 9 6 8 9 8 & 5 e e 9 9 3 - & & O + 2 2 2 5 5 5 e y 9 3 w e e e e w 9 w 9 & # 2 3 2 2 3 8 5 3 3 & + # & & 2 & & ",
"& $ + o # 3 w e e 0 9 w w 6 & 5 y a a f y 9 9 5 $ $ 9 w w a a e d d e 6 9 a a a e e e e 9 & + 3 9 9 8 w y a y e 5 3 9 e w 8 5 3 ",
"3 $ o o + * 5 w w w 0 w 9 5 & 6 y e a a a e 8 5 * 3 e e y a a a a a e 8 3 e y q e e 0 9 6 3 # * 6 5 5 9 e a e a 8 5 e e w w 9 w ",
"$ $ + + # $ * 5 0 y e e e 6 3 9 a y a a y 0 9 w 3 $ - 0 y a a s s a e 6 5 e 0 5 5 4 w 9 6 6 2 5 9 9 6 w q q y y 9 6 e e w 8 6 5 ",
"O o X . o X O $ 3 9 9 9 6 - 3 8 5 3 6 q w 3 + + O o + 3 0 0 9 9 e w 3 * 2 3 & + + o + + o + $ 2 & # # * * * - 6 3 3 5 5 3 3 * # ",
"X o o o O + & 3 8 q w w 6 3 9 8 6 5 w e 5 & $ + # # & 5 w e 0 9 w 9 8 3 6 3 - & & # O O # + - 5 2 $ $ * * * 3 5 8 5 5 5 8 6 2 + ",
"o # & & & 2 w a a a y e q q y y y a a y 6 2 9 5 6 9 9 e e y p e 0 e e e y 9 9 0 e 9 & 2 5 6 w 0 w 9 9 5 8 w e w e w q 9 0 0 5 $ ",
"+ 4 5 4 4 5 w y a a a e e e y q e a a y 9 8 e e q 9 9 q 9 w 0 0 0 w w e e 9 w w q q 3 5 w 9 w 0 9 w e w 0 w 9 9 q 9 9 9 5 3 - # ",
"& w e 9 5 5 q e a a y y y e y y a f f f y w e w q 9 6 2 2 6 e e e w 0 e 0 w 9 w q q 3 5 w w 5 w w q w 9 9 0 9 w 9 4 3 * # + O + ",
"* 4 2 & * # $ 3 q q 9 5 4 6 6 9 w e e e 9 4 6 4 & # + O O + * 3 2 & $ & 3 3 & % & & # 2 8 5 5 5 4 & 2 2 2 3 5 4 & $ # + . . o + ",
"2 4 & & 2 # $ 3 e w 9 8 5 9 2 3 5 5 8 9 5 5 5 & + o o + # $ & 5 & # # # * * & $ & # $ 2 8 3 4 8 5 * 2 2 3 5 6 5 & # # O O + $ & ",
"5 w 9 9 9 w 0 y a e a a a e & 2 9 w w 9 w 9 9 2 $ # & 5 9 w e e 4 4 2 & * 3 5 8 9 5 9 0 w 9 3 w a p y y y e e e 3 & 2 2 4 5 5 6 ",
"8 9 5 5 e a a y e e e a y 9 # * 9 9 5 9 9 9 9 5 * 3 0 e e 0 w 9 8 5 * # # 2 8 9 9 w 0 e w 5 & 5 e q e e e e w e & $ 3 4 9 5 5 5 ",
"3 8 6 9 y a d a e y a a a q # # 2 3 9 9 9 9 6 9 5 9 a y e 0 9 8 9 5 & + # 5 9 9 0 e e 0 6 # # 5 y e e y e q 9 9 $ + - 3 3 2 & 2 ",
"# # & 4 w 0 e w 5 3 8 0 e 5 + o O $ 3 2 & $ & 3 3 8 y e 9 9 3 & % # o X $ 3 3 2 2 6 9 8 & . + 2 3 2 8 w 9 5 & # O o O # + + # $ ",
"O + & 5 9 w 9 8 3 $ 2 8 w 5 $ + + $ 2 $ o X O 2 3 5 w w 8 8 3 $ + + o + & 2 * # & 9 8 3 & + $ & $ $ 3 8 5 2 # O o o o O O # # o ",
"& 6 a a f a a a e w a d y e e 0 w w w + . . + 2 5 9 9 w 9 9 6 5 5 5 5 4 3 5 9 5 9 y 9 5 9 5 5 5 5 6 9 0 5 2 3 5 4 * & 2 2 2 $ O ",
"2 e s a f a a a a a a a a a a a d d e 2 + o & 9 w 9 9 e w 9 9 w e 9 9 6 3 8 9 9 w w 2 5 q w 9 9 9 9 0 0 e 9 8 w 6 3 * 2 4 2 & # ",
"2 w a d s d a a s a a f s s s f f a 0 9 & o # * ( o.:.>.;.-.;.;.;.>./ 5 6 0 0 w 9 2 $ - 6 5 5 6 9 w q 9 9 w 9 8 8 3 2 4 2 2 $ + ",
"$ 3 w 0 e 0 e e y a a a q p a s a e 8 5 # . . + _ q.i.p.y.y.a.a.a.s.<.! 5 3 5 5 6 * # & 3 & 2 2 2 4 2 2 2 5 3 3 2 & # $ # + O o ",
"& 2 3 2 * * 5 6 w e e w 9 e e a a e 2 & O .   . H =.4.t.7.q.p.a.a.a.a.<.p * - 5 7 3 3 3 * + # # $ $ $ # $ & & & # + o o O + O + ",
"e 0 8 * # * 8 9 9 w 0 0 q e 5 e d e 9 3 & # O X ) 3.3.7.i.u.p.a.a.p.a.p.9.l e e y a a e 2 . + $ * 3 3 $ - 2 $ # O + 2 2 5 5 5 e ",
"e e 9 5 6 6 e p y y e e y y q a a a d a w 2 % = > m [ %.7.i.p.u.u.p.p.p.u.8.} a z z z s 9 & & 2 3 5 5 5 5 5 5 2 # $ 9 9 w e y y ",
"e e 9 5 9 q y a y e e y a y 8 e f f f z a w 8 1 @ t [ [ 1.w.u.u.p.p.p.r.0.e.| s f f d d a e 4 2 5 5 8 9 w 9 w 5 2 3 w e y y y y ",
"w 0 8 3 2 5 w e q 0 w w 6 3 & 3 e e 0 y e 8 9 3 $ M $.T &.r.u.u.p.p.y.0.%.$.C y d d a d a 9 & & 5 9 8 9 w w 9 5 2 5 9 w 9 6 w w ",
"2 3 3 - $ # 2 3 3 5 2 & $ # O & 2 2 * 3 2 $ $ & & ^ 1.G &.r.p.u.t.t.u.r.@.E j 6 e d d e 3 # . # 8 9 4 5 9 9 5 2 2 4 9 9 3 * * 3 ",
". . + % $ * * * 2 2 5 3 2 2 3 3 3 3 $ # o . X X O 3 g S E *.e.0.5.2.6.6.@.I i 6 w 0 3 $ O # % 3 3 - 2 5 6 6 9 5 9 8 6 e 5 * $ . ",
"  X + * 2 6 8 9 8 9 9 6 3 5 9 9 0 q 6 2 + . O + * 6 g W L O.r.q.w.6.q.0.@.R B w w 2 + + $ * e y e w e e e e y e y e q a q 6 & o ",
". + $ 2 4 8 9 w 0 e 0 9 w w 9 9 e e e 5 # o * 3 9 q l 1.U T X.O.5.6.0.6.@.@.V 6 4 # o + 2 4 9 a f d a y y a a a a y y y e w & o ",
"o + # $ 2 2 5 8 9 8 8 9 9 w 9 6 9 e 0 5 # # 8 9 9 9 h +.W D v D { %.#.X...4.~ & # o   O $ 2 4 e a s e q 0 y p y y y e 9 9 5 & o ",
". + # # & 2 5 9 6 3 2 2 5 6 6 9 9 w 9 3 & * 8 e w 5 7 c  .' S D { ] U S G #.j O o       o + 9 y a y 9 9 e e e e 9 8 3 2 2 5 2 X ",
"X o . . o $ 5 6 5 5 * + + + * 5 5 5 8 8 6 5 5 3 # o O - g ` Q A G F A F Y S x ; & # # + + $ 5 9 q 9 2 6 9 9 3 $ # $ $ + & 2 & + ",
"& $ # # $ 5 e e e y w 5 2 - 3 w e q w 9 0 y w 6 # o $ 6 e N L I Z P n > r : < , 3 8 8 8 4 5 9 e e e 9 6 9 9 9 2 + $ 2 2 3 5 5 5 ",
"9 4 * 2 5 e f f a d a a a y 9 e a y e e p a a e & $ 6 y a u b J ' K t o o & 3 4 6 e a a e 9 0 y a a a w w e e 9 $ & e q q e e e ",
"w 5 2 2 9 p s a a a a a a a 8 9 e e e y p y y e 2 $ 3 y a a e k ,.! & o + 2 2 5 9 w e e 9 5 6 e y y e e e y e 5 # & w w y e e e ",
"e 5 $ # 5 e a s f a y e e 0 2 5 e a e e 9 e y e $ O $ 9 a a a d k w #   o $ 2 4 w y w 5 2 2 & 3 0 0 0 e p e e 6 * * 2 5 w y p y ",
"4 2 O X + 3 6 9 e w 3 2 2 2 + # * 3 3 $ # 3 0 5 $ o + * 8 w w w q 2 # o o O O + $ 2 & + + # O $ * & $ 3 6 9 2 # * 2 & & - 3 2 3 ",
"2 4 3 & & 5 9 9 0 9 5 3 5 9 3 2 3 5 8 & # * q 9 5 2 2 8 w e e e e 8 5 3 2 & # + + # o O & & * 2 3 8 5 6 0 9 6 3 8 w 5 4 5 5 * # ",
"2 e a a 0 a y e a e e a a a a e e e y e 5 3 s s f a a z f d s d a y a a e q 5 3 2 # o # 3 9 0 y y d d a y e y a a a a a s a 5 + ",
"2 w e e e a y y a e e y a a a a a a a a 9 5 e e a a d f f f f f y a a y q e w 6 5 & + # 2 2 5 p a a a a y q q a a e a s a y 6 2 ",
"- 9 a a a a y e e y e y a a a a a a a a e 9 0 y a d f f a f f f a a a a a d e 9 3 2 O O & * 3 e a a a a a y y y a a a a s a 0 2 ",
"+ $ 3 5 8 6 2 2 2 2 2 3 9 5 5 9 9 5 w 0 9 8 6 5 5 9 e e e e w 2 * 6 9 2 * & & & 2 & X o + + $ 5 8 2 5 9 9 9 0 w w 9 6 q 9 5 $ # ",
"# $ * 4 5 8 4 2 2 2 2 3 8 2 & 5 w 5 w 0 e w 9 3 2 3 9 0 9 w 6 & & 5 3 # + + $ 2 9 2 & & & & 2 9 9 2 3 9 9 5 w w 2 2 4 0 9 2 & & ",
"5 q q 9 e a e e e a a a e 6 & w f f a a a a a a w 9 e y e e e 9 9 e 0 5 2 9 w a a a e e a e w a s a e y e 0 e a 5 3 q y a e w w ",
"e e q 6 9 0 e w 0 e y e 0 9 5 e a a a a y e a a w 8 0 w e 0 w 9 0 0 9 9 a p a a e d a a e e 9 e a a y a a e y a 9 8 e y y e 0 0 ",
"w e w 4 2 3 w w e w e y 0 5 3 9 e y a a f s a a 5 3 9 e e q e e y e 0 0 s s a a a s y e a y 6 e e e e a a e a a 0 9 e e y e w w ",
"5 3 $ + O + $ 2 3 * * - & $ # # * 3 9 w w 0 w e 5 & # & 2 5 w 9 9 8 3 3 w e 8 6 w q 9 9 0 e 3 5 w 9 9 w 0 0 0 0 2 2 9 w 5 5 3 2 ",
"- + o . . . o # & $ & # O + O + # & 3 4 * & 3 8 5 & O O & 4 6 5 5 5 2 2 5 8 2 2 5 2 2 2 8 0 8 8 w w 9 w w e w w 2 2 9 w 2 2 2 * ",
"# + + $ * & * 3 6 9 9 5 3 4 5 9 e e 6 9 - $ 3 5 w 0 9 5 9 e e e e 0 0 0 9 y w 9 9 2 & $ 3 s d d a s a a a a a a a a s d y y y e ",
"6 6 9 5 3 2 4 9 6 6 4 8 9 9 q e y 9 6 6 * # 3 6 6 8 9 9 q e e e w w w e e 9 w w 9 * $ 3 a a y a s a a a a a a a d s a s a a a e ",
"9 w w 9 8 4 8 w 9 9 9 w y e 9 w 0 0 9 & + + 3 6 6 9 q 6 e y y e e e e q q w e e y 6 * 8 s a a a a a a s f a a f s s d a a d a e ",
"5 9 8 3 2 2 3 8 5 5 4 6 9 9 6 8 9 w 6 +   O - 2 4 4 * * 5 9 e 9 8 5 4 5 6 6 9 9 9 5 & * 9 e a e 0 w 9 w 0 w 0 a e w w 8 9 9 9 9 ",
"5 5 * # # $ * 2 2 & $ * 4 8 8 5 w 9 3 # o O & $ * & # # $ 2 5 3 - $ # # $ & 2 5 3 * # + * w 6 5 5 5 & & 2 2 2 5 3 & & $ $ & * 2 ",
"w 5 # o   o $ 3 6 5 4 8 9 e 6 9 e e y w 5 5 4 3 2 & * - 2 5 9 5 3 2 # . o $ 9 a 0 8 5 6 a e 2 3 9 w 9 2 2 2 9 9 2 $ # # & 2 2 5 ",
"8 6 2 & & 3 9 0 e e q w w e w e a e a e y e e e 6 5 9 3 5 w 0 9 9 6 * # * 8 e p e e e p d y 2 6 y e e w 9 w e e 8 3 5 8 6 8 5 9 ",
"9 5 3 2 3 q a y e e y e w 5 2 9 e e a a a a a a w w e w 0 w w 9 9 9 3 $ 2 e e e a e e a a a 5 q a a e e a e e e 8 3 8 8 w 9 9 w ",
"5 2 * * 5 8 w e e e e w 2 & O * e e e e a e e y w 0 0 w 5 5 5 5 6 9 3 - 3 q 0 6 9 9 9 0 e w 6 q y e y y e e q 5 & 2 4 4 5 3 3 5 ",
"$ & $ & 3 * * 3 w e q 2 o .   # 5 w 0 0 q e w 0 9 9 9 5 & & & & 2 9 6 3 3 6 3 - & & 2 9 5 2 2 9 e e e e 9 4 2 + O $ 2 2 2 # # $ "
};
