/* XPM */
static char *result[] = {
/* columns rows colors chars-per-pixel */
"64 64 122 2 ",
"   c #161616",
".  c #1C1C1C",
"X  c #201D1D",
"o  c #242424",
"O  c #282527",
"+  c #2C2C2C",
"@  c #34292F",
"#  c #343434",
"$  c #3C3637",
"%  c #363839",
"&  c #3C3C3C",
"*  c #5F2F37",
"=  c #5B353C",
"-  c #4C3F41",
";  c #5E3E43",
":  c #444444",
">  c #464848",
",  c #4C4C4C",
"<  c #5B4842",
"1  c #5A4549",
"2  c #524F4F",
"3  c #4D4F50",
"4  c #545454",
"5  c #585957",
"6  c #575758",
"7  c #575A5B",
"8  c #5B5B5B",
"9  c #694D44",
"0  c #7D4247",
"q  c #735547",
"w  c #674D54",
"e  c #605E5E",
"r  c #795E54",
"t  c #796450",
"y  c #636363",
"u  c #6E6D64",
"i  c #666668",
"p  c #696969",
"a  c #74736D",
"s  c #797168",
"d  c #747471",
"f  c #7C7C72",
"g  c #81484D",
"h  c #875656",
"j  c #B16A5D",
"k  c #8C6D64",
"l  c #907166",
"z  c #A76B61",
"x  c #B76F60",
"c  c #A87360",
"v  c #B67463",
"b  c #B97664",
"n  c #BE7E68",
"m  c #C27C68",
"M  c #858267",
"N  c #8D856B",
"B  c #988366",
"V  c #86867B",
"C  c #8B8C7C",
"Z  c #9B8B75",
"A  c #929577",
"S  c #9F957B",
"D  c #97987F",
"F  c #B09E74",
"G  c #A9A67C",
"H  c #C3836C",
"J  c #D0876E",
"K  c #C68B73",
"L  c #CE8D71",
"P  c #D58E72",
"I  c #C4947B",
"U  c #C8997E",
"Y  c #D49174",
"T  c #DD9778",
"R  c #E3A27E",
"E  c #8E8E83",
"W  c #97978D",
"Q  c #B9AF87",
"!  c #ABAC94",
"~  c #D1A586",
"^  c #D1A488",
"/  c #D7B38B",
"(  c #EDAE84",
")  c #E2B185",
"_  c #F3BB8C",
"`  c #D9C99A",
"'  c #FAC38F",
"]  c #EFCA94",
"[  c #E4C79D",
"{  c #F2CA94",
"}  c #EED89C",
"|  c #F7D197",
" . c #FBD59D",
".. c #FCDA9E",
"X. c #C4C4AC",
"o. c #C8C8A9",
"O. c #D8C7A7",
"+. c #C8C8B0",
"@. c #D7D7B3",
"#. c #D8D8BD",
"$. c #ECD5A7",
"%. c #EEDDA5",
"&. c #E2D3AD",
"*. c #FEDDA4",
"=. c #F9DEAD",
"-. c #F6E7A6",
";. c #FFEAA7",
":. c #F7E7AA",
">. c #FEE5A8",
",. c #FFF4AD",
"<. c #FBEAB8",
"1. c #FDF1B0",
"2. c #FFFCB5",
"3. c #FFFEBD",
"4. c #DFDFC1",
"5. c #E3E3C5",
"6. c #EAEAC3",
"7. c #FFFDC3",
"8. c #FFFFCB",
"9. c #FFFFD5",
"0. c #FFFFDB",
"q. c #FFFFE1",
/* pixels */
"O # & > , : : > , 4 4 > : % & > , : % + # % > : , 5 5 , & % & $ : , , > > : + X   .   + : , , , 3 3 2 4 , : % & > > > : @ X .   ",
"o # > 4 4 4 2 4 4 5 8 8 4 , 4 4 7 4 > # + # , 2 5 4 3 , > > > , , 2 4 2 4 3 > & + O . + > 5 5 8 8 8 8 8 8 5 3 3 e 8 4 4 : # o . ",
"o # , 5 5 5 8 8 e 8 8 8 e 8 8 8 7 7 4 > # + : 2 5 5 3 , , , 3 5 5 4 4 5 5 4 4 , : & o # 2 8 e i y e 8 y e e 5 4 5 8 8 8 3 : + . ",
"O # : > > , 4 8 8 8 8 5 4 4 8 8 7 7 7 3 & + + : 2 2 , : : : > 2 2 5 4 4 5 4 5 2 4 , % : 5 8 y e 8 8 8 8 5 4 2 > > , 4 5 , & + . ",
"O + + # & & : , 4 4 , 4 4 4 8 8 8 5 4 = # o . O & : : & & % & : > 3 4 3 , 4 5 4 3 > > 2 5 8 y 5 3 4 2 , > > : : & & : , > % o . ",
"+ O o O + # # # = , > > , 2 > 4 8 4 & # + o . o o # & # + # # % : 2 > : , 4 5 4 4 : , 4 4 : : & # % % & & $ $ # + o X + # # + o ",
"# + + o + : > > > 4 4 3 4 2 & 2 8 8 4 4 > & % & O + : > : > , , 8 e 4 : 4 8 8 y 8 4 4 5 4 & # & > : : > 2 3 > > & # # & & : % $ ",
"& % + O + , 5 8 7 7 4 4 5 2 % , e y y p y 4 4 , # & 4 5 8 y y e i p 8 4 4 i y 8 y 8 5 5 5 & @ : 5 4 4 4 e y 8 8 , : 4 5 5 2 , > ",
"> % O o + : , 4 6 6 5 4 4 , & 3 8 8 i y e 8 4 > = : 8 8 8 y y y e y 8 , > e 8 7 7 8 5 4 2 > + : 3 3 3 4 8 y 8 8 3 3 8 8 5 5 4 5 ",
"% % + O + # : 3 7 7 8 8 7 4 > 4 y y y y y 5 4 4 > & : 8 y y y i p i e 2 , 8 5 , , , 5 4 3 4 > 3 4 3 3 7 4 8 y y 2 , 8 8 5 2 3 , ",
"+ o X X o o O % > 3 4 5 2 : > , , > 3 5 4 > + + o o + > 4 8 4 5 8 5 > & : > & + + O + + O + % : & # # & : % : 4 , > , > > > : # ",
"o X o O O + & > 4 5 5 5 2 > 4 4 , 3 5 5 , & # # # % & , 4 5 4 4 4 5 , > 3 > : & & # o + + # : , : % % = & : > 3 2 3 , , 2 , : + ",
"o # & & & : 5 y y y y 8 5 8 e 8 8 y y y 2 > 4 3 3 6 4 7 8 8 y 8 8 8 8 8 8 4 4 7 e 4 & & 4 3 4 8 5 4 4 , , 5 8 4 5 5 5 5 5 5 > % ",
"+ > 2 > > 3 5 e y y y 8 8 8 e 8 7 y y e 4 2 5 8 6 3 4 7 4 8 8 8 5 5 8 8 8 4 4 7 5 5 , , 4 4 4 5 4 5 7 5 8 4 4 4 5 5 2 2 , > : # ",
"& 5 8 4 , 3 5 8 e y e e e 8 8 y y a p u y 4 5 5 7 4 3 : : , 8 8 8 5 8 5 8 4 4 4 5 4 > , 8 4 2 5 5 5 5 4 5 5 4 4 4 , > : # + + @ ",
"& > : & & # % > 5 5 3 , , 3 4 4 7 8 8 8 3 , 3 > & # + + O # & > : % % & > : = % & % # : 3 , , , > & : : : > , , & # # O . . o + ",
"> > & & : # % > 5 5 4 , 3 4 : > , 3 4 4 , , > & @ o o + # # & , % % # # & = % % % # % > 3 , , 3 , : : > > , 3 , & # # O O + # = ",
"2 5 4 3 4 5 5 e y e y i i 8 & : 4 4 5 4 4 5 4 : # # & , 4 8 8 5 > > > & & > , 4 4 , 4 5 5 2 > 5 y y e 8 8 8 8 8 > & : : , , 3 3 ",
", 2 3 2 8 y y y 5 5 e e 8 4 # & 4 2 3 2 2 4 4 , : > 5 8 8 5 4 4 4 , : + # > 2 2 4 5 5 8 4 , & , 8 7 8 8 e 8 4 8 & # > , 3 3 > , ",
"> 2 2 4 y y y y 8 e y i i 4 # # : , 4 4 4 4 4 4 > 4 i y 8 8 4 4 5 > % + # 3 4 5 5 8 8 5 3 # # , e 8 8 e 8 8 4 4 % # : > , & & > ",
"# # & > 5 5 5 5 , > , 5 8 2 + o + % > > & % & , > 4 8 8 4 2 , & % # o X # > > : : 2 4 2 & X # : > : 2 4 5 , & # + o + + + + # % ",
"O + & , 4 5 5 3 > & : 4 5 , # + + # : % O X + & > , 4 4 2 3 > # + + + O & : & % & 4 2 > % + # & % % > 2 , : # + o o o + + + + + ",
"& 2 y i p y e y e 4 e y y 8 8 5 5 5 4 + . X + : 2 4 4 6 6 4 4 , , , > , , , 3 3 4 e 4 , 4 3 , , , 3 5 4 3 : > , > & & : : : % + ",
": 5 i y i i y y e y i y i y e i p y 7 > + o & 4 4 4 6 8 4 4 4 4 5 5 3 2 > 2 4 4 5 5 : , 5 4 4 4 4 4 5 5 5 4 2 4 2 > & > > > & # ",
": 5 p y p i y y i i i p p i p p p y 5 4 % + + : D o.X.X.X.X.X.X.+.+.E , 3 4 5 6 3 > % : 3 3 , 3 2 5 5 4 4 5 4 4 2 > : , : & & + ",
"% > 5 8 8 5 8 8 e e y e 8 y y p y e 2 > # . X + Q 7.9.0.8.9.0.0.0.q.#.V , > , 3 3 = # & > & : : : > > : > > > > > & # # # + + o ",
"& : > : & : , 4 4 8 8 5 4 8 8 y y 8 : & + .   . F 2.3.8.7.8.0.0.0.q.q.4.u : : > 2 : > > & + # # % $ % % % $ & & # + o o + o + + ",
"5 5 2 & + : 4 5 4 5 5 5 4 8 , 8 i e 4 > & # O X G 2.2.7.9.9.9.0.0.0.0.0.6.f 8 8 8 y y 8 > . + % : > : & : : # # o # : : 2 , 2 5 ",
"e 8 4 3 2 3 8 e e y 8 8 y 8 5 y y y p i 7 > & * < B ' >.7.9.0.9.9.9.0.0.9.5.W i p d d i 4 % & : : , , , , 2 , : + % 4 4 5 8 8 y ",
"e 8 4 3 2 5 e y e 8 8 y i 8 2 8 p p p p y 4 2 < @ t ' ' 1.8.9.9.9.0.9.8.7.8.! i u p p i y 5 > : , 2 2 4 5 4 4 2 : > 5 5 8 e 8 y ",
"5 4 2 : : , 5 5 4 4 4 5 4 > % , 8 8 5 7 7 3 4 , % N >.~ :.8.0.9.0.0.9.7.,.;.S 8 y p i y y 5 % : , 4 2 4 5 4 4 , > , 5 5 4 3 5 5 ",
": > > : % % : > , , : & # # + % : : = > : % % & & C &.n $.8.9.9.8.8.9.8...( k , 8 p i 8 , # X # , 4 > , 4 4 , > : > 4 5 : & : : ",
". X + # % & : & : : , , : : > > > > & # O . . X + > s v R =.8.7.3.2.7.3. .L r 3 4 5 > # + + & > > : : 2 4 3 4 3 4 4 4 7 , : # . ",
"  . + : > 3 2 3 3 4 4 3 , 3 4 2 5 7 3 : + . O + & 3 s / L [ 8.8.8.7.8.7...R l 7 5 > # @ # : 8 e 8 5 5 8 8 8 8 8 8 8 5 y 5 3 % o ",
"X O $ : > 4 5 5 5 5 5 4 2 5 4 4 5 e 5 , # o : : 4 7 l <.K I [ [ <.3.7.7.*.*.Z 4 > # o + : > 5 y p i y e e y y y y e e e 8 4 & O ",
"o + # % : : , 2 4 2 2 4 4 5 4 2 4 5 5 , # # 2 5 4 4 a O.~ n j n | ;.-.} ] 2.A % # . . o % : > 8 y p e 4 8 e y e e e 8 5 4 3 & o ",
"X + + # & : , 4 3 > : : 2 3 4 4 4 5 2 > & & 4 5 5 3 > g ` / v m { _ Y b m %.M O O .   . o + 4 e y e 2 4 8 8 8 5 5 2 > : : , : X ",
"o o o . O % , 2 3 3 & @ + + & , 3 , 2 3 3 3 , > # o + = u Q ) b H H b n T z 0 = & # + + + % , 4 4 4 : , 4 4 , % + # # @ & : & + ",
"& # + # # , 8 8 8 y 5 > : : > 5 8 7 5 5 7 e 7 3 # o # 3 5 k H P x J c 9 q 1 ; 1 > , 2 2 > , 5 8 8 8 4 4 4 4 4 : # % > : > 3 3 > ",
"4 > : > , 8 p p y y i y y 8 4 8 y e 8 8 y y y 8 & # 3 y i w h I ^ U r o X & > , 4 5 y y 5 5 5 e y y y 8 5 8 8 4 % & 5 5 5 8 8 8 ",
"5 , : : 4 e u y y y y y y y 3 4 8 8 8 8 e e e e : % > e i y 8 a @.C % o + : : , 5 5 8 8 5 , , 5 y 8 e 8 8 8 8 , # & 5 5 8 8 e 8 ",
"8 , % # , e y p p i 8 8 e 5 : , 8 y e 8 8 8 y 8 % O % 4 i y y p d 5 # . O % : > 5 e 5 , : : & > 5 5 5 8 y e 7 4 : & > , 8 8 y 8 ",
"> : + X # > , 5 5 5 > : : : # # & > > % # > 4 > # O + & 2 4 8 5 5 : @ O o o + + # : % + + # + % & & % : 4 4 : # : : & $ : : > > ",
": > > & % , 4 4 5 4 3 > , 3 : : > , 2 & # & 5 5 2 : : 4 5 5 8 8 8 3 > , : % # + + # O + % & : : > 3 , , 5 5 , > , 5 , > , , : # ",
": 5 y e 5 y e 8 y 8 8 y y i y 8 7 y e e , > i y p y y u p i i i y e y i 8 5 , > : # o # > 2 8 8 y i p i e 8 y y y y i y i y , + ",
"> 5 e 8 8 e 8 y y 8 8 8 y y y y y y e e 4 , e e y y i p p p p p e y y e 5 8 5 3 , & + # : : 2 e i e y y e 7 5 y e e e y y e 2 : ",
"& 5 y y y y e 8 8 e e 8 y y e y y y y i 8 4 8 e i i p p i p a p y y i y y i e 4 , : O + & & > 8 y y e i y 8 e y i y y i p y 5 : ",
"+ % > 3 3 , > > : : : , 3 , , 4 4 , 5 5 4 2 3 > , 4 5 8 8 8 4 : : , 3 : & & & & : % X o + + % 2 2 : > 4 4 4 5 5 4 2 2 8 4 > & # ",
"# % : > , 3 > : : : : > 3 > & , 7 3 4 7 5 5 4 , : > 3 8 4 4 4 & & , > # + + % : 3 > % & & % & 4 4 : > 2 3 , 5 4 > : , 4 4 > & % ",
", 5 5 4 8 y e 8 e y y y 8 3 & 4 p i y y y y y y 5 4 5 y 8 8 8 4 4 8 5 , > 2 8 y y y e 8 y y 8 y i y 8 y 8 5 e y , > 5 e y 8 5 4 ",
"8 8 4 4 2 5 8 5 5 8 y 8 5 2 , 8 y y y y y 8 y 8 4 4 5 5 5 5 5 4 5 5 4 4 e y e y 8 i i e 8 8 4 8 y e e y y 8 8 y 4 4 8 e y 8 8 6 ",
"4 8 4 , : , 5 5 5 5 8 8 8 2 > 4 e 7 y y p p y y 3 > 4 5 8 8 8 8 8 8 5 8 i p i y y p y e e e 2 8 e 8 e y y 8 y i 4 4 8 8 e 8 8 4 ",
"2 > & + O + % : : : : : % % + & = : 3 7 5 4 5 8 , % + & : 3 4 4 4 4 > > 5 8 3 2 5 5 2 4 8 5 > , 5 4 4 5 5 5 5 5 > : 4 4 , > > : ",
": + o . . . O # $ % % # O + + + # & 3 > : & > 2 3 & + + % , 3 , , , : : , 2 : : , : : > , 5 2 4 4 5 3 4 5 5 5 4 : : 4 5 : : : - ",
"# + @ % & & & > 4 2 4 2 , > , 4 8 8 4 4 & % , , 4 5 4 , 5 5 8 8 8 8 5 4 4 e 5 4 5 > % % , y i p y y y i i y y y y y i y e 8 e 5 ",
", 4 4 , : > , 2 2 , > , 4 4 5 8 8 4 , 4 : # > , 2 2 4 4 5 8 8 e 4 4 8 8 8 4 4 5 2 & % , e i 8 y y p y p i y e i i i y i i i i 7 ",
"4 5 5 4 2 > 3 7 5 5 4 5 8 8 4 4 8 5 4 & O # > 4 2 4 4 2 8 e y 8 8 8 7 7 7 5 5 8 8 2 : 4 i y i y y y y p i y y p p p p i y p y 8 ",
"3 4 , , > : , 3 , > , 2 5 4 3 4 4 5 3 + . o : : , > : : > 4 8 4 4 , > 3 , 4 4 4 4 , % & 4 8 y 8 8 5 2 5 5 5 5 y 5 5 5 2 4 4 4 2 ",
", , : + + # & : : & % & > 2 , 4 4 4 > # o O & # & & # # % : , > = % # # % & > , > : # + & 4 4 , 3 , & & & : : 3 > & & % % % & > ",
"4 , % X . O % > 2 , , 3 4 5 3 4 8 8 e 4 , > , > : & & : : 2 4 , > : # . O % 4 e 8 3 > 4 y e : : 4 5 2 > : > 4 4 : # # # = : > , ",
"4 3 > & & > 4 6 8 8 8 5 5 8 4 8 8 e y e 8 8 8 8 3 2 4 , 3 4 5 4 3 2 : # & 3 8 y 8 8 5 y p e : 3 e 8 7 5 5 5 5 5 2 > , 2 3 3 , 4 ",
"4 , > : > 7 y e 8 8 8 e 4 4 : 4 y 8 e i y y i y 5 4 8 4 5 5 5 4 5 5 : % > 8 y 8 y y 8 y i i , 5 y e e e e y y 5 , , 3 3 6 3 3 7 ",
", : & & > 3 4 8 8 8 8 4 : % O : 6 8 8 8 e 8 8 y 5 5 5 4 , , , , 3 2 , : : 5 5 3 4 4 4 5 5 5 , 5 e e 8 y 8 5 5 , & : > , , , , , ",
"# & & & > = : > 5 8 4 : o . . # 3 5 4 5 8 8 4 8 4 4 4 , & & & & : 4 2 : > 2 > : & % > 4 , & : 4 8 8 8 5 4 , & + + % > > & # # # "
};
