/* XPM */
static char *result[] = {
/* columns rows colors chars-per-pixel */
"64 64 139 2 ",
"   c #000000",
".  c #0B0B0B",
"X  c #151515",
"o  c #1C1C1C",
"O  c #1F2021",
"+  c #242424",
"@  c #282724",
"#  c #292824",
"$  c #2C2C2C",
"%  c #32312F",
"&  c #202533",
"*  c #343434",
"=  c #3B3630",
"-  c #363639",
";  c #3B3B3C",
":  c #41392F",
">  c #403C36",
",  c #403E3B",
"<  c #42413F",
"1  c #4E4438",
"2  c #574D3F",
"3  c #2C3551",
"4  c #2F3854",
"5  c #203166",
"6  c #21356F",
"7  c #37405C",
"8  c #3B445C",
"9  c #3C4560",
"0  c #30437D",
"q  c #394A7E",
"w  c #444444",
"e  c #4A4946",
"r  c #454649",
"t  c #47484B",
"y  c #4C4C4C",
"u  c #514F4B",
"i  c #53524E",
"p  c #4D4E50",
"a  c #464B5A",
"s  c #494D5C",
"d  c #4F5053",
"f  c #4C515E",
"g  c #545454",
"h  c #5B5854",
"j  c #565659",
"k  c #57585A",
"l  c #5B5B5B",
"z  c #645847",
"x  c #6C5C48",
"c  c #735F46",
"v  c #605B55",
"b  c #695F52",
"n  c #615F5B",
"m  c #79664E",
"M  c #696055",
"N  c #62615D",
"B  c #6B645B",
"V  c #796A59",
"C  c #464E69",
"Z  c #4A526D",
"A  c #535762",
"S  c #565A66",
"D  c #5E5E60",
"F  c #595E6D",
"G  c #4C5571",
"H  c #5F6061",
"J  c #5C616D",
"K  c #5D6272",
"L  c #5B617B",
"P  c #636363",
"I  c #686868",
"U  c #756E64",
"Y  c #796F64",
"T  c #7D7366",
"R  c #797979",
"E  c #827563",
"W  c #867968",
"Q  c #94826B",
"!  c #9A866C",
"~  c #8E8170",
"^  c #A68C69",
"/  c #B39671",
"(  c #B89C76",
")  c #C4A47A",
"_  c #C9A77B",
"`  c #D0AC7F",
"'  c #223D8F",
"]  c #324787",
"[  c #364883",
"{  c #394C86",
"}  c #354B8B",
"|  c #2B4799",
" . c #2D499C",
".. c #394F91",
"X. c #314C9C",
"o. c #3C5293",
"O. c #2C4BA7",
"+. c #324EA2",
"@. c #304EA9",
"#. c #3551A6",
"$. c #3552AC",
"%. c #3955AA",
"&. c #2549B5",
"*. c #2B4EB6",
"=. c #294DB9",
"-. c #3554B2",
";. c #43558C",
":. c #4A5A8F",
">. c #475993",
",. c #415FBF",
"<. c #4561BE",
"1. c #4D65BB",
"2. c #5C6EB6",
"3. c #556AB8",
"4. c #7079AE",
"5. c #274FC6",
"6. c #244ECA",
"7. c #2950C5",
"8. c #2750CB",
"9. c #2850C8",
"0. c #3055C5",
"q. c #7E82A9",
"w. c gray52",
"e. c gray55",
"r. c #A1959C",
"t. c #AE9D98",
"y. c #8C89A4",
"u. c #9990A0",
"i. c #D7B283",
"p. c #DCB686",
"a. c #DEB887",
"s. c #D4B28B",
"d. c #DAB688",
"f. c #DFB988",
"g. c #C6AA90",
"h. c #E1BA87",
"j. c #E2BB89",
"k. c gray84",
"l. c gray86",
/* pixels */
"$ $ ; y y w w e y g g y < * ; e y e * $ % - y < y g h p : = * ; < y y y e 8 % o X o o $ 8 2 p u i p i d i < - ; 8 2 8 < % O X o ",
"+ * y g g g p g j j j l j y i j j i e - # * y u g g p t 8 w y e p i g g g p < = # # o # e g k l l k k l l g i p l h i i e % O o ",
"+ - y g g l l l l l l D l h l l l j d 1 - $ 8 u Y Q ~ Q Q V g i g g g g l g i i 8 > # * i l N P P H H P H H v i l l l l i < $ o ",
"$ * < r e y g l l l l h k j l l n l j u ; % = x ( a.a.p.h./ T B g g g g g g g i i p - < g l H H l l h l h i i 8 8 2 i l y < $ o ",
"@ $ $ * ; ; w y g g y y p i g k l h g 8 $ = m _ p.a.a.a.a.p.` ) h y u u y k g i i y e p k l N g i i p y e 8 e < , , e 8 e * + o ",
"$ + + + # * * - , y O . . X X w l p , * # 2 _ a.a.a.a.p.a.a.h.` Q v e 8 y g l k g < y g g e w > - * - ; > : * % $ O O $ * * $ + ",
"* % $ + $ w r r y g w.p       X + O X X 1 ^ a.a.a.a.a.a.a.a.a.p.) T d e g N l H l g g k g ; = , t 8 1 e i i 8 e ; % * ; < < ; * ",
"; - $ + * r h l l l l.e.                x a.a.a.a.a.a.a.a.a.h.h.` Q k g g H N H H l k k g < # 8 k g i g l P v v 8 e i l g i y y ",
"e - + + % , y g g l k.e.                m j.a.a.a.a.a.a.d.s.s.s.d.W g p y l l l g l g g p e % < p y y i l N H N i u l l h g g k ",
"- - % + % - w y l P k.e.                m j.p.p.d.d.d.s.g.t.u.y.y.L s t t H g p p y g g i y 8 2 g i i k k k H N i 2 l h g g i y ",
"$ + O O O + # - e g l.e.                c h.h.d.r.4.2.2.3.1.<.,.,.-.@.O.+.%.] 3 # # % % # % = 8 < % * < < ; < i 8 e 2 u 1 8 < * ",
"+ O + + @ $ ; y p j R e       o * * * * z ~ y.q.3.0.6.6.6.6.6.5.5.8.8.8.8.8.&.' 6 5 & # % % < y 8 * ; ; < < 8 i i u 8 e i p w % ",
"+ * ; - ; w g P P P $ X o o X w H H P J C [ 7.8.5.5.9.9.9.9.9.9.8.5.9.9.9.9.8.8.8.7.0 4 a y h l i i k u i g l g k l h h k h e = ",
"$ e y y y y l l P P l l l g l l l I J o.*.9.9.9.8.9.9.9.9.9.9.9.9.9.9.9.9.9.9.9.9.9.7.*.} f g l h k k k g h g g h k i i y 8 < * ",
"; j l g y u j l P P l H N l l l N K -.=.9.9.9.9.9.9.9.9.9.9.9.9.9.9.9.9.9.9.9.9.9.9.9.9.=.$.s g k g k i k k h i i y 8 < * # $ % ",
"< r w ; < * - y g j g y y p g i G %.9.9.9.9.9.9.9.9.9.9.9.9.9.9.9.9.9.9.9.9.9.9.9.9.9.9.8.9.+.9 e < < < < e u 8 < * * # o o # $ ",
"e e , ; 8 % = y l h g p y i < 8 X.5.9.9.9.9.9.9.9.9.9.9.9.9.9.9.9.9.9.5.9.9.9.9.9.9.9.9.9.9.9. .8 < 8 < 8 2 u y ; % * $ # $ = ; ",
"d g g i u h l D H H H I P D 7 | 9.9.9.9.9.9.9.9.9.9.9.9.9.9.9.9.9.9.9.9.9.9.9.9.9.9.9.9.9.9.9.8.#.S N N l l l l e < < < 8 u i i ",
"y g y p l P N D l h l N H A @.8.9.9.9.9.9.9.9.9.9.9.9.9.9.9.9.9.9.9.9.9.9.9.9.9.9.9.9.9.9.9.8.7.7.-.l l l l g l ; * 8 y i i 8 u ",
"y y p g D P I P l H P I J ..=.8.9.9.9.9.9.9.9.9.9.7.9.9.9.9.9.9.9.9.9.9.9.9.9.9.9.9.9.9.9.9.7.8.8.=...F N l g i * % < 2 e ; > e ",
"* * ; e g l l j y t y i G *.9.9.9.9.9.9.9.9.9.9.9.9.9.9.9.9.9.9.9.9.9.9.9.9.9.9.9.9.9.9.9.9.9.7.7.7.*.C i p < * + + $ % $ % % * ",
"@ $ ; y g h j i e ; w a { 9.9.9.9.9.9.9.9.9.9.9.9.9.9.9.9.9.9.9.9.9.9.9.9.9.9.9.9.9.9.9.9.9.5.8.8.8.5.q 8 < * # + # # # # % * + ",
"; d H I I P H H l g N :.=.8.9.9.9.9.9.9.9.9.9.9.9.9.9.9.9.9.9.9.9.9.9.9.9.9.9.9.9.9.9.9.9.9.9.9.7.8.7.7.q e 8 u 8 < ; < < < - + ",
"w l I P I I P P H I H ;.8.9.9.9.9.9.9.9.9.9.9.9.9.9.9.9.9.9.9.9.9.9.9.9.9.9.9.9.9.9.9.9.9.9.9.9.8.7.8.8.q i i i i e < e e 8 < - ",
", h I I I I I I P H G X.8.9.9.9.9.9.9.9.9.9.9.9.9.9.9.9.9.9.9.9.9.9.9.9.9.9.9.9.9.9.9.9.9.9.9.9.7.8.7.8.X.f d i i e < y 8 < > $ ",
"- y j j l h h l H H o.*.9.9.9.9.9.9.9.9.9.9.9.9.9.9.9.9.9.9.9.9.9.9.9.9.9.9.9.9.9.9.9.9.9.9.9.9.8.7.8.8.=.q 8 e w ; % ; % $ # # ",
"= 8 w w , < p g g H %.8.9.9.9.9.9.9.9.9.9.9.9.9.9.9.9.9.9.9.9.9.9.9.9.9.9.9.9.9.9.9.9.9.9.9.9.9.7.8.8.7.8. .; ; * $ O + + # # % ",
"h h d , # 8 i g g k %.8.9.9.9.9.9.9.9.9.9.9.9.9.9.9.9.9.9.9.9.9.9.9.9.9.5.9.9.9.9.9.9.9.9.9.9.9.8.7.8.8.8. .> % + % w w d y y l ",
"H n g p u p l N H j #.8.5.8.9.9.9.9.9.9.9.9.9.9.9.9.9.9.9.9.9.9.9.9.9.9.8.7.9.9.9.9.9.9.8.7.8.7.7.8.7.8.8.+.8 < $ > i g l l H H ",
"D h g y g h H N D f @.8.9.5.9.9.9.9.9.9.9.9.9.9.9.9.9.9.9.9.9.9.9.9.9.9.7.8.9.9.7.8.9.9.7.8.7.8.8.7.8.7.8.O.8 u < 8 k h l H H H ",
"g g g t 8 y g l d 8 +.8.9.9.9.9.9.9.9.9.9.9.9.9.9.9.9.9.9.9.9.9.9.9.9.9.9.9.9.9.8.7.8.7.8.7.8.7.7.8.7.8.5.O.8 p e i k k d i g k ",
"w e t < = = < y 8 7 O.5.9.9.9.9.9.9.9.9.9.9.9.9.9.9.9.9.9.9.9.9.9.9.9.9.9.9.9.9.7.8.7.8.7.8.8.7.8.7.8.7.6.O.7 w < e g k w < < < ",
"o o $ ; ; ; < < ; 7 O.8.9.9.9.9.9.9.9.9.9.9.9.6.9.9.9.9.9.5.9.9.9.9.9.9.9.9.9.9.9.9.9.9.9.9.9.9.9.9.9.9.8.O.7 8 h i i l 8 < * o ",
"X o % < 8 p i y 8 8 O.8.9.9.9.9.9.9.9.9.9.9.9.0.9.9.9.9.9.9.9.9.9.9.9.9.9.9.9.9.9.9.9.9.9.9.9.9.9.9.9.9.8.O.9 l l l l P h i , O ",
"o # = < 1 i g l h 8 @.6.9.9.9.9.9.9.9.9.9.9.9.5.9.9.9.9.9.9.9.9.9.9.9.9.9.9.9.9.9.9.9.9.9.9.9.9.9.9.9.9.8.$.f H P H N H l g , # ",
"# $ % > < 8 2 i i i #.8.9.9.9.9.9.9.9.9.9.9.9.9.9.9.9.9.9.9.9.9.9.9.9.9.9.9.9.9.9.9.9.9.9.5.9.9.9.9.9.9.6.%.k H P H l g g y ; + ",
"O $ $ * ; 8 2 i i 8 X.7.9.9.9.9.9.9.9.9.9.9.9.9.9.9.9.9.9.9.9.9.9.9.9.9.9.9.5.9.9.9.9.9.9.9.9.9.9.9.9.9.8.%.l h i i 8 < e 8 < # ",
"O O O O @ - 8 i i p #.9.9.9.9.9.9.9.9.9.9.9.9.9.9.9.9.9.9.9.9.9.9.9.9.9.9.9.9.9.9.9.9.9.9.9.9.9.9.9.9.9.9.#.e = % * : % ; < > $ ",
"< * % % * y l H l H o.*.9.9.9.9.9.9.9.9.9.9.9.9.9.9.9.9.9.9.9.9.9.9.9.9.9.9.9.9.9.9.9.9.9.9.9.9.9.9.9.9.=.} d 8 * * e < 8 y e e ",
"g 1 < 8 y l I I P I G X.9.9.9.9.9.9.9.9.9.9.9.9.9.9.9.9.9.9.9.9.9.9.9.9.9.9.9.9.9.9.9.9.9.9.9.9.9.9.9.8.X.C H d ; < h h h l N l ",
"l y < w g P I I P P n ;.9.9.9.9.9.9.9.9.9.9.9.9.9.9.9.9.9.9.9.9.9.9.9.9.9.9.9.9.9.9.9.9.9.9.9.9.9.9.5.6.;.h l i % ; k h l l l l ",
"l y > * y l P I I I l ;.7.9.9.9.9.9.9.9.9.9.9.9.9.9.9.9.9.9.9.9.9.9.9.9.9.9.9.9.9.9.9.9.9.9.9.9.9.9.7.7.;.l k i < ; e e k H N l ",
"8 < $ O $ e y g l g 1 8 0 5.9.9.9.9.9.9.9.9.9.9.9.9.9.9.9.9.9.9.9.9.9.9.9.9.9.9.9.9.9.9.9.9.9.9.9.9.7.q f g 1 * < w ; > < e e 8 ",
"> u e ; ; d i g g g i < 8 *.5.9.9.9.9.9.9.9.9.9.9.9.9.5.9.9.9.9.9.9.9.9.9.9.9.9.9.9.9.9.9.9.9.9.8.5.*.C i g 8 e d g i 8 i u < % ",
"e l P N k P H l H l n H J o.7.9.9.9.9.9.9.9.9.9.9.9.9.9.9.9.9.9.9.9.7.8.9.9.9.9.9.9.9.9.9.9.9.9.8.7.o.J P l H I P P I P P P u % ",
"e g N l l P l H P n l l P J $.5.9.9.9.9.9.9.9.9.9.9.9.9.9.9.9.9.9.9.9.9.9.9.9.9.9.9.9.9.9.9.9.9.7.-.J P l k g P H l H P P H y < ",
"; g B N H P l l H H n n P P F #.8.9.9.5.9.9.9.9.9.9.9.9.9.9.9.9.9.9.9.9.7.9.9.9.9.9.9.9.9.9.9.8.#.S P I I H H P I P P I I P k < ",
"$ ; 8 y d p e e < < < 8 i y y 9 X.8.9.9.9.9.9.9.9.9.9.9.9.9.9.9.9.9.9.9.8.9.9.7.9.9.9.9.9.9.8.X.8 1 8 i g g g g i i i k g y ; * ",
"% ; < 8 y i 8 < e < w 8 i e > e G %.7.5.5.9.9.9.9.9.9.9.9.9.9.9.9.9.9.9.9.9.9.9.7.8.7.8.8.5.#.Z i w e i d y g g e < 8 h i e ; * ",
"y k h i l P N h H P P N h i ; i I F $.7.5.9.9.9.9.9.9.9.9.9.9.9.9.9.9.9.9.9.9.9.9.7.8.5.=.$.f H I P l H l l H H d e l l N n l g ",
"l l h i g k l g k l N H h i y k H H I o.*.0.9.9.9.9.9.9.9.9.9.9.9.9.9.9.9.9.9.9.9.9.7.*.o.S d l P H H P H l H P g i l H H N l g ",
"k l g y w y g k h k l l h i 8 g H H P J L >.0.6.6.9.9.9.9.9.9.9.9.9.9.9.9.9.9.8.9.7.{ G F H i k H l l P P l H I g g l H H l l g ",
"u e ; $ # $ > < < < e < ; * * * < w i v T / q.q.3.0.6.6.6.6.6.6.6.8.8.8.9.8.&.| { q d i l h e p g g d l k k l k e w g g e 8 2 < ",
"; % O o O O # % ; > ; % # $ $ % * ; 8 < Q h.h.d.u.q.2.2.3.<.,.,.,.-.O.$.#.%.} 8 8 1 w w i h i i g g i i g l g i w e g g w w e < ",
"* $ $ ; ; ; < e i d i i y e y i l l g d ! j.a.a.d.d.d.d.g.t.u.y.y.K 8 d d H k i i e ; ; 8 B I I I I P P I P P I P P I P l l l l ",
"y i g p w w 8 i i p 8 y g g k l H g y d ! j.a.a.d.f.f.d.d.d.s.s.s.U d l l g g l i ; : 8 l I N P I I P P P P P P I I P I I I P l ",
"g h h i i e i k g g i l l l g k l l i ; V _ a.a.a.a.a.a.p.h.h.h.f.W h h h g l l l i < d I P P P P P P I I P P I I I I I P I I l ",
"i i i 8 e < 8 i p y e i g g i i g g d $ : Q h.a.a.a.a.a.p.p.h.i./ N 8 y i i g i i u ; < i l N h k k i k h k h N l g g i i g i d ",
"y y < % % * < < < ; ; , 8 i y i h i 8 * o 1 ) a.a.a.a.a.h.a.h.) x , * % * w 8 2 e < * % < d d u i y ; ; < < 8 u 8 ; > ; ; ; < 8 ",
"g y * O o # * e d y 8 u i k d g h n N g < u b ) a.a.a.a.p.p.) Q i w * O # * i H h i 8 g H H e 8 g i i e 1 8 i g < = % * ; < w 2 ",
"i d w ; ; 8 i h l l l k h l i l H l P P l l l U Q ) h.p.` ! B N i i < % < u l N H l g l I H < i H l l g g g l k i 1 y i p y i i ",
"g p 8 w e k N N l l H l h i 8 i P l H N P P P H N E ! Q Q M i i h i 8 > 8 h N H P H H P I H p k P H H H H H P l i 8 i i g g d k ",
"y < , , u i i v l l l g w = # < g l l H P l H H k d g i y 8 e u i i 8 1 e h g i i i g k l g i k N l H H l l g y < < 8 u i e 8 u ",
"* ; > > e < < 8 g l k < # o o * y l g g l l g l g g i p ; * < > 8 i i < e i 8 w > > 8 i y < < i l l l k i y < $ $ * w < < * % = "
};
