/* XPM */
static char *result[] = {
/* columns rows colors chars-per-pixel */
"64 64 133 2 ",
"   c #000000",
".  c #0B0B0B",
"X  c #141414",
"o  c #1C1C1C",
"O  c #242424",
"+  c #272728",
"@  c #2C2C2C",
"#  c #343434",
"$  c #363639",
"%  c #3C3C3C",
"&  c #4A4032",
"*  c #42413F",
"=  c #3D3E41",
"-  c #2B3450",
";  c #2F3854",
":  c #23346C",
">  c #37405C",
",  c #3B445C",
"<  c #3F4864",
"1  c #2F417B",
"2  c #30437D",
"3  c #38497D",
"4  c #444444",
"5  c #494745",
"6  c #4A4946",
"7  c #45464A",
"8  c #474849",
"9  c #4C4C4C",
"0  c #514F4A",
"q  c #53524E",
"w  c #5B5349",
"e  c #4D4E51",
"r  c #464B5B",
"t  c #494D5B",
"y  c #4C515E",
"u  c #545454",
"i  c #595754",
"p  c #5D5953",
"a  c #55565A",
"s  c #57595C",
"d  c #5B5B5B",
"f  c #6E5B42",
"g  c #665A4B",
"h  c #685C4B",
"j  c #725F46",
"k  c #615F5B",
"l  c #63605C",
"z  c #6B6359",
"x  c #716657",
"c  c #70685F",
"v  c #786D5F",
"b  c #424A64",
"n  c #464E69",
"m  c #4C5262",
"M  c #4A536E",
"N  c #535762",
"B  c #565A66",
"V  c #5E5E60",
"C  c #54596A",
"Z  c #4D5571",
"A  c #5F6061",
"S  c #5C616D",
"D  c #5D6272",
"F  c #5D627A",
"G  c #636363",
"H  c #686868",
"J  c #7C7265",
"K  c #797979",
"L  c #86745C",
"P  c #8A7963",
"I  c #94836C",
"U  c #99856B",
"Y  c #96867B",
"T  c #988679",
"R  c #A48A67",
"E  c #A48C6E",
"W  c #AF936E",
"Q  c #B69974",
"!  c #BA9E77",
"~  c #B99D79",
"^  c #C4A47B",
"/  c #CBAA7E",
"(  c #213C8E",
")  c #3B4C84",
"_  c #364B8C",
"`  c #3B4E89",
"'  c #3F528C",
"]  c #2A4699",
"[  c #2D499C",
"{  c #394F91",
"}  c #314C9C",
"|  c #3C5293",
" . c #2D4BA5",
".. c #2C4BA9",
"X. c #314EA9",
"o. c #3551A6",
"O. c #3552AB",
"+. c #3956AA",
"@. c #2549B5",
"#. c #2B4EB6",
"$. c #294DB9",
"%. c #3654B2",
"&. c #43558C",
"*. c #4A5A8F",
"=. c #445691",
"-. c #415FBF",
";. c #4561BE",
":. c #4D65BB",
">. c #5C6EB6",
",. c #556AB8",
"<. c #7079AE",
"1. c #244ECA",
"2. c #2950C4",
"3. c #2750CB",
"4. c #2850C8",
"5. c #3055C5",
"6. c #7E82A9",
"7. c #868686",
"8. c #8C8C8C",
"9. c #A1959C",
"0. c #AE9D98",
"q. c #8C89A4",
"w. c #9990A0",
"e. c #DCB686",
"r. c #DEB887",
"t. c #D4B28B",
"y. c #DAB688",
"u. c #DFB988",
"i. c #C6AA90",
"p. c #E1BA87",
"a. c #E2BB89",
"s. c #DADADA",
"d. c #E1E1E1",
/* pixels */
"+ # % 8 9 4 4 8 9 u u 9 4 $ % 8 e 6 $ @ @ % 8 4 9 u s e % $ $ % , * e 6 8 4 # o X o X @ * 0 9 q e e q e e = $ % 8 6 , & @ o o o ",
"O # 8 u u u e u a i a s i 9 u u i q 4 $ @ # 9 q u i q 9 6 8 6 6 0 w q q e 8 , $ @ @ o @ 6 d i d d d d d d i e q A d u u 6 # o o ",
"O # 9 i u d d d k d d k d d d d d i q 6 # @ * u s u e 9 e 9 q u u q l P I I L w * * + @ q d A G A A d A A A p i d l p k e * @ o ",
"+ # * 8 5 9 u d d d d u i u d d d d d 0 % @ @ 4 q q 9 4 4 4 8 q l z U / / r.^ U x * % , i s G A A d i A i q q 6 , * i i 9 * @ o ",
"+ # # # % % 8 9 u u e e u i a d d d q * # O o O % 4 4 % % % $ 0 I ^ e.r.a.p.r.r.^ g 6 9 i V A u q q 0 6 8 4 * * % * 4 e 9 # O o ",
"+ O O O O # # # % 9 9 8 9 e 9 u s q , @ @ O o O O # % # @ @ % g ^ r.r.r.p.p.r.p.r.^ z e u 6 * % $ # % % % % % @ @ O o + # # @ O ",
"# # + O @ 4 8 5 9 u e q q q % e k s u u 8 % % % + @ 4 4 6 8 z W / a.r.r.r.r.r.r.r.p.E c q > # * 9 , * 6 q q 8 , % # # % * * % # ",
"% $ @ O # 5 u d a i i a i e $ 9 A G G H A u q 9 # % u s d V I r.p.p.r.r.r.r.r.r.r.r./ I 9 & @ 8 i e q i A G d d * , u d u e 9 9 ",
"6 # O O @ , 0 u i a u u u e % e A k G G G d q e * * s d V s J t.y.t.y.r.u.r.r.r.r.r.a.U 8 8 @ * q e 9 q d A A l w 0 d d i u u i ",
"$ & @ O @ # * e d k d V V q 8 u A A A G A i q w 6 % , i s m F q.q.w.0.i.t.y.u.y.r.r.a.U e q 8 e u e q a i d l l q 0 d s u u e e ",
"+ O O o O O + $ 8 e u i e * 8 9 9 8 q i u * @ @ - 1  .O.O.X.%.-.-.-.:.,.,.>.<.9.y.r.a.L + @ $ * = # # * * % * 0 9 8 9 9 6 8 * # ",
"O O O O O @ % 8 u i a i q 8 u u e e a i 0 > : : ( @.3.3.3.3.3.3.1.1.1.1.1.1.5.,.6.q.T h @ # 4 9 , # % = * * , q e 0 9 9 e e * # ",
"O # % $ % 4 i G G H k d d i k V V A l S < 1 2.4.3.2.3.2.2.3.2.4.2.4.4.4.4.4.4.4.3.2.` b r e i s q q i e q a s s d s i u i a 8 # ",
"@ 6 q 6 8 9 i A G G A d d d k s V A S | #.3.2.2.2.3.2.3.3.2.4.4.4.4.4.4.4.4.4.4.4.2.2.#.{ y s i i i i a i i q q i u u i 9 8 , # ",
"% p d u 9 e i V A G V V V d V A A D O.2.2.2.2.3.2.3.3.2.2.3.2.3.4.4.4.4.4.4.4.4.4.4.4.2.$.O.r u d a a u w i u u q e & * # @ @ @ ",
"* * , % * # $ 8 a i q 9 9 q q e Z +.2.4.2.3.3.2.3.3.2.3.3.2.3.2.4.4.4.4.2.4.4.4.4.4.4.4.4.4. .< * * * * , 6 e 6 = # # @ o o O @ ",
"* 6 = % , # # 6 d i u e 0 u * , } 3.4.4.4.4.4.4.2.3.2.3.2.3.2.3.4.4.4.4.4.4.4.4.4.4.4.4.4.4.3.] , * , * , * w q % # # @ + @ # % ",
"q i u e 0 i d k A A A H A V > ] 3.2.4.4.4.4.4.4.3.2.3.2.3.2.3.2.4.4.4.4.4.4.4.4.4.4.4.4.4.4.2.3.+.B l l A d k k , % * 6 6 9 q q ",
"e q e q d A G k d i d A k N X.4.4.4.4.4.4.4.4.4.2.3.3.2.2.3.2.3.4.4.4.4.4.4.4.4.4.4.4.4.4.4.4.4.3.%.d d d d s s # # * 0 q 0 , * ",
"6 q e q G G H G d A A c D { $.3.4.4.4.4.4.4.4.4.3.3.2.3.3.2.3.2.4.4.4.4.4.4.4.4.4.4.4.4.4.4.4.4.3.$.| B d d q q # # * 0 , * * 0 ",
"# # % 8 u d d i e 4 e i Z #.2.4.4.4.4.4.4.4.4.4.3.2.3.2.2.3.2.3.4.4.4.4.4.4.4.4.4.4.4.4.4.4.4.4.3.2.#.< u q % # + + @ @ @ @ # # ",
"O @ % q u i i e 4 % * t ) 2.3.4.4.4.4.4.4.4.4.4.2.3.2.3.3.2.3.2.4.4.4.4.4.4.4.4.4.4.4.4.4.4.4.4.4.4.4.3 , * # @ + + + + + # # O ",
"% q A H H A A A A u G *.2.3.4.4.4.4.4.4.4.4.4.4.3.2.3.3.2.3.4.3.4.4.4.4.4.4.4.4.4.4.4.4.4.4.4.4.4.4.4.2.3 6 6 9 6 % % * * * # @ ",
", s G H H H H A G A k ' 1.2.4.4.4.4.4.4.4.4.4.4.2.3.2.2.3.2.4.4.4.4.4.4.4.4.4.4.4.4.4.4.4.4.4.4.4.4.4.4.' 0 q q q 4 & , 9 6 & # ",
"& d G G H H H A H A Z o.3.4.4.4.4.4.4.4.4.4.4.4.4.4.4.4.4.4.4.4.4.4.4.4.4.4.4.4.4.4.4.4.4.4.4.4.4.4.4.3.} m i q q 8 * , * * % @ ",
"# 6 i k s i s d A A | #.4.4.4.4.4.4.4.4.4.4.4.4.4.4.4.4.4.4.4.4.4.4.4.4.4.4.4.4.4.4.4.4.4.4.4.4.4.4.4.3.#.3 , * 4 % # % # @ @ O ",
"% * 8 , * * 9 u u V +.3.4.4.4.4.4.4.4.4.4.4.4.4.4.4.4.4.4.4.4.4.4.4.4.4.4.4.4.4.4.4.4.4.4.4.4.4.4.4.4.4.3.} % % # @ O O + + + @ ",
"i p 0 % @ * u i u a +.3.4.4.4.4.4.4.4.4.4.4.4.4.4.4.4.4.4.4.4.4.4.4.4.4.4.4.4.4.4.4.4.4.4.4.2.4.4.4.4.4.3. .% # O # * 4 q 0 0 k ",
"G d u 0 q e d A d a o.3.3.4.4.4.4.4.4.4.4.4.4.4.4.4.4.4.4.4.4.4.4.4.4.4.4.4.4.4.4.4.4.4.4.4.4.4.4.4.4.4.3. ., * # # u u i d d A ",
"d d u e u i k G V y X.3.4.4.4.4.4.4.4.4.4.4.2.4.4.4.4.4.4.4.4.4.4.4.4.4.4.4.4.4.4.4.4.4.4.4.4.4.4.4.4.4.3. ., 0 * , s i d A A A ",
"u i e 8 , 0 i d u , } 3.4.4.4.4.4.4.4.4.4.4.4.4.4.4.4.4.4.4.4.4.4.4.4.4.4.4.4.4.4.4.4.4.4.4.4.4.4.4.4.4.3. ., 0 * q i i q q i i ",
"4 6 8 * # # * 6 , >  .3.4.4.4.4.4.4.4.4.4.4.4.4.4.4.4.4.4.4.4.4.4.4.4.4.4.4.4.4.4.4.4.4.4.4.4.4.4.4.4.4.3. .> 0 * * q i , * * 4 ",
"o o @ # $ % * = , ; ..3.4.4.4.4.4.4.4.4.4.4.4.4.4.4.4.4.4.4.4.4.4.4.4.4.4.4.4.4.4.4.4.4.4.4.4.4.4.4.4.4.3...> , i q q d , * # o ",
"X o # * 8 q u q 9 , ..3.4.4.4.4.4.4.4.4.4.4.4.4.4.4.4.4.4.4.4.4.4.4.4.4.4.4.4.4.4.4.4.4.4.4.4.4.4.4.4.4.3...< s k k d G p 0 % O ",
"o @ % * 8 q u i q t ..4.4.4.4.4.4.4.4.4.4.4.4.4.4.4.4.4.4.4.4.4.4.4.4.4.4.4.4.4.4.4.4.4.4.4.4.4.4.4.4.4.3.O.m A l A k A k q * + ",
"O @ @ % * , 9 u q 8 o.3.4.4.4.4.4.4.4.4.4.4.4.4.4.4.4.4.4.4.4.4.4.4.4.4.4.4.4.2.4.4.4.4.4.4.4.4.4.4.4.4.3.o.s A A A d u u 0 % O ",
"o @ # # * , * q q 7  .4.4.4.4.4.4.4.4.4.4.4.4.4.4.4.4.4.4.4.4.4.4.4.4.4.4.4.4.4.4.4.4.4.4.4.4.4.4.4.4.4.1.o.i i i q 9 4 4 , * O ",
"o O o o O $ 0 w q e o.3.4.4.4.4.4.4.4.4.4.4.4.4.4.4.4.4.4.4.4.4.4.4.4.4.4.4.4.4.4.4.4.4.4.4.4.4.4.4.4.4.3.o.0 # # # # @ % * % @ ",
"* # # # # 9 i A V A { $.4.4.4.4.4.4.4.4.4.4.4.4.4.4.4.4.4.4.4.4.4.4.4.4.4.4.4.4.4.4.4.4.4.4.4.4.4.2.4.4.$._ u , @ $ 6 * , 0 0 * ",
"u 6 * * 9 A H H G G M o.4.4.4.4.4.4.4.4.4.4.4.4.4.4.4.4.4.4.4.4.4.4.4.4.4.4.4.4.4.4.4.4.4.4.4.4.4.4.4.4.} n d u $ = i i p d l l ",
"d 9 * 4 u A H H G G k ' 4.4.4.4.4.4.4.4.4.4.4.4.4.4.4.4.4.4.4.4.4.4.4.4.4.4.4.4.4.2.4.4.4.4.4.4.4.4.2.2.' s A e # % i i d A d d ",
"d 9 % # 9 k A G H H k ' 2.4.4.4.2.4.4.4.4.4.4.4.4.4.4.4.4.4.4.4.4.4.4.4.4.4.4.4.4.4.4.4.4.4.4.4.4.4.4.2.&.k u q * % 6 6 i l l d ",
"6 , @ o # 8 q i i u * > 1 2.2.4.4.4.4.4.4.4.4.4.4.4.4.4.4.4.4.4.4.4.4.4.4.4.4.4.4.4.4.4.4.4.4.4.4.4.2.2 y q 4 # * 4 = % * * , 6 ",
"* 6 * & $ e u u i i 0 6 < #.2.4.4.4.4.4.4.4.4.4.4.4.4.4.4.4.4.4.4.4.4.4.4.4.4.4.4.4.4.4.4.4.4.4.4.2.#.n q s q 4 q u e , q 0 * # ",
", s H A i A A A l d A A S | 2.4.4.4.4.4.4.4.4.4.4.4.4.4.4.4.4.4.4.4.4.4.4.4.4.4.4.4.4.4.4.4.4.4.3.2.| D l d A H G G H G H G 9 @ ",
"* i d k d A A k G d d d A S O.2.4.4.4.4.4.4.4.4.4.4.4.4.4.4.4.4.4.4.4.4.4.4.4.4.4.4.4.4.4.4.4.4.4.O.S G k d u A A d A G G l q * ",
"* i A A l l d k k A d V G A C +.3.4.4.4.4.4.4.4.4.4.4.4.4.4.4.4.4.4.4.4.4.4.4.4.4.4.4.4.4.4.4.3.+.B G H G A A A G H G H H G a 4 ",
"@ # 8 q q 0 * , & , * 6 u e 8 < } 3.4.4.4.4.4.4.4.4.4.4.4.4.4.4.4.4.4.4.4.4.4.4.4.4.4.4.4.4.3.} , & , u u u s u u q q d u 8 % # ",
"# % * 6 9 e 6 * , & , * w 6 % 6 Z +.2.3.4.4.4.4.4.4.4.4.4.4.4.4.4.4.4.4.4.4.4.4.4.4.4.4.3.4.o.M q 4 , q e e i u 6 * 9 a e 8 % % ",
"0 i i q p G A d A G G A k 0 * q G D %.$.4.4.4.4.4.4.4.4.4.4.4.4.4.4.4.4.4.4.4.4.4.4.4.4.$.O.y l H G k l d i A A 9 8 i V G d i u ",
"i d i u w p d u i d A d i q 9 s A A S | #.2.4.4.4.4.4.4.4.4.4.4.4.4.4.4.4.4.4.4.4.4.4.#.| C u d G d k k d d A H u u s k A V i i ",
"s s a 9 , 9 u d i s d k k 0 , q k A G D F =.2.4.3.4.4.4.4.4.4.3.4.4.4.4.4.4.3.3.1.2.' Z S G u d 6 X o o o + A A i u d A A A i a ",
"q , % @ + @ % * 4 * , * # # # # % 4 u i q t 3 ' [ $.3.3.3.3.3.3.4.1.1.1.1.1.2.,.6.q.Y h # # @ # o .     9 K i i 4 4 u a 9 6 6 * ",
"& @ O o o o O # % # & # @ @ @ @ # = 6 9 * % 9 9 < _ o.X.X...%.%.-.;.:.,.>.>.<.9.y.r.a.f   .             8.s.d u 4 4 u i , & , = ",
"# @ @ # % % * 8 q q i q * , 0 q i V u u * $ 9 8 u a u e e r F q.q.w.0.i.y.y.y.u.r.u.a.j                 8.s.H H G G H G A d l p ",
"e q u e 6 4 9 e e q * q p u s d V u e q * # 8 q q q u u i a J t.t.t.t.y.r.r.r.r.r.a.a.j                 8.s.G G H H G H G H G p ",
"u i k k 0 , q d u a q d k d q a d i u = + @ 9 q q q i q s s I r.r.r.r.r.r.r.r.r.r.r.p.f                 8.d.H H H H H G H H H d ",
"e q 0 * * * 6 q 9 9 0 i u u q q u u q @ o + * 4 8 9 * * 8 q v ^ e.r.r.r.r.r.r.r.p.e.R & X O O o X       0 7.p k d i d q q q u q ",
"9 9 % @ # % & * * % % * , q e q u u 6 # O + $ # * % % # $ , i I / a.r.r.r.r.r.r.p./ w @ = u q 0 % o X . . o , 0 , * % # % * = , ",
"u 9 % o o + # , q 9 , * q s e u d d A u 9 9 9 8 * % * * * * q d ! e.r.r.r.r.r.r./ L i u A k , * q q 9 * * * u u & # # # * * * * ",
"q e , & * 0 q a d d d u i d q d A d A A k V V d q q q 8 e u s i z L Q a.a.u.u.~ v l d A H l * 0 A k d i u s d i * , 9 q 0 q q e ",
"u e 4 * * k A A d d A A i q 6 u V V A G A A G A u s V u i i i u u i x L L U U J d k d G A G e i A A V A A A A d q 9 q u i q q s ",
", 4 * % * q i a d d A q * % @ * i V d A A A A V s i s u 9 9 9 9 e u 6 = , u a e u i i k k i 0 i A A V A d d i 0 * * 0 9 q * , * ",
"# % % % , * * 9 u d s * O o X # e i i i s i i i u u u 9 % $ % = 8 u w * * e 9 4 % # 4 q * , , q d d d i q 6 * @ @ % * * * % # % "
};
