/* XPM */
static char *result[] = {
/* columns rows colors chars-per-pixel */
"64 64 256 2 ",
"   c black",
".  c #010101",
"X  c #020202",
"o  c gray1",
"O  c #040404",
"+  c gray2",
"@  c #060606",
"#  c #070707",
"$  c gray3",
"%  c #090909",
"&  c gray4",
"*  c #0B0B0B",
"=  c #0C0C0C",
"-  c gray5",
";  c #0E0E0E",
":  c gray6",
">  c #101010",
",  c #111111",
"<  c gray7",
"1  c #131313",
"2  c gray8",
"3  c #151515",
"4  c #161616",
"5  c gray9",
"6  c #181818",
"7  c #191919",
"8  c gray10",
"9  c #1B1B1B",
"0  c gray11",
"q  c #1D1D1D",
"w  c #1E1E1E",
"e  c gray12",
"r  c #202020",
"t  c gray13",
"y  c #222222",
"u  c #232323",
"i  c gray14",
"p  c #252525",
"a  c gray15",
"s  c #272727",
"d  c #282828",
"f  c gray16",
"g  c #2A2A2A",
"h  c gray17",
"j  c #2C2C2C",
"k  c #2D2D2D",
"l  c gray18",
"z  c #2F2F2F",
"x  c gray19",
"c  c #313131",
"v  c #323232",
"b  c gray20",
"n  c #343434",
"m  c #353535",
"M  c gray21",
"N  c #373737",
"B  c gray22",
"V  c #393939",
"C  c #3A3A3A",
"Z  c gray23",
"A  c #3C3C3C",
"S  c gray24",
"D  c #3E3E3E",
"F  c #3F3F3F",
"G  c gray25",
"H  c #414141",
"J  c gray26",
"K  c #434343",
"L  c #444444",
"P  c gray27",
"I  c #464646",
"U  c gray28",
"Y  c #484848",
"T  c #494949",
"R  c gray29",
"E  c #4B4B4B",
"W  c #4C4C4C",
"Q  c gray30",
"!  c #4E4E4E",
"~  c gray31",
"^  c #505050",
"/  c #515151",
"(  c gray32",
")  c #535353",
"_  c gray33",
"`  c #555555",
"'  c #565656",
"]  c gray34",
"[  c #585858",
"{  c gray35",
"}  c #5A5A5A",
"|  c #5B5B5B",
" . c gray36",
".. c #5D5D5D",
"X. c gray37",
"o. c #5F5F5F",
"O. c #606060",
"+. c gray38",
"@. c #626262",
"#. c gray39",
"$. c #646464",
"%. c #656565",
"&. c gray40",
"*. c #676767",
"=. c #686868",
"-. c DimGray",
";. c #6A6A6A",
":. c gray42",
">. c #6C6C6C",
",. c #6D6D6D",
"<. c gray43",
"1. c #6F6F6F",
"2. c gray44",
"3. c #717171",
"4. c #727272",
"5. c gray45",
"6. c #747474",
"7. c gray46",
"8. c #767676",
"9. c #777777",
"0. c gray47",
"q. c #797979",
"w. c gray48",
"e. c #7B7B7B",
"r. c #7C7C7C",
"t. c gray49",
"y. c #7E7E7E",
"u. c gray50",
"i. c #808080",
"p. c #818181",
"a. c gray51",
"s. c #838383",
"d. c #848484",
"f. c gray52",
"g. c #868686",
"h. c gray53",
"j. c #888888",
"k. c #898989",
"l. c gray54",
"z. c #8B8B8B",
"x. c gray55",
"c. c #8D8D8D",
"v. c #8E8E8E",
"b. c gray56",
"n. c #909090",
"m. c gray57",
"M. c #929292",
"N. c #939393",
"B. c gray58",
"V. c #959595",
"C. c gray59",
"Z. c #979797",
"A. c #989898",
"S. c gray60",
"D. c #9A9A9A",
"F. c #9B9B9B",
"G. c gray61",
"H. c #9D9D9D",
"J. c gray62",
"K. c #9F9F9F",
"L. c #A0A0A0",
"P. c gray63",
"I. c #A2A2A2",
"U. c gray64",
"Y. c #A4A4A4",
"T. c #A5A5A5",
"R. c gray65",
"E. c #A7A7A7",
"W. c gray66",
"Q. c #A9A9A9",
"!. c #AAAAAA",
"~. c gray67",
"^. c #ACACAC",
"/. c gray68",
"(. c #AEAEAE",
"). c #AFAFAF",
"_. c gray69",
"`. c #B1B1B1",
"'. c #B2B2B2",
"]. c gray70",
"[. c #B4B4B4",
"{. c gray71",
"}. c #B6B6B6",
"|. c #B7B7B7",
" X c gray72",
".X c #B9B9B9",
"XX c gray73",
"oX c #BBBBBB",
"OX c #BCBCBC",
"+X c gray74",
"@X c gray",
"#X c gray75",
"$X c #C0C0C0",
"%X c #C1C1C1",
"&X c gray76",
"*X c #C3C3C3",
"=X c gray77",
"-X c #C5C5C5",
";X c #C6C6C6",
":X c gray78",
">X c #C8C8C8",
",X c gray79",
"<X c #CACACA",
"1X c #CBCBCB",
"2X c gray80",
"3X c #CDCDCD",
"4X c #CECECE",
"5X c gray81",
"6X c #D0D0D0",
"7X c gray82",
"8X c #D2D2D2",
"9X c LightGray",
"0X c gray83",
"qX c #D5D5D5",
"wX c gray84",
"eX c #D7D7D7",
"rX c #D8D8D8",
"tX c gray85",
"yX c #DADADA",
"uX c gray86",
"iX c gainsboro",
"pX c #DDDDDD",
"aX c gray87",
"sX c #DFDFDF",
"dX c gray88",
"fX c #E1E1E1",
"gX c #E2E2E2",
"hX c gray89",
"jX c #E4E4E4",
"kX c gray90",
"lX c #E6E6E6",
"zX c #E7E7E7",
"xX c gray91",
"cX c #E9E9E9",
"vX c #EAEAEA",
"bX c gray92",
"nX c #ECECEC",
"mX c gray93",
"MX c #EEEEEE",
"NX c #EFEFEF",
"BX c gray94",
"VX c #F1F1F1",
"CX c gray95",
"ZX c #F3F3F3",
"AX c #F4F4F4",
"SX c gray96",
"DX c #F6F6F6",
"FX c gray97",
"GX c #F8F8F8",
"HX c #F9F9F9",
"JX c gray98",
"KX c #FBFBFB",
"LX c gray99",
"PX c #FDFDFD",
"IX c #FEFEFE",
"UX c white",
/* pixels */
"f z S T R J K T Q ( ) Q H M Z U Q U B k l Z T L R ` { W Z N B C J W Q R Y P x q 5 7 7 k L R W ! ~ ! ~ ) Q H B A U R I H c t 7 7 ",
"i n T ` ' ) / _ ] ] [ { ' ! / ` ' ( I M g c E ^ ` ' / Q Y U Y T ! / ( ( ( ! I B g d 0 h T ] [  ...} {  .| ' ^ ^  . .) ) I v y 9 ",
"p N W ' ` { }  .X. . .X...}  . . .{ ) Y n k H ) } ` ! E W Q ^ _ ' _ _ ' [ _ ) Q K D s b ^ ..o.#.#.O...#.+...} _ } ..}  .^ F j q ",
"f n G I Y Q ` } | } { ] ] ' {  . .} [ ^ S j j L ^ / E P L P T ^ ) ) _ _ ' ` _ ( / Q V J ] | +.o. .| { ..[ ( ^ T I E _ ] Q D j q ",
"d k z v A Z K ! ) _ ~ ^ _ ' ] |  .{ / F x i 0 s Z P J S A V A P T ~ ( ~ Q ] ' / ~ R U ! [  .O.` ~ / ! W Y I L J S S L Q R N u 8 ",
"f p u p f b b n S W T U E ^ T _ } ^ G n k p w u i z Z n l c m B K ~ R J E _ [ ] / I Q _ ) Y J A N M V V Z Z M b j u r d v b j p ",
"c x f i j J Y Y E ) / ^ ( ^ S ! ..} _ ) Y S Z Z f l K P L E Q R { o.) Y ` X.o.X.| ) _ { _ D v G T L P T ~ ~ T I V c b D G G A N ",
"D B j p c T [  .{ [ ' ] ] ~ B W O.+.%.-.O.` ^ W M Z ) [ } +.@.X.*.=. .~ _ #.@.o.O...[ [ ) D l I ] ( / ' o.@. .| E U ( } _ ~ W E ",
"U M a i z G Q ` ] ] ` ` _ ! Z ~ O.X.@.@.@.../ W F P {  .X.+.$.#.@.$. .Q T  ...{ { { [ _ ~ I v H ~ Q Q (  .+...+.^ ! | | ] ` ` ' ",
"V N k a c M F Q } o. ...| / U _ O.O.+.@.O.[ / _ Y S H [ @.#.@.%.*.*...~ E ..' W Q E ` _ ~ ^ L ! ` / ^ [ [ { O.@.^ !  .} ' ( ~ W ",
"f i e w y y f N Y / _ ' ~ G T Q E T / ] ` P l z f i k U ' [ ` ` } [ T A K T Z l h s l k f j B J D c v G G Z H ^ R U E E Y Y H n ",
"t y p a s k Z Y / ] ] ' / Y _ ) ! ~ ' } ~ D b x b M S Q ' { ] _ ' ' W I ^ T F A S v a f x v J E L N C D F H U ^ ^ ! W E ~ ! J x ",
"p b Z C C I [ #.$.%.O.| } } O.....+.@.+.^ I / Q / _ `  .| o.O.| } | } | o._ ) } X.( C G ^ ~ ' } ' / ' ! ~ ] } ] { { ' _ [ ] T N ",
"z I ~ T U Q ] o.#.$.+. .} | X.}  .@.#.o._ ^ } | ` ( _ ] ) [  .} [ [ { | | ` ' ] ] { R Q ' ( ] ] ' [ { [ [ ] ) ) ' ' _ _ E T J n ",
"A ` ..( W ! ] ..o.@.X.X.X. .X.o.%.,.:.;.X.` | { ' _ / K J ~ } { } { { { { ] _ ` [ ' T ! { ` ^ ' { ] ] _ ' ] ` ` ) Q U H v g h l ",
"G Y L A G n N Y ] ] ( W E ^ / _ ] { |  .( W ^ Y S n l d d x F R H Z B S T L A C A V b H ^ W E W U G H G K Y W T S M n f w 0 i k ",
"I U F C H m B Y } [ ` ~ ! / L Y Q ! ( ( ! W E D l i i k c m G E C m c v F D V V C b B P ! R E ~ W P P P I R ~ Q C v b h f k m A ",
"~ ' ` ^ ) ] } X.+.o.@.%.%. .Z K / _ ' _ ` ' / L m b F Q _ [ | { R W I Z S U Q / ) W ` { ' / T [ #.+.O..... .| ..U S J K T W ! ^ ",
"! / ~ ^ } #.#.X.{ [ X.+.o._ x F ( / ~ ( ) ) ( ! J U ] | | { ' ) / Q G v n I ^ ( ) { { { ' E Z Q | { | ....| ' } Z n Y W / ~ E W ",
"T ! ~ ( o.&.*.@.| o.@.%.$.' b m K Q ( ` _ ( ^ ) R ) %.+. .[ ) ^ ` R B k m W ` ] { | } } ! m n Q X. . .....} _ ( N c J Y Y D A I ",
"v b Z T ` } | ' W U Q [  .! j i h B U U F N C R Y ^ o.| _ ( R Z N c p y m U I G L ( ` ! C y k H U K ~ _ ` ! S n s p k z l z v m ",
"s h Z Q ` ' ` / U V L ) ] W M j j M K m p e d H U Q ` ` ^ ~ U n g j d f A L D M C ( / I B j m S V M T ~ Q K b h s a a d d x c s ",
"A / +.*.=.$.@.+.X._ O.%.+.| | ' ` { _ x q r x J ~ _ ` ] ` ) / ~ Q ! E Y R Q ^ ~ ( O.( ! ( ^ Q Q W ! ` ] ! U R Q I S Z K K H N f ",
"L } &.%.=.&.%.@.O.%.$.$.%.#.@.&.-.%.} I h i A ^ _ _ ' | ` _ ` ' { ` ) ~ U ^ _ ` ] ` P W { ` / ) _ ` { [ ' ( ~ ) ^ I F U R P S M ",
"H [ &.&.-.=.%.$.$.%.&.*.&.&.=.:.;.#.[ ( C s c G W ! Q ] ) ^ ) ] ' ' ' _ ~ ' ] ' _ I M G / W ~ ^ ) ' ] ) ` ] ) / ~ Y J W I G B z ",
"B R ' { } [ } ..o.+.#.O.X.@.%.*.$. .! R n e e f N Z V J L J J U E ! W R Q R E ~ ! D m D I S J K L U U K P R R T I Z c N v k f p ",
"Z K U K D H Q ) _ X.| ' _ } | O.@.{ I S h 9 6 8 r a g g M N m V I T H A J D K E Q I U T G j v m N V V n M C C A m h i i f s d z ",
"{ { ^ D l H ( ] _ [ { [ [ [ ~ X.*.X./ Y S c s q 5 i n x D Y Y I ' ] U V J (  .X...@.@...L q g N H Y I D H K N b a z L L ~ W Q } ",
"o. ._ ! ! ~ } +.o.o.| | o.o.[ +.*.$.&.$.[ P N N g x J K E ( _ ) X. .T N D ( #.;.:.2.1.*.` C A G I W W W ! ~ E J z B ( _ }  ...O.",
"..} _ ~ ( ] o.@.o.X.X.+.@...~  .=.=.;.,.#.` ~ R m m U Q [ .. .| o.O.) K L ` %.>.>.>.-.*.#.{ Y I E ! / ` ' ` _ ~ J U { {  .o.O.o.",
"' ' ^ U K W ' { ' ' ` ` / T V R | | { O.} ( _ E S F W / X.o.| [ ` | ' T K ! { +.%.*.%.%.@.` V F Q ) ^ _ ] ' / ! Y Q ] [ ( ( ' [ ",
"L Y U G V N J E R E L S N c j V L J F Y J B V C K Q _ ] } } _ W L E Q P C S I /  .=.*...W b e b Q ) Y W ( ) ! P K Y ( [ L D H K ",
"8 q g B B S F F H P W T J J U T R U C n s q q e g J | O...X.] P H U _ | / I R / ` ] Y m g z A U U J P ! ^ ^ ) ! ( ( ( | R H n e ",
"3 q x J I ^ ( / / ( _ ^ Q ~ / ( ' } ^ K g 0 s z F ( @.#.O.O.O.| { [ X.#.| { |  .' Y c k M G { +. .' } X... ...| ..} { @.{ ~ Z y ",
"e d M J T ^ ` ] [ [ ] ` _ ] ) ( [ o. .Q x s F P ^ | @.#.o.+.$.&.$.@.+.O...X. .' R n y k J R ' #.=.&.$.o.O.#.#.@.@.O.o.O...) S s ",
"p l b B K P E ( ) / / ( ` ] _ / ) [ ] R b v / _ ` ' { O.X.#.$.o.X.O. .] ' ) R F n r 7 a B H T } &.&.X.' } +.+.+.O.o.| ` ) ! A u ",
"w h x v S J Q ) ^ U F P ~ ~ ) ( ) _ ( T A S ( | ' W E ] O.*.#.` ` ] ( Y H D n h s 8 4 8 y x ( +.#.o.( ` } | } { ` ^ R K L Q H t ",
"e y t w p B R / ~ ! D x h z F R ! Q / ~ ~ ~ Q P n a g P [ o. ./ D J Z f e r z A Z x z k j M ! ' ] ( K Q _ ) W N x m N z Z H C l ",
"S m x c n E } X. .X.' E K J Y '  .{ ] ' | X.} ~ c s B / ..@.+.} T ! G p 9 k D Y E Q / ! Y E _ }  .| _ ( _ ' ( K c M I H Y Q Q R ",
"` Y J I W X.=.=.$.&.&.#.@.o._  .#.O.| | o.#.#...S M W o.$.%.%.+.{ | I d s F Y W ( { #.@.} ` ] o.#.#.@.{ ] | ..) B S [ ] ] | ..| ",
"{ Q J L ) O.*.*.#.#.@.+.@.#.~ _  . .| X.o.o.O. .G N T X.%.#.O.@...{ S u z D L E ` [ X. ._ ! ! [ o.X. . .| ..X.! b A [ [ | ....} ",
"| W B n W X.#.&.;.&.X. .X.{ L W  .+.o.| {  .+.} B d B ' $.$.#.&.=.) v 0 a B J W [ O.' T K I A R ] ] [ ..O.X.[ / G S U W [ o.O...",
"U H k r x U ~ _ { ' Y J L K c b F U Y m b L _ R n s h D ~ ' [ { } P c d s a f k n K B x z x h M F S C P _ ` K m F K A V H P I Y ",
"G R Y A A ! ) _ ] _ Q R Q ~ I H P W Q D n F } ' ! P L ~ [ { }  .| ! R E H B v z l v a g B S G L T Q R ~ ' ' ! I ^ ' ~ T ! ! J v ",
"P { %.O.] @.O.X.+.| ..O.#.&.%.X. .O.o.X.W T $.&.=.%.#.>.>.&.%.=.#.o.#.&.} ] ! I G m p c T / } ..+.*.-.%.X. .O.%.#.#.%.$.*.#.W z ",
"I ` X. .} +.X.o.%...} ..@.#.@.+.+.+.o.+.) Q ..o.$.%.%.,.;.;.:.-.+.+.#.O.'  .' ~ W D h n I L / X.#.+.%.@.X.{ ] +.o...+.%.%.X.^ H ",
"F ` @.@.@.@.X...o.O...X.+.@.+.#.#.@.%.&.} ( { O.%.*.=.:.$.-.,.-.@.$.&.$.%.%.X.) R L s f Z F Y | $.@.+.%.#.o.o.@.%.%.$.%.&.$.' L ",
"l V U ~ ^ ! I J K H H T / ! Q ) ) Q ` { ` ^ ! T W ( [ ..[  .] L G ~ ~ J D S C S K B y u j g B ! ^ P T ) ` _ ] ' ) ^ / { ` R A v ",
"v C J Y W ^ Y J P J L R ! U A W ' ^ _ ] { { _ R P T ( } _ [ / Z Z W T m j c N K ~ P B C D B H ( ( P U / ^ ! ' ` U J E ' ) I A B ",
"E [ [ ( } $.o.| o.@.#.O.{ ^ S _ -.*.$.#.$.&.%.#.` ( | o.{  . ._ ` | ] R P /  .@.#.%.X...+.O.{ @.*.@. .+.| ] o.O.W T ] X.+...] ` ",
"} | ' ^ ) [ { ] ]  .O.X.[ / W [ @.@.#.+.X...O.+._ / [ ' { { ' ` [ [ ) ) o.O.@.+.X.&.&.+. .| _  .+.o.o.@.+.o.X.#._ ^ | X.O...{ [ ",
"[ } ' W K E ' | [ [  .X.{ ! Y _ X.o.#.%.-.=.#.+.~ R ) { | } | ..X. .[ | =.;.*.@.+.=.O...O.O./ { O. . .%.@...+.%.] )  .o.O...[ ' ",
"! U Z l a g B J K H L G V M c N D L ) ] ' ` ] } E C v C K ! _ ( ) ^ T R { { ^ ~ ] ' / _ } { T ! ` _ ( [ { [ { [ P L ) ' E T Y K ",
"D x u q w w a v Z C Z b g j h l n S T E G A R ~ ! A f h C R ^ E W R K J Q ~ L K ! I K P Q ] ~ ^ ` ' ( ( ] { ' _ L L _ ' L K P G ",
"n k l M Z A D U ( ( ( ^ E I E ( } ..) ) G B E R _ [ ( Q ` } } { { ] [ [ ` ..] ) _ I C V T %.*.*.*.&.#.$.$.#.#.&.$.$.&.%.X.o.o.} ",
"! ( ) Q P I W ^ ~ Q T Q _ ` '  ...` Q ( G m T ~ ~ / _ _ { | ..X.{ ] [ } { _ ' { ) F N R +.%.o.+.&.&.$.%.%.#.+.%.*.&.$.*.$.&.#.| ",
"_ { { ` ~ Y / [ ' ' _ [ ..{ _ ] { [ _ D g z E / / ( _ ( } O.O... .| } { { ' { ....~ G / =.$.%.$.#.#.$.=.=.&.&.-.=.=.=.%.%.=.%. .",
"~ ( ! Y U K R ^ Q E R ^ ` _ ^ / _ ' ~ j 8 p H K T R L H T _ { _ ^ W R E ! ^ ( ) _ Q C D /  .+...{ ] ^ ` ] ' ] o.} [ [ / ( _ ) / ",
"W W G x z M S H G C V F T ^ ! ^ _ ) R b p f B M D A b b N P ! T G V n v B G T E U G v x F ` ^ Q ~ Q S A G K P ~ U S C M V Z F L ",
"_ E m e 9 d B U / W W ! ) { ~ _ | ..o._ E R W I F S F F P ~ ( E U I n r p B ( O.} ~ R _ +.o.L U ( ` / U K Y ( _ K m b M S H I E ",
"/ ~ I A A T ( ] | } { ' ' | _ | O.X.+.O.X. ...| ^ ~ ( E ~ ` ] _ ^ / J v D !  .@.o.} [ O.=.+.J ^ O...{ ' _ '  .[ Q Y W ! ^ ! ! ) ",
"_ Q I L T [ O.O... .O...] ^ P ) o...o.#.#.@.$.@.] ' | ` ] ] ' ' ` ` U Z I } X.X.@.O.X.+.%.@.Q [ #.O.X.O.O.O.O.| ! E / ) ] ) ( [ ",
"E P D D T ^ ' { } | X._ L N h H ] | | o.O.X.X.X.] ' { _ ! E E W ^ ) R G P ] ' / _ ( ` } | ' ~ [ o.X.X.o...} ` E F H R R Q Y U W ",
"N Z V C R G G R ' | [ G p q 7 n ! ' ' [ { [ ' [ ' ` _ W C B S D I ( ~ I Y ~ E J Z B I / Q G J (  .|  .{ ( R G l h N P K F M b M "
};
