/* XPM */
static char *result[] = {
/* columns rows colors chars-per-pixel */
"64 64 152 2 ",
"   c #000001",
".  c #0C0C0C",
"X  c #141414",
"o  c #1C1C1C",
"O  c #242424",
"+  c #282724",
"@  c #292824",
"#  c #2C2C2C",
"$  c #32312F",
"%  c #38342E",
"&  c #202533",
"*  c #343434",
"=  c #3B3B3B",
"-  c #4D4336",
";  c #45433F",
":  c #514739",
">  c #3E3F40",
",  c #373B49",
"<  c #383D4B",
"1  c #2C3551",
"2  c #393E50",
"3  c #353E58",
"4  c #203166",
"5  c #22346D",
"6  c #273A74",
"7  c #2B3F7C",
"8  c #3B445E",
"9  c #3C4460",
"0  c #30437D",
"q  c #394A7F",
"w  c #444444",
"e  c #4A4946",
"r  c #464749",
"t  c #47484B",
"y  c #4C4C4C",
"u  c #514D47",
"i  c #504F4B",
"p  c #53524E",
"a  c #5C554C",
"s  c #4D4E52",
"d  c #454A5A",
"f  c #494D5C",
"g  c #4F5053",
"h  c #545454",
"j  c #585653",
"k  c #595856",
"l  c #565659",
"z  c #57585B",
"x  c #5B5B5B",
"c  c #695B48",
"v  c #735F46",
"b  c #625A50",
"n  c #6A5F52",
"m  c #605F5D",
"M  c #62605D",
"N  c #6C655C",
"B  c #776650",
"V  c #7B6A54",
"C  c #424A64",
"Z  c #464F6A",
"A  c #4C5261",
"S  c #4A526C",
"D  c #535762",
"F  c #565A66",
"G  c #5E5F61",
"H  c #555A6B",
"J  c #595E6D",
"K  c #4C5571",
"L  c #565D76",
"P  c #595E70",
"I  c #5A5F78",
"U  c #5C616D",
"Y  c #5D6272",
"T  c #5E627A",
"R  c #636363",
"E  c #6B6864",
"W  c #686868",
"Q  c #746D62",
"!  c #7B7166",
"~  c #7D7369",
"^  c gray48",
"/  c #84735C",
"(  c #8C785D",
")  c #817566",
"_  c #857867",
"`  c #8A7964",
"'  c #877A68",
"]  c #8A7C6A",
"[  c #95836D",
"{  c #9D886F",
"}  c #9F8B72",
"|  c #948479",
" . c #9E8C7F",
".. c #A38866",
"X. c #A28A6C",
"o. c #A38F75",
"O. c #B29671",
"+. c #B69A75",
"@. c #C4A47B",
"#. c #CBA97E",
"$. c #223D8F",
"%. c #324787",
"&. c #3A4C84",
"*. c #364B8C",
"=. c #3B4E89",
"-. c #2B4799",
";. c #2E4999",
":. c #394F91",
">. c #314C9C",
",. c #3C5294",
"<. c #2E4DAA",
"1. c #324EA3",
"2. c #304FA9",
"3. c #3551A6",
"4. c #3552AC",
"5. c #3955AA",
"6. c #2549B5",
"7. c #2B4EB6",
"8. c #3654B2",
"9. c #43558C",
"0. c #465791",
"q. c #415FBF",
"w. c #4561BE",
"e. c #4D65BB",
"r. c #5C6EB6",
"t. c #556AB8",
"y. c #7079AE",
"u. c #274FC6",
"i. c #294FC4",
"p. c #244ECA",
"a. c #2950C4",
"s. c #2750CB",
"d. c #2850C8",
"f. c #3055C5",
"g. c #7E82A9",
"h. c #848484",
"j. c #8C8C8C",
"k. c #A1959C",
"l. c #AE9D98",
"z. c #8C89A4",
"x. c #9990A0",
"c. c #D0AD80",
"v. c #D5B183",
"b. c #DCB686",
"n. c #DEB887",
"m. c #D4B28B",
"M. c #DAB688",
"N. c #DFB988",
"B. c #C6AA90",
"V. c #E1BA87",
"C. c #E1BA88",
"Z. c gray86",
/* pixels */
"# # = y y w w y y h h y w * = y y r = $ # = r w y h x y = * = = ; y y e r w $ o X o X $ w t y s g g i h y > = = r e w > * O X o ",
"O * y h h h p h h h z z h i h h h h w * # $ y g h j h y r r r e i g h h h i w = # + o # r k k x x k k x x l g i x x h h r $ o o ",
"O * y h h z z x G x x m x x z x x x h r * # w h x j y y y i i h l h h h k h h s w > + * h m G R R G G R G m k l x m k x g > $ o ",
"# * ; r y y j z x x z k k j z x x x k i = # # w g g y w w r r g h h h h k h h g g y = > l k R m x x k m k h g e r y h k i > # o ",
"+ # # * > = w y h h y i h h j x x z h > * O o O = w w > = = = w r g h i s l l i g r r i k m G l g h i y r r ; > > > w s r * O o ",
"# + O O + * * * = y y r y h y h x i > * # O o O O $ = * # # * = w g e w y h k k h w i h h r > > = * * = = = = $ # O o + * * # O ",
"# # # O # w t y y h h h h h = y m x h h r = = = + $ w w w y y y k G h r l G G G x h h k h > $ > r ; w e i g e r = $ * = ; > = * ",
"> = # O * t h x z k h h h s = y G G W W G j h y * = h k x R R G E W x i h R G m G G k j h > $ w l h g l G R x x e r h x h s y i ",
"r * O O # w y h h z h h h i = s G x R R R x i y = r k z x G G G G G x y e x G k x k z h g r $ ; y y y h z R x x s i x x l h l j ",
"= = # O * * w s z M x G x h y h R x R R G k p h y > w z x A Z Z Z Z f t t G l y y y l h i g w i h h y h x x W W h g x k l h g e ",
"@ O o O O O + * y h h j p = y y y y h j h r # $ 1 7 1.4.4.2.2.<.<.2.2.1.1.5.%.1 # @ # # @ # = > w * * o ^ Z.Z.Z.Z.h.O r e r > * ",
"o O O O O # = y h h h h h r h h i g h k i , 4 5 $.6.s.s.p.s.s.s.s.s.s.s.s.s.6.$.5 4 & @ $ * > y r * = . e j.h.j.j.i . w g s ; $ ",
"O * = = = r j R R W R x z z M x x R R J C 0 i.s.p.d.d.d.d.d.d.d.s.d.d.d.d.d.s.s.s.i.6 3 f i h x h h h o             X y k k t = ",
"* r y r r y k G R R R x z x m x x R U ,.7.i.d.d.p.a.d.d.d.d.d.d.d.d.d.d.d.d.d.d.d.i.i.7.*.A z j h z k X             X y y e > * ",
"= h x h y i z x G R x x m x x R R Y 4.a.i.d.d.d.d.d.d.d.d.d.d.d.d.d.d.d.d.d.d.d.d.d.d.d.i.2.f h z h h X             X > $ # # # ",
"w e w = w * * e z h h y y y h p S 5.d.s.d.d.d.d.d.d.d.d.d.d.d.d.d.d.d.d.d.d.d.d.d.d.d.d.d.d.1.C w w ; # X         . O + o o O # ",
"r r > = > * = r z k h y i h w 8 ;.p.d.d.d.d.d.d.d.d.d.d.d.d.d.d.d.d.d.d.d.d.d.d.d.d.d.a.d.p.s.;.8 ; r e #         X * # O # * = ",
"i h h g h j z m R m R W W x 2 -.s.d.d.d.d.d.d.d.d.d.d.d.d.d.a.d.d.d.d.d.d.d.d.d.d.d.d.d.d.a.s.s.3.H R x *         o w w y y y h ",
"i h y i k R R m z z x R x D 2.i.s.d.d.d.d.d.d.d.d.d.d.d.d.d.d.d.d.d.d.d.d.d.d.d.d.d.d.d.d.d.d.d.a.4.F m *         o y y h y y y ",
"y y g h G W W G z x G R J :.a.d.d.d.d.d.d.d.d.d.d.d.d.d.d.d.d.d.d.d.d.d.d.d.d.d.d.d.d.d.d.d.d.d.s.a.:.J *         X = y e = = r ",
"$ * = y h h Q [ } o.o.' L 7.i.d.d.d.d.d.d.d.d.d.d.d.d.d.d.d.d.d.d.d.d.d.d.d.d.d.d.d.d.d.d.d.d.d.s.i.7.S c v v v v - # # # # * * ",
"+ # = y h N X.c.C.C.V. .0.d.d.d.d.d.d.d.d.d.d.d.d.d.d.d.d.d.d.d.d.d.d.d.d.d.d.d.d.d.d.d.d.d.d.d.a.s.a.=.| C.C.C.n...: % # * * O ",
"> s R R Q @.C.n.N.N.N.z.a.d.d.d.d.d.d.d.d.d.d.d.d.d.d.d.d.d.d.d.d.d.d.d.d.d.d.d.d.d.d.d.d.d.d.d.s.a.d.a.z.C.n.n.n.n.#./ e w * # ",
"w x G ! #.n.V.n.N.M.m.z.d.d.d.d.d.d.d.d.d.d.d.d.d.d.d.d.d.d.d.d.d.d.d.d.d.d.d.d.d.d.d.d.d.d.d.d.a.p.d.p.g.M.n.n.n.n.n.#.n w = * ",
"> h Q { n.n.n.n.n.N.k.t.p.a.d.d.d.d.d.d.d.d.d.d.d.d.a.d.d.d.d.d.d.d.d.d.d.d.d.d.d.d.d.d.d.d.d.d.d.d.a.p.t.k.N.n.n.n.n.n.O.n * # ",
"= t ) @.b.n.n.n.n.M.y.a.p.d.d.d.d.d.d.d.d.d.d.d.d.d.d.d.d.d.d.d.d.d.d.d.d.d.d.d.d.d.d.d.d.d.d.d.d.d.d.s.a.y.M.n.n.n.n.n.V.V + O ",
"= > ` C.n.n.n.n.V.M.r.p.d.d.d.d.d.d.d.d.d.d.d.d.d.d.d.d.d.d.d.d.d.d.d.d.d.a.d.d.d.d.d.d.d.d.d.d.d.d.d.d.p.r.M.C.n.n.n.n.C.B O # ",
"x h [ N.n.n.n.n.n.m.r.p.d.d.d.d.d.d.d.d.d.d.d.d.d.d.d.d.d.d.d.d.d.d.d.d.d.d.d.d.d.d.d.d.d.d.d.d.d.d.d.d.p.r.m.N.n.n.n.n.C.` t G ",
"G z ] #.V.V.n.n.M.B.t.p.d.d.d.d.d.d.d.d.d.d.d.d.d.d.d.d.d.d.d.d.d.d.d.d.d.d.d.d.d.d.d.d.d.d.d.d.d.d.d.d.p.t.B.M.V.n.n.N.C.[ G G ",
"x z N ` n.V.n.V.m.l.e.p.d.d.d.d.d.d.d.d.d.d.d.d.d.d.d.d.d.d.d.d.d.d.d.d.d.d.d.d.d.d.d.d.d.d.d.d.d.d.d.d.p.e.l.M.n.n.n.n.+.) G G ",
"z h y b @.b.V.V.m.x.q.p.d.d.d.d.d.d.d.d.d.d.d.d.d.d.d.d.d.d.d.d.d.d.d.d.d.d.d.d.d.d.d.a.d.d.d.d.d.d.d.d.d.w.x.m.V.n.C.v./ h h z ",
"w r r u ( @.v.V.m.z.q.d.d.d.d.d.d.d.d.d.d.d.d.d.d.d.d.d.d.d.d.d.d.d.d.d.d.d.d.d.d.d.d.d.d.d.d.d.d.d.d.d.a.f.z.m.V.b.v.+.a = ; r ",
"X o # = w c O.V.m.z.q.p.d.d.d.d.d.d.d.d.d.d.d.d.d.d.d.d.d.d.d.d.d.d.d.d.d.d.d.d.d.d.d.d.d.d.d.d.d.d.d.d.p.q.z.m.C.@.[ E y w * o ",
"X o $ w r j N _ ! I 8.p.d.d.d.d.d.d.d.d.d.d.d.d.d.d.d.d.d.d.d.d.d.d.d.d.d.d.d.d.d.d.d.d.d.d.d.d.d.d.d.d.p.8.T ~ ' ~ N G j g = O ",
"o # * w e p h g s d 2.s.d.d.d.d.d.d.d.d.d.d.d.d.d.d.d.d.d.d.d.d.d.d.d.d.d.d.d.d.d.d.d.d.d.d.d.d.d.d.d.d.p.4.A z x G x R x h = O ",
"O $ * * w r y g h t 1.s.d.d.d.d.d.d.d.d.d.d.d.d.d.d.d.d.d.d.d.d.d.d.d.d.d.d.d.d.d.d.d.d.d.d.d.d.d.d.d.d.p.3.z R R G x h h i = O ",
"o # $ * = w y h s r 1.s.d.d.d.d.d.d.d.d.d.d.d.d.d.i.d.d.d.d.d.d.d.d.d.d.d.d.d.d.d.d.d.d.d.d.d.d.d.d.d.d.s.4.z z h g y w w y > O ",
"o O O o O = y g y s 2.s.d.d.d.d.d.d.d.d.d.d.d.d.d.d.d.d.d.d.d.d.d.d.d.d.d.d.d.d.d.d.d.d.d.d.d.d.d.d.d.d.p.3.s * * * * $ = w = # ",
"= * $ $ * y x x x x ,.7.d.d.d.d.d.d.d.d.d.d.d.d.d.d.d.d.d.d.d.d.d.d.d.d.d.d.d.d.d.d.d.d.d.d.d.d.d.d.d.d.7.*.h w $ * t > r i y y ",
"z r w w y m W W W W K 1.p.d.d.d.d.d.d.d.d.d.d.d.d.d.d.d.d.d.d.d.d.d.d.d.d.d.d.d.d.d.d.d.d.d.d.d.d.d.d.s.>.Z x h = = k k k x x z ",
"k y > w h G W W W R x 9.u.u.d.d.d.d.d.d.d.d.d.d.d.d.d.d.d.d.d.d.d.d.d.d.d.d.d.d.d.d.d.d.d.d.d.d.d.d.d.d.9.j x s * = k k x G x x ",
"x y = = y x R W W W m 9.i.p.d.d.d.d.d.d.d.d.d.d.d.d.d.d.d.d.d.d.d.d.d.d.i.d.d.d.d.d.d.d.d.d.d.d.d.d.d.i.9.m k h > = w y k G G x ",
"r ; # o $ r i h z h e < 7 i.d.d.d.d.d.d.d.d.d.d.d.d.d.d.d.d.d.d.d.d.d.d.d.d.d.s.d.d.d.d.d.d.d.d.d.d.i.0 f h w * > w = = > r r r ",
"> y r = = y h h k h y e d 7.d.d.d.d.d.d.d.d.d.d.d.d.d.d.d.d.d.d.d.d.d.d.d.d.d.a.d.d.d.d.d.d.d.d.d.d.7.Z h k i r h h i y i y w * ",
"r k R m k R R m G z x M J ,.a.p.d.d.d.d.d.d.d.d.d.d.d.d.d.d.d.d.d.d.d.a.s.d.d.d.d.d.d.d.d.d.d.d.d.i.0.P m x G R R R W R W R y $ ",
"r l G m z G x m W x x m R U 5.i.d.d.d.d.d.d.d.d.d.d.d.d.d.d.d.d.d.d.d.d.d.d.d.d.d.d.d.d.d.d.d.d.d.8.U R m x k R G m G R R m g > ",
"> j R M G R G x x R x x R R H 3.p.d.d.d.d.d.d.d.d.d.d.d.d.d.d.d.d.s.d.d.d.d.a.d.d.d.d.d.d.d.d.s.3.H R R R G m R W R R W W R j w ",
"$ * r g g i r w w w w e h y y C >.s.d.d.d.d.d.d.d.d.d.d.d.d.d.d.d.a.d.d.d.d.s.d.d.d.d.d.d.d.s.>.9 ; y h h h h j h g g k h y = * ",
"$ = > r s g r ; w w w y i r = e S 5.i.d.a.d.d.d.d.d.d.d.d.d.d.d.d.d.d.d.d.d.d.d.d.d.d.d.s.i.1.S y r r p h y h h r w y h h r = = ",
"y k k h x R m x G G R G k g > h W P 8.a.i.d.d.d.d.d.d.d.d.d.d.d.d.d.d.d.d.d.d.d.d.d.d.i.i.4.A m W R x M x h R R y e z m R x h h ",
"x x j g g k k j k G G m j h y j R G R ,.7.d.d.d.d.d.d.d.d.d.d.d.d.d.d.d.d.d.d.d.d.d.i.7.,.F h x R G x R R M x R h h z x R x z k ",
"k z k y w y k x k k x G k g r h G G R Y I 0.i.d.s.d.d.d.d.d.d.d.d.d.d.d.d.d.d.s.s.i.=.S J m h z M x x W R x R W h h x m M x z k ",
"y r = $ O # = > w > w > = = $ * > w h j p f &.=.>.6.p.s.s.s.s.s.s.p.s.s.s.s.6.-.&.q d p x z y s h h h h z k z k w w h h y e r w ",
"> $ o o o o + $ = = = * + # # # * = e y ; = e y C *.4.1.1.2.<.<.<.<.2.2.1.5.*.9 y w w w y h i i h z s h k z h h w r h h r w r = ",
"* # $ = > = > r i h h g y r y g x x h h > * y y h k h s s f C 9 9 8 f g h G j h j r = = r W W W W R R R R R R W R W W R x m m z ",
"i g h y w r y g s i e y h h l G x l y h w * r i g g h h z z z x l l z k z h h k h > * e m W x R W W R W W R R R R W R W W W R x ",
"h k x h g r h j l l h k G z h k z z h > # $ y p i h h h x G R x x x z x j h z m x g w p W R W R R W W W W W W W W W W W R W R x ",
"g h s t r w e g i e e g h h g g h j i # o O w w r y w > y h k h g y y y i g h h h y = = h x R x k h i h z j h m z k z h h h h h ",
"y y ; $ $ * = > > = * > e g i g h h y * O # * * > = * * * r y y > = % * = = r y r ; * $ = h h y s y = = = r r y e = = * = = = r ",
"h e * o o + = r h y i i h k i l x x x h y r y r > > > > w i h y r r * o O = h m x y r h R x w r h h p r w r h h w * * * = ; w y ",
"h g r = > e h k x k k l l x h x R x R R x x x x i g h y g h k h i h > * = y x R m x z R W R w p R x z h h h x z y r y y y y i h ",
"h y r w r j G m x m G x l i w h G x G R R R W R j k x h k j z h h h r = r x x m R M x R R R y z R m x R M M R x y y g h z h h z ",
"e w = > r h k z x x G h r * # > k x x m R x x x k k k h i y y y h h y > w k j h h h h z z j y z m m M R z z h y ; w y y y y r y ",
"* = = = y > > e l x k ; O o o * s j j z z z l k l h h y = * = > r g i t r y y w = * r h y w w h x z x z h y w # # * w w ; * * * "
};
