/* XPM */
static char *result[] = {
/* columns rows colors chars-per-pixel */
"64 64 256 2 ",
"   c black",
".  c #010101",
"X  c #020202",
"o  c gray1",
"O  c #040404",
"+  c gray2",
"@  c #060606",
"#  c #070707",
"$  c gray3",
"%  c #090909",
"&  c gray4",
"*  c #0B0B0B",
"=  c #0C0C0C",
"-  c gray5",
";  c #0E0E0E",
":  c gray6",
">  c #101010",
",  c #111111",
"<  c gray7",
"1  c #131313",
"2  c gray8",
"3  c #151515",
"4  c #161616",
"5  c gray9",
"6  c #181818",
"7  c #191919",
"8  c gray10",
"9  c #1B1B1B",
"0  c gray11",
"q  c #1D1D1D",
"w  c #1E1E1E",
"e  c gray12",
"r  c #202020",
"t  c gray13",
"y  c #222222",
"u  c #232323",
"i  c gray14",
"p  c #252525",
"a  c gray15",
"s  c #272727",
"d  c #282828",
"f  c gray16",
"g  c #2A2A2A",
"h  c gray17",
"j  c #2C2C2C",
"k  c #2D2D2D",
"l  c gray18",
"z  c #2F2F2F",
"x  c gray19",
"c  c #313131",
"v  c #323232",
"b  c gray20",
"n  c #343434",
"m  c #353535",
"M  c gray21",
"N  c #373737",
"B  c gray22",
"V  c #393939",
"C  c #3A3A3A",
"Z  c gray23",
"A  c #3C3C3C",
"S  c gray24",
"D  c #3E3E3E",
"F  c #3F3F3F",
"G  c gray25",
"H  c #414141",
"J  c gray26",
"K  c #434343",
"L  c #444444",
"P  c gray27",
"I  c #464646",
"U  c gray28",
"Y  c #484848",
"T  c #494949",
"R  c gray29",
"E  c #4B4B4B",
"W  c #4C4C4C",
"Q  c gray30",
"!  c #4E4E4E",
"~  c gray31",
"^  c #505050",
"/  c #515151",
"(  c gray32",
")  c #535353",
"_  c gray33",
"`  c #555555",
"'  c #565656",
"]  c gray34",
"[  c #585858",
"{  c gray35",
"}  c #5A5A5A",
"|  c #5B5B5B",
" . c gray36",
".. c #5D5D5D",
"X. c gray37",
"o. c #5F5F5F",
"O. c #606060",
"+. c gray38",
"@. c #626262",
"#. c gray39",
"$. c #646464",
"%. c #656565",
"&. c gray40",
"*. c #676767",
"=. c #686868",
"-. c DimGray",
";. c #6A6A6A",
":. c gray42",
">. c #6C6C6C",
",. c #6D6D6D",
"<. c gray43",
"1. c #6F6F6F",
"2. c gray44",
"3. c #717171",
"4. c #727272",
"5. c gray45",
"6. c #747474",
"7. c gray46",
"8. c #767676",
"9. c #777777",
"0. c gray47",
"q. c #797979",
"w. c gray48",
"e. c #7B7B7B",
"r. c #7C7C7C",
"t. c gray49",
"y. c #7E7E7E",
"u. c gray50",
"i. c #808080",
"p. c #818181",
"a. c gray51",
"s. c #838383",
"d. c #848484",
"f. c gray52",
"g. c #868686",
"h. c gray53",
"j. c #888888",
"k. c #898989",
"l. c gray54",
"z. c #8B8B8B",
"x. c gray55",
"c. c #8D8D8D",
"v. c #8E8E8E",
"b. c gray56",
"n. c #909090",
"m. c gray57",
"M. c #929292",
"N. c #939393",
"B. c gray58",
"V. c #959595",
"C. c gray59",
"Z. c #979797",
"A. c #989898",
"S. c gray60",
"D. c #9A9A9A",
"F. c #9B9B9B",
"G. c gray61",
"H. c #9D9D9D",
"J. c gray62",
"K. c #9F9F9F",
"L. c #A0A0A0",
"P. c gray63",
"I. c #A2A2A2",
"U. c gray64",
"Y. c #A4A4A4",
"T. c #A5A5A5",
"R. c gray65",
"E. c #A7A7A7",
"W. c gray66",
"Q. c #A9A9A9",
"!. c #AAAAAA",
"~. c gray67",
"^. c #ACACAC",
"/. c gray68",
"(. c #AEAEAE",
"). c #AFAFAF",
"_. c gray69",
"`. c #B1B1B1",
"'. c #B2B2B2",
"]. c gray70",
"[. c #B4B4B4",
"{. c gray71",
"}. c #B6B6B6",
"|. c #B7B7B7",
" X c gray72",
".X c #B9B9B9",
"XX c gray73",
"oX c #BBBBBB",
"OX c #BCBCBC",
"+X c gray74",
"@X c gray",
"#X c gray75",
"$X c #C0C0C0",
"%X c #C1C1C1",
"&X c gray76",
"*X c #C3C3C3",
"=X c gray77",
"-X c #C5C5C5",
";X c #C6C6C6",
":X c gray78",
">X c #C8C8C8",
",X c gray79",
"<X c #CACACA",
"1X c #CBCBCB",
"2X c gray80",
"3X c #CDCDCD",
"4X c #CECECE",
"5X c gray81",
"6X c #D0D0D0",
"7X c gray82",
"8X c #D2D2D2",
"9X c LightGray",
"0X c gray83",
"qX c #D5D5D5",
"wX c gray84",
"eX c #D7D7D7",
"rX c #D8D8D8",
"tX c gray85",
"yX c #DADADA",
"uX c gray86",
"iX c gainsboro",
"pX c #DDDDDD",
"aX c gray87",
"sX c #DFDFDF",
"dX c gray88",
"fX c #E1E1E1",
"gX c #E2E2E2",
"hX c gray89",
"jX c #E4E4E4",
"kX c gray90",
"lX c #E6E6E6",
"zX c #E7E7E7",
"xX c gray91",
"cX c #E9E9E9",
"vX c #EAEAEA",
"bX c gray92",
"nX c #ECECEC",
"mX c gray93",
"MX c #EEEEEE",
"NX c #EFEFEF",
"BX c gray94",
"VX c #F1F1F1",
"CX c gray95",
"ZX c #F3F3F3",
"AX c #F4F4F4",
"SX c gray96",
"DX c #F6F6F6",
"FX c gray97",
"GX c #F8F8F8",
"HX c #F9F9F9",
"JX c gray98",
"KX c #FBFBFB",
"LX c gray99",
"PX c #FDFDFD",
"IX c #FEFEFE",
"UX c white",
/* pixels */
"< 1 < 1 6 3 3 6 0 w 0 2 = % $ , 8 0 0 q q q 0 q 0 9 0 7 1 < 1 2 5 9 8 5 5 8 6 3 1 < 5 9 7 3 4 9 w w w q 9 6 2 : ; < 4 4 3 < , < ",
"7 4 2 2 6 8 0 q q q w 9 4 < ; 4 0 q q e e e e e 0 0 q 0 8 7 6 7 8 9 6 2 4 0 0 8 9 9 0 q w 0 7 q e e e e w q 9 7 2 3 6 6 7 5 5 7 ",
"9 7 5 4 6 q e e w w e e q 8 5 9 e w e r r r r r 0 0 q 0 0 0 0 0 0 0 5 1 5 q e e r e w r t r 7 q r e e e e e e w 7 6 8 9 0 9 8 0 ",
"8 8 5 2 2 5 8 0 q q q 0 0 w 9 w e w e e w w w q 8 7 8 6 8 0 q 0 8 8 3 , 2 7 w r e q q e y e 3 8 e w q 0 0 0 w q 7 6 7 8 8 7 7 9 ",
"0 6 , & % - < 5 8 7 7 7 9 q 8 9 q w e 0 6 6 7 5 2 2 2 2 4 7 8 6 5 5 , * = < 9 e q 7 6 0 e e 4 5 9 0 9 5 4 6 9 0 4 , , < 2 3 5 6 ",
"7 7 3 > > < 2 3 3 1 1 3 6 8 7 8 9 9 6 , = - < < 2 1 > , < 4 7 5 3 1 , > < 2 5 6 5 3 > : 2 9 8 7 8 7 2 2 3 4 4 8 5 2 1 < 1 1 2 4 ",
"8 8 7 5 6 4 6 8 7 7 6 8 0 9 8 8 9 0 8 : % = 3 4 6 6 4 3 6 9 q 9 8 7 7 7 7 8 9 9 9 7 < 2 8 w e w q 0 8 0 0 0 0 e q 0 0 8 8 9 9 9 ",
"9 q q 9 8 5 8 q 0 0 9 q w q 9 0 q 0 9 2 ; : 6 8 8 9 9 9 q e e e w w w q q 0 q e w 8 3 8 y t t r r r r y y t t y y y y t t t t w ",
"7 9 9 7 4 5 7 8 8 7 6 7 9 9 0 w e 0 7 9 3 , 5 7 8 8 9 0 q w w e q 0 q q q 9 0 q 9 2 < 6 r t e r t t r t t r e t y t r t r t r q ",
", : : < 1 1 2 5 9 8 8 8 6 5 7 9 w w 9 9 3 < 6 6 9 q 9 7 0 q q q q 0 q q 0 w 0 9 9 4 1 1 6 r t y t t r t r r r t t r t t e e e w ",
"3 > * % % & = > 1 1 2 , ; ; ; : , 2 6 6 2 1 6 7 7 2 - ; 1 6 8 6 6 6 4 3 7 7 4 4 7 5 4 4 7 0 7 8 9 0 8 9 0 q 0 9 4 4 9 0 4 4 5 3 ",
"8 5 1 : = ; < 4 4 3 5 3 1 , : < 2 4 9 0 0 0 0 q 6 1 > 1 4 8 9 9 9 8 6 6 q q 8 7 0 0 8 9 q q 6 7 9 9 8 0 q q q q 5 4 9 0 7 6 5 4 ",
"q q 0 7 4 7 0 w q q w e q 7 5 9 w e r t y y r e 8 6 9 q q q w w e w q w y u t r e y e w e e 9 q e w w t r w r t q 9 w e e w q 0 ",
"q w 0 8 9 q q q q w r e q 9 7 0 r r r e e e e r 9 8 q 0 q q 0 9 q q 9 9 e r r e e t t e w w 0 w r e e r r e w r 9 8 q e e w q q ",
"6 q q 9 q r e q e r r e q 8 2 9 y t r r t t t r 0 9 w e q w w 9 9 w 0 6 5 9 w r r r e e r r q r t e w e q 0 e e 7 6 0 e r w 0 9 ",
"> 1 4 5 6 8 5 4 4 3 4 6 7 5 1 7 0 8 9 0 q q 9 6 5 6 9 q 9 0 8 1 1 7 6 < ; > < 4 7 4 < 1 2 1 3 9 9 4 5 8 8 7 0 0 5 3 6 0 9 5 1 < ",
": 1 5 7 8 8 5 4 4 3 3 6 8 8 7 9 9 7 0 q 0 8 7 6 7 9 q w q w 0 4 3 8 7 3 2 2 1 2 4 < * * ; ; < 7 8 4 6 9 0 0 q 0 9 8 8 0 9 6 2 > ",
"3 0 r r r r e w e r w e r r r r r r t t q 9 q e t t y u t y i y r r t r t t w 9 6 4 - - 1 2 5 q r r r r r r e r t t r r t r 0 4 ",
"5 0 e w q r w e t w q w r r r r r r e r 9 7 e e r t t i y y u y e r r e 0 w 0 8 7 2 ; , 4 4 8 w r e t r e q 0 e e e r t r w 8 3 ",
"4 q r e 0 r e e r w w e r t t w w r e e 6 5 t t y t r u u t r t r e r t q 0 7 5 3 , = > 6 8 q w e t y t e w e r r r t t y r 7 : ",
"3 6 5 1 1 7 9 9 0 9 7 6 7 8 5 3 4 7 7 2 , 3 q 0 7 5 4 8 0 q q w q 7 6 6 3 < , : : , = ; < 2 3 4 6 7 6 8 0 0 7 4 8 0 8 6 7 7 3 > ",
"5 3 : * > 5 8 9 q 0 5 4 4 4 > > 2 5 5 , , 4 0 6 , - ; 2 8 0 0 q q 4 > - - = - : , 4 < > > : ; < 3 2 1 5 9 9 4 , 2 4 2 1 3 4 5 5 ",
"w 7 < , 7 e r t y t e w e q 4 7 w e e w q w e q < - < 0 r r r t y 9 > % - < 4 7 q e 0 6 4 5 1 6 0 0 q w e e q 8 3 2 5 7 q e e e ",
"q 7 4 4 9 e t t r r r r r r 8 9 w w q e e e e w 3 < 6 w t r e r w q 1 * > 2 4 7 0 q e w 0 7 7 q e w w w w w e 7 , 2 q 0 w w w q ",
"0 6 4 5 7 e y y t t t r r e 9 w r e q w e r r w 2 , 7 e r t t r q w 5 - - 2 5 7 9 q r r q 0 0 e r r r q 0 w w 9 < 2 q 0 q w w q ",
"2 , > > , 7 q e w e 0 6 4 4 5 0 w q 0 0 q e q 8 > - < 9 w r r q 6 7 3 = % : 2 5 7 7 8 7 5 6 9 q w q 9 8 9 0 9 4 > < 5 3 6 7 7 6 ",
"& * * & * < 6 8 8 7 2 > ; : 2 6 7 7 9 8 7 8 7 5 , - ; 5 q e w 9 2 3 1 - & * : 1 1 > : ; ; < 7 0 0 9 4 7 9 9 7 < > , < : 1 3 1 : ",
"% ; > > 1 3 7 9 8 5 2 4 7 7 9 9 9 0 9 6 1 2 9 w 0 7 6 q e y r 9 9 0 9 6 3 2 , ; = $ # $ * > 9 e r e 8 0 q w w q 0 8 6 4 4 7 3 * ",
"= : , 1 4 4 7 9 9 8 8 8 9 0 0 9 9 q 0 6 > > 8 9 0 0 q e e r t e w e w 0 0 9 6 2 , * $ = < 3 6 q t t e 0 q r r r r e w 0 9 8 2 = ",
"& - , 3 6 8 9 0 q q 0 9 9 0 9 9 q e w 7 : = 3 5 8 w r r e e t t r r r e w e w 0 6 , * : 3 6 0 r y t t e e r r r r e e e w 9 2 - ",
"# % : 3 5 8 8 8 8 9 9 8 7 8 8 9 0 q 8 4 ; % - > 2 9 e r e e e q 0 0 e r w q w w 0 6 > ; < 3 q e w 0 q w w w w q w q q r q 8 1 * ",
"$ % ; < < 1 2 3 3 4 7 6 3 3 5 6 6 5 1 , - % & & ; 4 w e w e 0 4 3 5 9 w 9 5 6 8 0 0 5 , ; > 1 5 5 3 4 7 8 8 9 7 9 9 9 w 6 3 , & ",
"4 5 5 3 < < 4 6 6 6 4 2 < > ; < 4 3 2 6 4 < 1 1 4 7 9 0 w q 9 6 4 7 7 4 1 2 5 8 w y t w 7 , & , 7 9 5 7 9 9 7 4 4 6 9 q 4 2 3 4 ",
"0 0 8 5 4 7 0 q 0 0 0 0 9 6 < 6 q w 0 e q 9 9 6 2 3 7 9 e e w 0 0 w 0 5 4 8 q e t t t t r 9 < 2 7 9 8 9 q 0 8 7 6 7 0 q 9 9 0 q ",
"w q 9 8 9 0 e r e e w e r w 8 q y y y u r 0 8 6 , , 5 7 q w w w e e 9 4 4 0 t u u u y y r q 5 4 6 8 8 0 0 0 9 8 3 5 q q w e r e ",
"e w 9 7 7 8 q e e e w q e e q e t t t t q 4 < < ; > 3 4 6 9 0 9 e w 6 < 2 8 r y y p i y 0 1 1 2 5 7 7 7 8 8 7 4 : < 9 9 q w w e ",
"q q 8 2 : 3 9 q 0 q q q 0 q 7 w y e 9 5 2 > - % $ = , > 2 5 5 5 0 0 5 < 3 9 w w w e r w 4 % - , 3 6 5 2 3 4 < , = : 4 4 8 7 7 w ",
"2 4 5 4 2 3 7 9 0 e w 0 0 w w e r q 5 2 ; % # $ & - ; ; < < , < 5 5 3 1 3 2 4 7 7 5 5 5 3 : > , < < 1 , < 1 1 2 < ; * * - = - > ",
"< 6 0 q q q q w e r r e e r t y t w 7 6 , & & - < 1 1 3 4 3 4 5 6 7 7 6 7 6 7 8 8 2 , 2 5 2 4 4 4 5 5 4 4 6 6 5 5 1 > < > ; - = ",
"3 0 t t y y t r t t t t t t t u u r 0 9 1 - > 3 7 7 7 0 9 8 9 0 0 0 0 9 8 0 0 0 0 5 , 3 9 7 7 8 9 0 0 9 9 0 9 8 8 5 3 6 5 3 < : ",
"4 q t t y t t r e t r t t r r t y t q 5 ; * 2 8 9 9 0 q 0 9 0 0 q 0 9 7 5 8 9 9 0 0 5 7 q 0 8 9 0 0 q 0 0 9 8 9 8 5 2 5 6 4 2 , ",
"1 8 e t y r r r e 9 e t e q w 0 9 q 9 > % & : 3 8 9 9 0 0 9 9 8 7 8 7 5 6 7 8 7 8 e 9 8 9 8 7 7 7 8 0 0 7 5 6 7 5 2 1 4 3 3 < ; ",
"- ; 1 7 9 0 0 8 5 < 4 9 0 7 < ; ; < 4 , = & - 3 5 7 0 0 8 8 5 , ; ; - - 2 4 2 < 1 9 8 5 < ; < 2 < , 6 8 7 4 > ; = = = - - > > - ",
"> , 1 5 9 q q 0 6 5 7 q w 7 ; = ; < 5 6 3 < 1 6 6 8 e w 0 9 6 1 < > = * , 5 5 3 4 9 9 7 1 * : 3 5 4 8 9 0 7 2 , - = ; : : : , , ",
"6 8 8 8 e t t r q e r t r 0 > , 4 6 8 0 9 8 8 9 6 9 t r w q 9 8 0 6 < ; , 6 0 0 q q q q 8 , , 7 w w w w w q 0 9 < > 3 5 5 2 2 5 ",
"7 8 8 8 w r r e q q w e e 9 > 3 8 8 7 9 9 9 9 7 3 5 q w w q 0 9 8 7 3 , , 5 8 9 9 q q q 0 6 1 7 w q w w w q 0 w 1 , 5 7 8 8 7 7 ",
"8 0 9 8 9 0 w e e e r r t w 1 4 8 9 0 9 0 0 8 4 , , 2 7 9 q q q 6 7 5 1 2 5 7 8 9 7 0 q 0 9 6 0 r r r e w w w e 5 1 4 4 5 7 7 8 ",
"5 5 2 1 3 , < 6 q q 9 8 7 8 4 5 7 7 9 9 8 7 6 2 : = = : > , 3 6 1 , > > 2 2 1 < 1 , < 5 8 6 6 7 6 5 5 4 4 6 8 7 1 > , ; - : < 2 ",
"3 5 4 1 3 , < 5 q q 9 7 6 8 8 9 0 q q w 9 7 8 5 2 , : - - > 3 6 3 1 < 2 6 4 1 1 2 < , 3 8 7 6 7 5 3 3 3 3 5 7 6 2 < , - & % = : ",
"1 9 w 9 7 8 0 w e r e w e w e e t u u y e 0 w q 0 9 8 3 3 8 q q q q q q q 0 9 9 q 0 5 7 q 0 8 0 q 0 0 9 0 q 0 0 9 7 5 3 > ; ; : ",
": 5 8 6 5 7 0 e r t r w q w e q w r r e 9 8 q w 0 9 9 0 9 0 w q 0 q q w w 0 0 q 0 q 6 7 0 8 0 0 0 q q q q 0 9 9 0 0 0 9 6 6 4 , ",
"= > 1 1 1 5 q r r t e w q w r w w r r r 8 4 8 7 9 9 0 w w e e w q w q w e 9 9 q e 9 1 2 8 7 0 w 0 9 0 7 8 0 q q q q 0 0 q 0 6 < ",
"* * = = - : 1 5 8 0 0 0 8 6 0 9 7 7 0 q 8 2 , > , < 2 7 0 q 0 9 0 0 7 5 8 6 3 2 2 > = - : > 3 6 4 < 1 2 3 3 5 8 8 7 7 7 8 7 3 > ",
"- * & & * * - , 5 8 0 0 8 3 6 7 6 6 9 0 9 4 ; : - = ; 5 0 0 9 9 q 0 6 2 4 6 1 : ; - : : - ; < 3 2 > > 2 3 1 4 8 6 5 6 7 6 5 3 , ",
"< < : - > < 3 7 q e w w w 8 5 9 e r r r e q 8 0 6 2 3 0 r r r t y t w 8 6 w 0 7 7 6 0 0 8 8 4 8 0 8 8 0 q q e r 8 7 w w 0 9 8 7 ",
"5 < - = : 3 7 0 0 q 0 0 9 8 1 8 e e r r r w 8 7 2 4 q w w e r r r r w 7 6 w e q q q q 9 7 4 > 3 8 7 7 9 w e e r 8 7 q w q 0 0 0 ",
"2 1 : = > 6 q w q q 0 0 0 8 < 7 e r t y e 0 8 7 < 1 9 0 q e r w y y q 8 9 r r e e w q q 9 2 : 5 0 9 9 0 e r w w 6 5 9 w 9 8 7 6 ",
"> > ; = : 4 5 5 6 9 8 8 9 8 2 8 w q 9 9 6 2 1 1 - : 4 5 4 6 7 6 q e 9 5 9 e e w w 9 9 q 9 2 , 3 6 4 5 6 8 8 6 5 1 > , 2 3 3 1 < ",
"; = = = ; , , , 2 7 5 5 6 8 6 0 q 8 3 , : = & * = : 1 , : > < < 4 8 6 3 6 9 q 0 8 5 7 9 9 6 3 1 < , < 1 1 1 < , : = & - , , ; = ",
"- ; : > 1 1 4 7 9 9 8 8 9 0 0 q w q 9 3 > = % - 1 5 4 2 1 < 1 4 6 8 9 8 7 0 0 9 8 6 5 7 q w e 9 7 8 8 6 5 5 4 3 1 2 4 7 6 < * $ ",
"- , 3 5 5 7 0 q q q q q 0 0 q w w q q 8 2 ; ; 4 8 8 7 4 4 4 6 8 9 9 9 9 0 0 9 9 9 7 < 3 0 w r e w q q w q 9 8 6 5 6 9 0 7 2 ; & ",
"= < 7 0 0 q q w w w w e e q w w w q 9 6 , : 3 9 q 0 7 6 6 7 8 9 0 9 9 0 q 9 9 7 4 2 - , 8 w e t t e w r r w q 0 q w q w 8 2 ; & ",
"= , 6 0 0 9 8 9 0 0 q q 0 7 8 0 0 9 5 < ; > 6 8 0 0 8 7 5 5 5 6 7 8 9 9 8 8 5 < - - % ; 6 q q w w w q w w 0 8 8 w w 9 9 4 > * % ",
"- > 2 5 6 3 4 6 7 9 9 7 3 < 1 5 7 5 < : : 1 6 4 6 0 q 7 2 < < 1 4 7 7 6 5 4 > % # $ $ : 4 6 7 8 8 7 8 9 7 3 < 2 5 6 5 3 > * $ $ "
};
